<?xml version="1.0" encoding="utf-8" standalone="no"?>
<!DOCTYPE svg PUBLIC "-//W3C//DTD SVG 1.1//EN"
  "http://www.w3.org/Graphics/SVG/1.1/DTD/svg11.dtd">
<svg height="814.32pt" version="1.1" viewBox="0 0 1579.68 814.32" width="1579.68pt" xmlns="http://www.w3.org/2000/svg" xmlns:xlink="http://www.w3.org/1999/xlink">
 <metadata>
  <rdf:RDF xmlns:cc="http://creativecommons.org/ns#" xmlns:dc="http://purl.org/dc/elements/1.1/" xmlns:rdf="http://www.w3.org/1999/02/22-rdf-syntax-ns#">
   <cc:Work>
    <dc:type rdf:resource="http://purl.org/dc/dcmitype/StillImage"/>
    <dc:date>2021-08-05T08:40:33.040315</dc:date>
    <dc:format>image/svg+xml</dc:format>
    <dc:creator>
     <cc:Agent>
      <dc:title>Matplotlib v3.4.1, https://matplotlib.org/</dc:title>
     </cc:Agent>
    </dc:creator>
   </cc:Work>
  </rdf:RDF>
 </metadata>
 <defs>
  <style type="text/css">*{stroke-linecap:butt;stroke-linejoin:round;}</style>
 </defs>
 <g id="figure_1">
  <g id="patch_1">
   <path d="M 0 814.32 
L 1579.68 814.32 
L 1579.68 0 
L 0 0 
z
" style="fill:#ffffff;"/>
  </g>
  <g id="axes_1">
   <g id="patch_2">
    <path d="M 197.46 724.7448 
L 1421.712 724.7448 
L 1421.712 97.7184 
L 197.46 97.7184 
z
" style="fill:#ffffff;"/>
   </g>
   <g id="patch_3">
    <path clip-path="url(#p59ad7404ce)" d="M 253.107818 724.7448 
L 343.961399 724.7448 
L 343.961399 714.4488 
L 253.107818 714.4488 
z
" style="fill:#1f77b4;"/>
   </g>
   <g id="patch_4">
    <path clip-path="url(#p59ad7404ce)" d="M 366.674794 724.7448 
L 457.528375 724.7448 
L 457.528375 704.1528 
L 366.674794 704.1528 
z
" style="fill:#1f77b4;"/>
   </g>
   <g id="patch_5">
    <path clip-path="url(#p59ad7404ce)" d="M 480.24177 724.7448 
L 571.095351 724.7448 
L 571.095351 673.2648 
L 480.24177 673.2648 
z
" style="fill:#1f77b4;"/>
   </g>
   <g id="patch_6">
    <path clip-path="url(#p59ad7404ce)" d="M 593.808746 724.7448 
L 684.662327 724.7448 
L 684.662327 616.6368 
L 593.808746 616.6368 
z
" style="fill:#1f77b4;"/>
   </g>
   <g id="patch_7">
    <path clip-path="url(#p59ad7404ce)" d="M 707.375722 724.7448 
L 798.229302 724.7448 
L 798.229302 701.064 
L 707.375722 701.064 
z
" style="fill:#1f77b4;"/>
   </g>
   <g id="patch_8">
    <path clip-path="url(#p59ad7404ce)" d="M 820.942698 724.7448 
L 911.796278 724.7448 
L 911.796278 697.9752 
L 820.942698 697.9752 
z
" style="fill:#1f77b4;"/>
   </g>
   <g id="patch_9">
    <path clip-path="url(#p59ad7404ce)" d="M 934.509673 724.7448 
L 1025.363254 724.7448 
L 1025.363254 697.9752 
L 934.509673 697.9752 
z
" style="fill:#1f77b4;"/>
   </g>
   <g id="patch_10">
    <path clip-path="url(#p59ad7404ce)" d="M 1048.076649 724.7448 
L 1138.93023 724.7448 
L 1138.93023 697.9752 
L 1048.076649 697.9752 
z
" style="fill:#1f77b4;"/>
   </g>
   <g id="patch_11">
    <path clip-path="url(#p59ad7404ce)" d="M 1161.643625 724.7448 
L 1252.497206 724.7448 
L 1252.497206 697.9752 
L 1161.643625 697.9752 
z
" style="fill:#1f77b4;"/>
   </g>
   <g id="patch_12">
    <path clip-path="url(#p59ad7404ce)" d="M 1275.210601 724.7448 
L 1366.064182 724.7448 
L 1366.064182 696.9456 
L 1275.210601 696.9456 
z
" style="fill:#1f77b4;"/>
   </g>
   <g id="patch_13">
    <path clip-path="url(#p59ad7404ce)" d="M 253.107818 714.4488 
L 343.961399 714.4488 
L 343.961399 704.1528 
L 253.107818 704.1528 
z
" style="fill:#ff7f0e;"/>
   </g>
   <g id="patch_14">
    <path clip-path="url(#p59ad7404ce)" d="M 366.674794 704.1528 
L 457.528375 704.1528 
L 457.528375 652.6728 
L 366.674794 652.6728 
z
" style="fill:#ff7f0e;"/>
   </g>
   <g id="patch_15">
    <path clip-path="url(#p59ad7404ce)" d="M 480.24177 673.2648 
L 571.095351 673.2648 
L 571.095351 652.6728 
L 480.24177 652.6728 
z
" style="fill:#ff7f0e;"/>
   </g>
   <g id="patch_16">
    <path clip-path="url(#p59ad7404ce)" d="M 593.808746 616.6368 
L 684.662327 616.6368 
L 684.662327 554.8608 
L 593.808746 554.8608 
z
" style="fill:#ff7f0e;"/>
   </g>
   <g id="patch_17">
    <path clip-path="url(#p59ad7404ce)" d="M 707.375722 701.064 
L 798.229302 701.064 
L 798.229302 586.7784 
L 707.375722 586.7784 
z
" style="fill:#ff7f0e;"/>
   </g>
   <g id="patch_18">
    <path clip-path="url(#p59ad7404ce)" d="M 820.942698 697.9752 
L 911.796278 697.9752 
L 911.796278 669.1464 
L 820.942698 669.1464 
z
" style="fill:#ff7f0e;"/>
   </g>
   <g id="patch_19">
    <path clip-path="url(#p59ad7404ce)" d="M 934.509673 697.9752 
L 1025.363254 697.9752 
L 1025.363254 669.1464 
L 934.509673 669.1464 
z
" style="fill:#ff7f0e;"/>
   </g>
   <g id="patch_20">
    <path clip-path="url(#p59ad7404ce)" d="M 1048.076649 697.9752 
L 1138.93023 697.9752 
L 1138.93023 670.176 
L 1048.076649 670.176 
z
" style="fill:#ff7f0e;"/>
   </g>
   <g id="patch_21">
    <path clip-path="url(#p59ad7404ce)" d="M 1161.643625 697.9752 
L 1252.497206 697.9752 
L 1252.497206 669.1464 
L 1161.643625 669.1464 
z
" style="fill:#ff7f0e;"/>
   </g>
   <g id="patch_22">
    <path clip-path="url(#p59ad7404ce)" d="M 1275.210601 696.9456 
L 1366.064182 696.9456 
L 1366.064182 668.1168 
L 1275.210601 668.1168 
z
" style="fill:#ff7f0e;"/>
   </g>
   <g id="patch_23">
    <path clip-path="url(#p59ad7404ce)" d="M 253.107818 704.1528 
L 343.961399 704.1528 
L 343.961399 683.5608 
L 253.107818 683.5608 
z
" style="fill:#2ca02c;"/>
   </g>
   <g id="patch_24">
    <path clip-path="url(#p59ad7404ce)" d="M 366.674794 652.6728 
L 457.528375 652.6728 
L 457.528375 590.8968 
L 366.674794 590.8968 
z
" style="fill:#2ca02c;"/>
   </g>
   <g id="patch_25">
    <path clip-path="url(#p59ad7404ce)" d="M 480.24177 652.6728 
L 571.095351 652.6728 
L 571.095351 642.3768 
L 480.24177 642.3768 
z
" style="fill:#2ca02c;"/>
   </g>
   <g id="patch_26">
    <path clip-path="url(#p59ad7404ce)" d="M 593.808746 554.8608 
L 684.662327 554.8608 
L 684.662327 544.5648 
L 593.808746 544.5648 
z
" style="fill:#2ca02c;"/>
   </g>
   <g id="patch_27">
    <path clip-path="url(#p59ad7404ce)" d="M 707.375722 586.7784 
L 798.229302 586.7784 
L 798.229302 502.3512 
L 707.375722 502.3512 
z
" style="fill:#2ca02c;"/>
   </g>
   <g id="patch_28">
    <path clip-path="url(#p59ad7404ce)" d="M 820.942698 669.1464 
L 911.796278 669.1464 
L 911.796278 641.3472 
L 820.942698 641.3472 
z
" style="fill:#2ca02c;"/>
   </g>
   <g id="patch_29">
    <path clip-path="url(#p59ad7404ce)" d="M 934.509673 669.1464 
L 1025.363254 669.1464 
L 1025.363254 640.3176 
L 934.509673 640.3176 
z
" style="fill:#2ca02c;"/>
   </g>
   <g id="patch_30">
    <path clip-path="url(#p59ad7404ce)" d="M 1048.076649 670.176 
L 1138.93023 670.176 
L 1138.93023 642.3768 
L 1048.076649 642.3768 
z
" style="fill:#2ca02c;"/>
   </g>
   <g id="patch_31">
    <path clip-path="url(#p59ad7404ce)" d="M 1161.643625 669.1464 
L 1252.497206 669.1464 
L 1252.497206 641.3472 
L 1161.643625 641.3472 
z
" style="fill:#2ca02c;"/>
   </g>
   <g id="patch_32">
    <path clip-path="url(#p59ad7404ce)" d="M 1275.210601 668.1168 
L 1366.064182 668.1168 
L 1366.064182 639.288 
L 1275.210601 639.288 
z
" style="fill:#2ca02c;"/>
   </g>
   <g id="patch_33">
    <path clip-path="url(#p59ad7404ce)" d="M 253.107818 683.5608 
L 343.961399 683.5608 
L 343.961399 642.3768 
L 253.107818 642.3768 
z
" style="fill:#d62728;"/>
   </g>
   <g id="patch_34">
    <path clip-path="url(#p59ad7404ce)" d="M 366.674794 590.8968 
L 457.528375 590.8968 
L 457.528375 518.8248 
L 366.674794 518.8248 
z
" style="fill:#d62728;"/>
   </g>
   <g id="patch_35">
    <path clip-path="url(#p59ad7404ce)" d="M 480.24177 642.3768 
L 571.095351 642.3768 
L 571.095351 516.7656 
L 480.24177 516.7656 
z
" style="fill:#d62728;"/>
   </g>
   <g id="patch_36">
    <path clip-path="url(#p59ad7404ce)" d="M 593.808746 544.5648 
L 684.662327 544.5648 
L 684.662327 525.0024 
L 593.808746 525.0024 
z
" style="fill:#d62728;"/>
   </g>
   <g id="patch_37">
    <path clip-path="url(#p59ad7404ce)" d="M 707.375722 502.3512 
L 798.229302 502.3512 
L 798.229302 406.5984 
L 707.375722 406.5984 
z
" style="fill:#d62728;"/>
   </g>
   <g id="patch_38">
    <path clip-path="url(#p59ad7404ce)" d="M 820.942698 641.3472 
L 911.796278 641.3472 
L 911.796278 610.4592 
L 820.942698 610.4592 
z
" style="fill:#d62728;"/>
   </g>
   <g id="patch_39">
    <path clip-path="url(#p59ad7404ce)" d="M 934.509673 640.3176 
L 1025.363254 640.3176 
L 1025.363254 609.4296 
L 934.509673 609.4296 
z
" style="fill:#d62728;"/>
   </g>
   <g id="patch_40">
    <path clip-path="url(#p59ad7404ce)" d="M 1048.076649 642.3768 
L 1138.93023 642.3768 
L 1138.93023 611.4888 
L 1048.076649 611.4888 
z
" style="fill:#d62728;"/>
   </g>
   <g id="patch_41">
    <path clip-path="url(#p59ad7404ce)" d="M 1161.643625 641.3472 
L 1252.497206 641.3472 
L 1252.497206 609.4296 
L 1161.643625 609.4296 
z
" style="fill:#d62728;"/>
   </g>
   <g id="patch_42">
    <path clip-path="url(#p59ad7404ce)" d="M 1275.210601 639.288 
L 1366.064182 639.288 
L 1366.064182 607.3704 
L 1275.210601 607.3704 
z
" style="fill:#d62728;"/>
   </g>
   <g id="patch_43">
    <path clip-path="url(#p59ad7404ce)" d="M 253.107818 642.3768 
L 343.961399 642.3768 
L 343.961399 590.8968 
L 253.107818 590.8968 
z
" style="fill:#9467bd;"/>
   </g>
   <g id="patch_44">
    <path clip-path="url(#p59ad7404ce)" d="M 366.674794 518.8248 
L 457.528375 518.8248 
L 457.528375 467.3448 
L 366.674794 467.3448 
z
" style="fill:#9467bd;"/>
   </g>
   <g id="patch_45">
    <path clip-path="url(#p59ad7404ce)" d="M 480.24177 516.7656 
L 571.095351 516.7656 
L 571.095351 408.6576 
L 480.24177 408.6576 
z
" style="fill:#9467bd;"/>
   </g>
   <g id="patch_46">
    <path clip-path="url(#p59ad7404ce)" d="M 593.808746 525.0024 
L 684.662327 525.0024 
L 684.662327 473.5224 
L 593.808746 473.5224 
z
" style="fill:#9467bd;"/>
   </g>
   <g id="patch_47">
    <path clip-path="url(#p59ad7404ce)" d="M 707.375722 406.5984 
L 798.229302 406.5984 
L 798.229302 396.3024 
L 707.375722 396.3024 
z
" style="fill:#9467bd;"/>
   </g>
   <g id="patch_48">
    <path clip-path="url(#p59ad7404ce)" d="M 820.942698 610.4592 
L 911.796278 610.4592 
L 911.796278 583.6896 
L 820.942698 583.6896 
z
" style="fill:#9467bd;"/>
   </g>
   <g id="patch_49">
    <path clip-path="url(#p59ad7404ce)" d="M 934.509673 609.4296 
L 1025.363254 609.4296 
L 1025.363254 581.6304 
L 934.509673 581.6304 
z
" style="fill:#9467bd;"/>
   </g>
   <g id="patch_50">
    <path clip-path="url(#p59ad7404ce)" d="M 1048.076649 611.4888 
L 1138.93023 611.4888 
L 1138.93023 584.7192 
L 1048.076649 584.7192 
z
" style="fill:#9467bd;"/>
   </g>
   <g id="patch_51">
    <path clip-path="url(#p59ad7404ce)" d="M 1161.643625 609.4296 
L 1252.497206 609.4296 
L 1252.497206 582.66 
L 1161.643625 582.66 
z
" style="fill:#9467bd;"/>
   </g>
   <g id="patch_52">
    <path clip-path="url(#p59ad7404ce)" d="M 1275.210601 607.3704 
L 1366.064182 607.3704 
L 1366.064182 580.6008 
L 1275.210601 580.6008 
z
" style="fill:#9467bd;"/>
   </g>
   <g id="patch_53">
    <path clip-path="url(#p59ad7404ce)" d="M 253.107818 590.8968 
L 343.961399 590.8968 
L 343.961399 508.5288 
L 253.107818 508.5288 
z
" style="fill:#8c564b;"/>
   </g>
   <g id="patch_54">
    <path clip-path="url(#p59ad7404ce)" d="M 366.674794 467.3448 
L 457.528375 467.3448 
L 457.528375 374.6808 
L 366.674794 374.6808 
z
" style="fill:#8c564b;"/>
   </g>
   <g id="patch_55">
    <path clip-path="url(#p59ad7404ce)" d="M 480.24177 408.6576 
L 571.095351 408.6576 
L 571.095351 398.3616 
L 480.24177 398.3616 
z
" style="fill:#8c564b;"/>
   </g>
   <g id="patch_56">
    <path clip-path="url(#p59ad7404ce)" d="M 593.808746 473.5224 
L 684.662327 473.5224 
L 684.662327 391.1544 
L 593.808746 391.1544 
z
" style="fill:#8c564b;"/>
   </g>
   <g id="patch_57">
    <path clip-path="url(#p59ad7404ce)" d="M 707.375722 396.3024 
L 798.229302 396.3024 
L 798.229302 279.9576 
L 707.375722 279.9576 
z
" style="fill:#8c564b;"/>
   </g>
   <g id="patch_58">
    <path clip-path="url(#p59ad7404ce)" d="M 820.942698 583.6896 
L 911.796278 583.6896 
L 911.796278 554.8608 
L 820.942698 554.8608 
z
" style="fill:#8c564b;"/>
   </g>
   <g id="patch_59">
    <path clip-path="url(#p59ad7404ce)" d="M 934.509673 581.6304 
L 1025.363254 581.6304 
L 1025.363254 552.8016 
L 934.509673 552.8016 
z
" style="fill:#8c564b;"/>
   </g>
   <g id="patch_60">
    <path clip-path="url(#p59ad7404ce)" d="M 1048.076649 584.7192 
L 1138.93023 584.7192 
L 1138.93023 555.8904 
L 1048.076649 555.8904 
z
" style="fill:#8c564b;"/>
   </g>
   <g id="patch_61">
    <path clip-path="url(#p59ad7404ce)" d="M 1161.643625 582.66 
L 1252.497206 582.66 
L 1252.497206 552.8016 
L 1161.643625 552.8016 
z
" style="fill:#8c564b;"/>
   </g>
   <g id="patch_62">
    <path clip-path="url(#p59ad7404ce)" d="M 1275.210601 580.6008 
L 1366.064182 580.6008 
L 1366.064182 551.772 
L 1275.210601 551.772 
z
" style="fill:#8c564b;"/>
   </g>
   <g id="patch_63">
    <path clip-path="url(#p59ad7404ce)" d="M 253.107818 508.5288 
L 343.961399 508.5288 
L 343.961399 415.8648 
L 253.107818 415.8648 
z
" style="fill:#e377c2;"/>
   </g>
   <g id="patch_64">
    <path clip-path="url(#p59ad7404ce)" d="M 366.674794 374.6808 
L 457.528375 374.6808 
L 457.528375 265.5432 
L 366.674794 265.5432 
z
" style="fill:#e377c2;"/>
   </g>
   <g id="patch_65">
    <path clip-path="url(#p59ad7404ce)" d="M 480.24177 398.3616 
L 571.095351 398.3616 
L 571.095351 374.6808 
L 480.24177 374.6808 
z
" style="fill:#e377c2;"/>
   </g>
   <g id="patch_66">
    <path clip-path="url(#p59ad7404ce)" d="M 593.808746 391.1544 
L 684.662327 391.1544 
L 684.662327 359.2368 
L 593.808746 359.2368 
z
" style="fill:#e377c2;"/>
   </g>
   <g id="patch_67">
    <path clip-path="url(#p59ad7404ce)" d="M 707.375722 279.9576 
L 798.229302 279.9576 
L 798.229302 269.6616 
L 707.375722 269.6616 
z
" style="fill:#e377c2;"/>
   </g>
   <g id="patch_68">
    <path clip-path="url(#p59ad7404ce)" d="M 820.942698 554.8608 
L 911.796278 554.8608 
L 911.796278 528.0912 
L 820.942698 528.0912 
z
" style="fill:#e377c2;"/>
   </g>
   <g id="patch_69">
    <path clip-path="url(#p59ad7404ce)" d="M 934.509673 552.8016 
L 1025.363254 552.8016 
L 1025.363254 526.032 
L 934.509673 526.032 
z
" style="fill:#e377c2;"/>
   </g>
   <g id="patch_70">
    <path clip-path="url(#p59ad7404ce)" d="M 1048.076649 555.8904 
L 1138.93023 555.8904 
L 1138.93023 528.0912 
L 1048.076649 528.0912 
z
" style="fill:#e377c2;"/>
   </g>
   <g id="patch_71">
    <path clip-path="url(#p59ad7404ce)" d="M 1161.643625 552.8016 
L 1252.497206 552.8016 
L 1252.497206 525.0024 
L 1161.643625 525.0024 
z
" style="fill:#e377c2;"/>
   </g>
   <g id="patch_72">
    <path clip-path="url(#p59ad7404ce)" d="M 1275.210601 551.772 
L 1366.064182 551.772 
L 1366.064182 525.0024 
L 1275.210601 525.0024 
z
" style="fill:#e377c2;"/>
   </g>
   <g id="patch_73">
    <path clip-path="url(#p59ad7404ce)" d="M 253.107818 415.8648 
L 343.961399 415.8648 
L 343.961399 298.4904 
L 253.107818 298.4904 
z
" style="fill:#7f7f7f;"/>
   </g>
   <g id="patch_74">
    <path clip-path="url(#p59ad7404ce)" d="M 366.674794 265.5432 
L 457.528375 265.5432 
L 457.528375 255.2472 
L 366.674794 255.2472 
z
" style="fill:#7f7f7f;"/>
   </g>
   <g id="patch_75">
    <path clip-path="url(#p59ad7404ce)" d="M 480.24177 374.6808 
L 571.095351 374.6808 
L 571.095351 290.2536 
L 480.24177 290.2536 
z
" style="fill:#7f7f7f;"/>
   </g>
   <g id="patch_76">
    <path clip-path="url(#p59ad7404ce)" d="M 593.808746 359.2368 
L 684.662327 359.2368 
L 684.662327 266.5728 
L 593.808746 266.5728 
z
" style="fill:#7f7f7f;"/>
   </g>
   <g id="patch_77">
    <path clip-path="url(#p59ad7404ce)" d="M 707.375722 269.6616 
L 798.229302 269.6616 
L 798.229302 217.152 
L 707.375722 217.152 
z
" style="fill:#7f7f7f;"/>
   </g>
   <g id="patch_78">
    <path clip-path="url(#p59ad7404ce)" d="M 820.942698 528.0912 
L 911.796278 528.0912 
L 911.796278 499.2624 
L 820.942698 499.2624 
z
" style="fill:#7f7f7f;"/>
   </g>
   <g id="patch_79">
    <path clip-path="url(#p59ad7404ce)" d="M 934.509673 526.032 
L 1025.363254 526.032 
L 1025.363254 497.2032 
L 934.509673 497.2032 
z
" style="fill:#7f7f7f;"/>
   </g>
   <g id="patch_80">
    <path clip-path="url(#p59ad7404ce)" d="M 1048.076649 528.0912 
L 1138.93023 528.0912 
L 1138.93023 499.2624 
L 1048.076649 499.2624 
z
" style="fill:#7f7f7f;"/>
   </g>
   <g id="patch_81">
    <path clip-path="url(#p59ad7404ce)" d="M 1161.643625 525.0024 
L 1252.497206 525.0024 
L 1252.497206 495.144 
L 1161.643625 495.144 
z
" style="fill:#7f7f7f;"/>
   </g>
   <g id="patch_82">
    <path clip-path="url(#p59ad7404ce)" d="M 1275.210601 525.0024 
L 1366.064182 525.0024 
L 1366.064182 495.144 
L 1275.210601 495.144 
z
" style="fill:#7f7f7f;"/>
   </g>
   <g id="patch_83">
    <path clip-path="url(#p59ad7404ce)" d="M 253.107818 298.4904 
L 343.961399 298.4904 
L 343.961399 189.3528 
L 253.107818 189.3528 
z
" style="fill:#bcbd22;"/>
   </g>
   <g id="patch_84">
    <path clip-path="url(#p59ad7404ce)" d="M 366.674794 255.2472 
L 457.528375 255.2472 
L 457.528375 244.9512 
L 366.674794 244.9512 
z
" style="fill:#bcbd22;"/>
   </g>
   <g id="patch_85">
    <path clip-path="url(#p59ad7404ce)" d="M 480.24177 290.2536 
L 571.095351 290.2536 
L 571.095351 218.1816 
L 480.24177 218.1816 
z
" style="fill:#bcbd22;"/>
   </g>
   <g id="patch_86">
    <path clip-path="url(#p59ad7404ce)" d="M 593.808746 266.5728 
L 684.662327 266.5728 
L 684.662327 207.8856 
L 593.808746 207.8856 
z
" style="fill:#bcbd22;"/>
   </g>
   <g id="patch_87">
    <path clip-path="url(#p59ad7404ce)" d="M 707.375722 217.152 
L 798.229302 217.152 
L 798.229302 184.2048 
L 707.375722 184.2048 
z
" style="fill:#bcbd22;"/>
   </g>
   <g id="patch_88">
    <path clip-path="url(#p59ad7404ce)" d="M 820.942698 499.2624 
L 911.796278 499.2624 
L 911.796278 471.4632 
L 820.942698 471.4632 
z
" style="fill:#bcbd22;"/>
   </g>
   <g id="patch_89">
    <path clip-path="url(#p59ad7404ce)" d="M 934.509673 497.2032 
L 1025.363254 497.2032 
L 1025.363254 469.404 
L 934.509673 469.404 
z
" style="fill:#bcbd22;"/>
   </g>
   <g id="patch_90">
    <path clip-path="url(#p59ad7404ce)" d="M 1048.076649 499.2624 
L 1138.93023 499.2624 
L 1138.93023 471.4632 
L 1048.076649 471.4632 
z
" style="fill:#bcbd22;"/>
   </g>
   <g id="patch_91">
    <path clip-path="url(#p59ad7404ce)" d="M 1161.643625 495.144 
L 1252.497206 495.144 
L 1252.497206 467.3448 
L 1161.643625 467.3448 
z
" style="fill:#bcbd22;"/>
   </g>
   <g id="patch_92">
    <path clip-path="url(#p59ad7404ce)" d="M 1275.210601 495.144 
L 1366.064182 495.144 
L 1366.064182 469.404 
L 1275.210601 469.404 
z
" style="fill:#bcbd22;"/>
   </g>
   <g id="patch_93">
    <path clip-path="url(#p59ad7404ce)" d="M 253.107818 189.3528 
L 343.961399 189.3528 
L 343.961399 127.5768 
L 253.107818 127.5768 
z
" style="fill:#17becf;"/>
   </g>
   <g id="patch_94">
    <path clip-path="url(#p59ad7404ce)" d="M 366.674794 244.9512 
L 457.528375 244.9512 
L 457.528375 214.0632 
L 366.674794 214.0632 
z
" style="fill:#17becf;"/>
   </g>
   <g id="patch_95">
    <path clip-path="url(#p59ad7404ce)" d="M 480.24177 218.1816 
L 571.095351 218.1816 
L 571.095351 152.2872 
L 480.24177 152.2872 
z
" style="fill:#17becf;"/>
   </g>
   <g id="patch_96">
    <path clip-path="url(#p59ad7404ce)" d="M 593.808746 207.8856 
L 684.662327 207.8856 
L 684.662327 197.5896 
L 593.808746 197.5896 
z
" style="fill:#17becf;"/>
   </g>
   <g id="patch_97">
    <path clip-path="url(#p59ad7404ce)" d="M 707.375722 184.2048 
L 798.229302 184.2048 
L 798.229302 143.0208 
L 707.375722 143.0208 
z
" style="fill:#17becf;"/>
   </g>
   <g id="patch_98">
    <path clip-path="url(#p59ad7404ce)" d="M 820.942698 471.4632 
L 911.796278 471.4632 
L 911.796278 444.6936 
L 820.942698 444.6936 
z
" style="fill:#17becf;"/>
   </g>
   <g id="patch_99">
    <path clip-path="url(#p59ad7404ce)" d="M 934.509673 469.404 
L 1025.363254 469.404 
L 1025.363254 442.6344 
L 934.509673 442.6344 
z
" style="fill:#17becf;"/>
   </g>
   <g id="patch_100">
    <path clip-path="url(#p59ad7404ce)" d="M 1048.076649 471.4632 
L 1138.93023 471.4632 
L 1138.93023 444.6936 
L 1048.076649 444.6936 
z
" style="fill:#17becf;"/>
   </g>
   <g id="patch_101">
    <path clip-path="url(#p59ad7404ce)" d="M 1161.643625 467.3448 
L 1252.497206 467.3448 
L 1252.497206 439.5456 
L 1161.643625 439.5456 
z
" style="fill:#17becf;"/>
   </g>
   <g id="patch_102">
    <path clip-path="url(#p59ad7404ce)" d="M 1275.210601 469.404 
L 1366.064182 469.404 
L 1366.064182 441.6048 
L 1275.210601 441.6048 
z
" style="fill:#17becf;"/>
   </g>
   <g id="matplotlib.axis_1">
    <g id="xtick_1">
     <g id="line2d_1">
      <defs>
       <path d="M 0 0 
L 0 3.5 
" id="me0b8f3eae7" style="stroke:#000000;stroke-width:0.8;"/>
      </defs>
      <g>
       <use style="stroke:#000000;stroke-width:0.8;" x="298.534609" xlink:href="#me0b8f3eae7" y="724.7448"/>
      </g>
     </g>
     <g id="text_1">
      <!-- exp1 train -->
      <g transform="translate(273.00414 739.343238)scale(0.1 -0.1)">
       <defs>
        <path d="M 3597 1894 
L 3597 1613 
L 953 1613 
Q 991 1019 1311 708 
Q 1631 397 2203 397 
Q 2534 397 2845 478 
Q 3156 559 3463 722 
L 3463 178 
Q 3153 47 2828 -22 
Q 2503 -91 2169 -91 
Q 1331 -91 842 396 
Q 353 884 353 1716 
Q 353 2575 817 3079 
Q 1281 3584 2069 3584 
Q 2775 3584 3186 3129 
Q 3597 2675 3597 1894 
z
M 3022 2063 
Q 3016 2534 2758 2815 
Q 2500 3097 2075 3097 
Q 1594 3097 1305 2825 
Q 1016 2553 972 2059 
L 3022 2063 
z
" id="DejaVuSans-65" transform="scale(0.015625)"/>
        <path d="M 3513 3500 
L 2247 1797 
L 3578 0 
L 2900 0 
L 1881 1375 
L 863 0 
L 184 0 
L 1544 1831 
L 300 3500 
L 978 3500 
L 1906 2253 
L 2834 3500 
L 3513 3500 
z
" id="DejaVuSans-78" transform="scale(0.015625)"/>
        <path d="M 1159 525 
L 1159 -1331 
L 581 -1331 
L 581 3500 
L 1159 3500 
L 1159 2969 
Q 1341 3281 1617 3432 
Q 1894 3584 2278 3584 
Q 2916 3584 3314 3078 
Q 3713 2572 3713 1747 
Q 3713 922 3314 415 
Q 2916 -91 2278 -91 
Q 1894 -91 1617 61 
Q 1341 213 1159 525 
z
M 3116 1747 
Q 3116 2381 2855 2742 
Q 2594 3103 2138 3103 
Q 1681 3103 1420 2742 
Q 1159 2381 1159 1747 
Q 1159 1113 1420 752 
Q 1681 391 2138 391 
Q 2594 391 2855 752 
Q 3116 1113 3116 1747 
z
" id="DejaVuSans-70" transform="scale(0.015625)"/>
        <path d="M 794 531 
L 1825 531 
L 1825 4091 
L 703 3866 
L 703 4441 
L 1819 4666 
L 2450 4666 
L 2450 531 
L 3481 531 
L 3481 0 
L 794 0 
L 794 531 
z
" id="DejaVuSans-31" transform="scale(0.015625)"/>
        <path id="DejaVuSans-20" transform="scale(0.015625)"/>
        <path d="M 1172 4494 
L 1172 3500 
L 2356 3500 
L 2356 3053 
L 1172 3053 
L 1172 1153 
Q 1172 725 1289 603 
Q 1406 481 1766 481 
L 2356 481 
L 2356 0 
L 1766 0 
Q 1100 0 847 248 
Q 594 497 594 1153 
L 594 3053 
L 172 3053 
L 172 3500 
L 594 3500 
L 594 4494 
L 1172 4494 
z
" id="DejaVuSans-74" transform="scale(0.015625)"/>
        <path d="M 2631 2963 
Q 2534 3019 2420 3045 
Q 2306 3072 2169 3072 
Q 1681 3072 1420 2755 
Q 1159 2438 1159 1844 
L 1159 0 
L 581 0 
L 581 3500 
L 1159 3500 
L 1159 2956 
Q 1341 3275 1631 3429 
Q 1922 3584 2338 3584 
Q 2397 3584 2469 3576 
Q 2541 3569 2628 3553 
L 2631 2963 
z
" id="DejaVuSans-72" transform="scale(0.015625)"/>
        <path d="M 2194 1759 
Q 1497 1759 1228 1600 
Q 959 1441 959 1056 
Q 959 750 1161 570 
Q 1363 391 1709 391 
Q 2188 391 2477 730 
Q 2766 1069 2766 1631 
L 2766 1759 
L 2194 1759 
z
M 3341 1997 
L 3341 0 
L 2766 0 
L 2766 531 
Q 2569 213 2275 61 
Q 1981 -91 1556 -91 
Q 1019 -91 701 211 
Q 384 513 384 1019 
Q 384 1609 779 1909 
Q 1175 2209 1959 2209 
L 2766 2209 
L 2766 2266 
Q 2766 2663 2505 2880 
Q 2244 3097 1772 3097 
Q 1472 3097 1187 3025 
Q 903 2953 641 2809 
L 641 3341 
Q 956 3463 1253 3523 
Q 1550 3584 1831 3584 
Q 2591 3584 2966 3190 
Q 3341 2797 3341 1997 
z
" id="DejaVuSans-61" transform="scale(0.015625)"/>
        <path d="M 603 3500 
L 1178 3500 
L 1178 0 
L 603 0 
L 603 3500 
z
M 603 4863 
L 1178 4863 
L 1178 4134 
L 603 4134 
L 603 4863 
z
" id="DejaVuSans-69" transform="scale(0.015625)"/>
        <path d="M 3513 2113 
L 3513 0 
L 2938 0 
L 2938 2094 
Q 2938 2591 2744 2837 
Q 2550 3084 2163 3084 
Q 1697 3084 1428 2787 
Q 1159 2491 1159 1978 
L 1159 0 
L 581 0 
L 581 3500 
L 1159 3500 
L 1159 2956 
Q 1366 3272 1645 3428 
Q 1925 3584 2291 3584 
Q 2894 3584 3203 3211 
Q 3513 2838 3513 2113 
z
" id="DejaVuSans-6e" transform="scale(0.015625)"/>
       </defs>
       <use xlink:href="#DejaVuSans-65"/>
       <use x="59.773438" xlink:href="#DejaVuSans-78"/>
       <use x="118.953125" xlink:href="#DejaVuSans-70"/>
       <use x="182.429688" xlink:href="#DejaVuSans-31"/>
       <use x="246.052734" xlink:href="#DejaVuSans-20"/>
       <use x="277.839844" xlink:href="#DejaVuSans-74"/>
       <use x="317.048828" xlink:href="#DejaVuSans-72"/>
       <use x="358.162109" xlink:href="#DejaVuSans-61"/>
       <use x="419.441406" xlink:href="#DejaVuSans-69"/>
       <use x="447.224609" xlink:href="#DejaVuSans-6e"/>
      </g>
     </g>
    </g>
    <g id="xtick_2">
     <g id="line2d_2">
      <g>
       <use style="stroke:#000000;stroke-width:0.8;" x="412.101584" xlink:href="#me0b8f3eae7" y="724.7448"/>
      </g>
     </g>
     <g id="text_2">
      <!-- exp2 train -->
      <g transform="translate(386.571116 739.343238)scale(0.1 -0.1)">
       <defs>
        <path d="M 1228 531 
L 3431 531 
L 3431 0 
L 469 0 
L 469 531 
Q 828 903 1448 1529 
Q 2069 2156 2228 2338 
Q 2531 2678 2651 2914 
Q 2772 3150 2772 3378 
Q 2772 3750 2511 3984 
Q 2250 4219 1831 4219 
Q 1534 4219 1204 4116 
Q 875 4013 500 3803 
L 500 4441 
Q 881 4594 1212 4672 
Q 1544 4750 1819 4750 
Q 2544 4750 2975 4387 
Q 3406 4025 3406 3419 
Q 3406 3131 3298 2873 
Q 3191 2616 2906 2266 
Q 2828 2175 2409 1742 
Q 1991 1309 1228 531 
z
" id="DejaVuSans-32" transform="scale(0.015625)"/>
       </defs>
       <use xlink:href="#DejaVuSans-65"/>
       <use x="59.773438" xlink:href="#DejaVuSans-78"/>
       <use x="118.953125" xlink:href="#DejaVuSans-70"/>
       <use x="182.429688" xlink:href="#DejaVuSans-32"/>
       <use x="246.052734" xlink:href="#DejaVuSans-20"/>
       <use x="277.839844" xlink:href="#DejaVuSans-74"/>
       <use x="317.048828" xlink:href="#DejaVuSans-72"/>
       <use x="358.162109" xlink:href="#DejaVuSans-61"/>
       <use x="419.441406" xlink:href="#DejaVuSans-69"/>
       <use x="447.224609" xlink:href="#DejaVuSans-6e"/>
      </g>
     </g>
    </g>
    <g id="xtick_3">
     <g id="line2d_3">
      <g>
       <use style="stroke:#000000;stroke-width:0.8;" x="525.66856" xlink:href="#me0b8f3eae7" y="724.7448"/>
      </g>
     </g>
     <g id="text_3">
      <!-- exp3 train -->
      <g transform="translate(500.138092 739.343238)scale(0.1 -0.1)">
       <defs>
        <path d="M 2597 2516 
Q 3050 2419 3304 2112 
Q 3559 1806 3559 1356 
Q 3559 666 3084 287 
Q 2609 -91 1734 -91 
Q 1441 -91 1130 -33 
Q 819 25 488 141 
L 488 750 
Q 750 597 1062 519 
Q 1375 441 1716 441 
Q 2309 441 2620 675 
Q 2931 909 2931 1356 
Q 2931 1769 2642 2001 
Q 2353 2234 1838 2234 
L 1294 2234 
L 1294 2753 
L 1863 2753 
Q 2328 2753 2575 2939 
Q 2822 3125 2822 3475 
Q 2822 3834 2567 4026 
Q 2313 4219 1838 4219 
Q 1578 4219 1281 4162 
Q 984 4106 628 3988 
L 628 4550 
Q 988 4650 1302 4700 
Q 1616 4750 1894 4750 
Q 2613 4750 3031 4423 
Q 3450 4097 3450 3541 
Q 3450 3153 3228 2886 
Q 3006 2619 2597 2516 
z
" id="DejaVuSans-33" transform="scale(0.015625)"/>
       </defs>
       <use xlink:href="#DejaVuSans-65"/>
       <use x="59.773438" xlink:href="#DejaVuSans-78"/>
       <use x="118.953125" xlink:href="#DejaVuSans-70"/>
       <use x="182.429688" xlink:href="#DejaVuSans-33"/>
       <use x="246.052734" xlink:href="#DejaVuSans-20"/>
       <use x="277.839844" xlink:href="#DejaVuSans-74"/>
       <use x="317.048828" xlink:href="#DejaVuSans-72"/>
       <use x="358.162109" xlink:href="#DejaVuSans-61"/>
       <use x="419.441406" xlink:href="#DejaVuSans-69"/>
       <use x="447.224609" xlink:href="#DejaVuSans-6e"/>
      </g>
     </g>
    </g>
    <g id="xtick_4">
     <g id="line2d_4">
      <g>
       <use style="stroke:#000000;stroke-width:0.8;" x="639.235536" xlink:href="#me0b8f3eae7" y="724.7448"/>
      </g>
     </g>
     <g id="text_4">
      <!-- exp4 train -->
      <g transform="translate(613.705067 739.343238)scale(0.1 -0.1)">
       <defs>
        <path d="M 2419 4116 
L 825 1625 
L 2419 1625 
L 2419 4116 
z
M 2253 4666 
L 3047 4666 
L 3047 1625 
L 3713 1625 
L 3713 1100 
L 3047 1100 
L 3047 0 
L 2419 0 
L 2419 1100 
L 313 1100 
L 313 1709 
L 2253 4666 
z
" id="DejaVuSans-34" transform="scale(0.015625)"/>
       </defs>
       <use xlink:href="#DejaVuSans-65"/>
       <use x="59.773438" xlink:href="#DejaVuSans-78"/>
       <use x="118.953125" xlink:href="#DejaVuSans-70"/>
       <use x="182.429688" xlink:href="#DejaVuSans-34"/>
       <use x="246.052734" xlink:href="#DejaVuSans-20"/>
       <use x="277.839844" xlink:href="#DejaVuSans-74"/>
       <use x="317.048828" xlink:href="#DejaVuSans-72"/>
       <use x="358.162109" xlink:href="#DejaVuSans-61"/>
       <use x="419.441406" xlink:href="#DejaVuSans-69"/>
       <use x="447.224609" xlink:href="#DejaVuSans-6e"/>
      </g>
     </g>
    </g>
    <g id="xtick_5">
     <g id="line2d_5">
      <g>
       <use style="stroke:#000000;stroke-width:0.8;" x="752.802512" xlink:href="#me0b8f3eae7" y="724.7448"/>
      </g>
     </g>
     <g id="text_5">
      <!-- exp5 train -->
      <g transform="translate(727.272043 739.343238)scale(0.1 -0.1)">
       <defs>
        <path d="M 691 4666 
L 3169 4666 
L 3169 4134 
L 1269 4134 
L 1269 2991 
Q 1406 3038 1543 3061 
Q 1681 3084 1819 3084 
Q 2600 3084 3056 2656 
Q 3513 2228 3513 1497 
Q 3513 744 3044 326 
Q 2575 -91 1722 -91 
Q 1428 -91 1123 -41 
Q 819 9 494 109 
L 494 744 
Q 775 591 1075 516 
Q 1375 441 1709 441 
Q 2250 441 2565 725 
Q 2881 1009 2881 1497 
Q 2881 1984 2565 2268 
Q 2250 2553 1709 2553 
Q 1456 2553 1204 2497 
Q 953 2441 691 2322 
L 691 4666 
z
" id="DejaVuSans-35" transform="scale(0.015625)"/>
       </defs>
       <use xlink:href="#DejaVuSans-65"/>
       <use x="59.773438" xlink:href="#DejaVuSans-78"/>
       <use x="118.953125" xlink:href="#DejaVuSans-70"/>
       <use x="182.429688" xlink:href="#DejaVuSans-35"/>
       <use x="246.052734" xlink:href="#DejaVuSans-20"/>
       <use x="277.839844" xlink:href="#DejaVuSans-74"/>
       <use x="317.048828" xlink:href="#DejaVuSans-72"/>
       <use x="358.162109" xlink:href="#DejaVuSans-61"/>
       <use x="419.441406" xlink:href="#DejaVuSans-69"/>
       <use x="447.224609" xlink:href="#DejaVuSans-6e"/>
      </g>
     </g>
    </g>
    <g id="xtick_6">
     <g id="line2d_6">
      <g>
       <use style="stroke:#000000;stroke-width:0.8;" x="866.369488" xlink:href="#me0b8f3eae7" y="724.7448"/>
      </g>
     </g>
     <g id="text_6">
      <!-- exp1 test -->
      <g transform="translate(842.874957 739.343238)scale(0.1 -0.1)">
       <defs>
        <path d="M 2834 3397 
L 2834 2853 
Q 2591 2978 2328 3040 
Q 2066 3103 1784 3103 
Q 1356 3103 1142 2972 
Q 928 2841 928 2578 
Q 928 2378 1081 2264 
Q 1234 2150 1697 2047 
L 1894 2003 
Q 2506 1872 2764 1633 
Q 3022 1394 3022 966 
Q 3022 478 2636 193 
Q 2250 -91 1575 -91 
Q 1294 -91 989 -36 
Q 684 19 347 128 
L 347 722 
Q 666 556 975 473 
Q 1284 391 1588 391 
Q 1994 391 2212 530 
Q 2431 669 2431 922 
Q 2431 1156 2273 1281 
Q 2116 1406 1581 1522 
L 1381 1569 
Q 847 1681 609 1914 
Q 372 2147 372 2553 
Q 372 3047 722 3315 
Q 1072 3584 1716 3584 
Q 2034 3584 2315 3537 
Q 2597 3491 2834 3397 
z
" id="DejaVuSans-73" transform="scale(0.015625)"/>
       </defs>
       <use xlink:href="#DejaVuSans-65"/>
       <use x="59.773438" xlink:href="#DejaVuSans-78"/>
       <use x="118.953125" xlink:href="#DejaVuSans-70"/>
       <use x="182.429688" xlink:href="#DejaVuSans-31"/>
       <use x="246.052734" xlink:href="#DejaVuSans-20"/>
       <use x="277.839844" xlink:href="#DejaVuSans-74"/>
       <use x="317.048828" xlink:href="#DejaVuSans-65"/>
       <use x="378.572266" xlink:href="#DejaVuSans-73"/>
       <use x="430.671875" xlink:href="#DejaVuSans-74"/>
      </g>
     </g>
    </g>
    <g id="xtick_7">
     <g id="line2d_7">
      <g>
       <use style="stroke:#000000;stroke-width:0.8;" x="979.936464" xlink:href="#me0b8f3eae7" y="724.7448"/>
      </g>
     </g>
     <g id="text_7">
      <!-- exp2 test -->
      <g transform="translate(956.441933 739.343238)scale(0.1 -0.1)">
       <use xlink:href="#DejaVuSans-65"/>
       <use x="59.773438" xlink:href="#DejaVuSans-78"/>
       <use x="118.953125" xlink:href="#DejaVuSans-70"/>
       <use x="182.429688" xlink:href="#DejaVuSans-32"/>
       <use x="246.052734" xlink:href="#DejaVuSans-20"/>
       <use x="277.839844" xlink:href="#DejaVuSans-74"/>
       <use x="317.048828" xlink:href="#DejaVuSans-65"/>
       <use x="378.572266" xlink:href="#DejaVuSans-73"/>
       <use x="430.671875" xlink:href="#DejaVuSans-74"/>
      </g>
     </g>
    </g>
    <g id="xtick_8">
     <g id="line2d_8">
      <g>
       <use style="stroke:#000000;stroke-width:0.8;" x="1093.50344" xlink:href="#me0b8f3eae7" y="724.7448"/>
      </g>
     </g>
     <g id="text_8">
      <!-- exp3 test -->
      <g transform="translate(1070.008908 739.343238)scale(0.1 -0.1)">
       <use xlink:href="#DejaVuSans-65"/>
       <use x="59.773438" xlink:href="#DejaVuSans-78"/>
       <use x="118.953125" xlink:href="#DejaVuSans-70"/>
       <use x="182.429688" xlink:href="#DejaVuSans-33"/>
       <use x="246.052734" xlink:href="#DejaVuSans-20"/>
       <use x="277.839844" xlink:href="#DejaVuSans-74"/>
       <use x="317.048828" xlink:href="#DejaVuSans-65"/>
       <use x="378.572266" xlink:href="#DejaVuSans-73"/>
       <use x="430.671875" xlink:href="#DejaVuSans-74"/>
      </g>
     </g>
    </g>
    <g id="xtick_9">
     <g id="line2d_9">
      <g>
       <use style="stroke:#000000;stroke-width:0.8;" x="1207.070416" xlink:href="#me0b8f3eae7" y="724.7448"/>
      </g>
     </g>
     <g id="text_9">
      <!-- exp4 test -->
      <g transform="translate(1183.575884 739.343238)scale(0.1 -0.1)">
       <use xlink:href="#DejaVuSans-65"/>
       <use x="59.773438" xlink:href="#DejaVuSans-78"/>
       <use x="118.953125" xlink:href="#DejaVuSans-70"/>
       <use x="182.429688" xlink:href="#DejaVuSans-34"/>
       <use x="246.052734" xlink:href="#DejaVuSans-20"/>
       <use x="277.839844" xlink:href="#DejaVuSans-74"/>
       <use x="317.048828" xlink:href="#DejaVuSans-65"/>
       <use x="378.572266" xlink:href="#DejaVuSans-73"/>
       <use x="430.671875" xlink:href="#DejaVuSans-74"/>
      </g>
     </g>
    </g>
    <g id="xtick_10">
     <g id="line2d_10">
      <g>
       <use style="stroke:#000000;stroke-width:0.8;" x="1320.637391" xlink:href="#me0b8f3eae7" y="724.7448"/>
      </g>
     </g>
     <g id="text_10">
      <!-- exp5 test -->
      <g transform="translate(1297.14286 739.343238)scale(0.1 -0.1)">
       <use xlink:href="#DejaVuSans-65"/>
       <use x="59.773438" xlink:href="#DejaVuSans-78"/>
       <use x="118.953125" xlink:href="#DejaVuSans-70"/>
       <use x="182.429688" xlink:href="#DejaVuSans-35"/>
       <use x="246.052734" xlink:href="#DejaVuSans-20"/>
       <use x="277.839844" xlink:href="#DejaVuSans-74"/>
       <use x="317.048828" xlink:href="#DejaVuSans-65"/>
       <use x="378.572266" xlink:href="#DejaVuSans-73"/>
       <use x="430.671875" xlink:href="#DejaVuSans-74"/>
      </g>
     </g>
    </g>
   </g>
   <g id="matplotlib.axis_2">
    <g id="ytick_1">
     <g id="line2d_11">
      <defs>
       <path d="M 0 0 
L -3.5 0 
" id="m86517033f8" style="stroke:#000000;stroke-width:0.8;"/>
      </defs>
      <g>
       <use style="stroke:#000000;stroke-width:0.8;" x="197.46" xlink:href="#m86517033f8" y="724.7448"/>
      </g>
     </g>
     <g id="text_11">
      <!-- 0 -->
      <g transform="translate(184.0975 728.544019)scale(0.1 -0.1)">
       <defs>
        <path d="M 2034 4250 
Q 1547 4250 1301 3770 
Q 1056 3291 1056 2328 
Q 1056 1369 1301 889 
Q 1547 409 2034 409 
Q 2525 409 2770 889 
Q 3016 1369 3016 2328 
Q 3016 3291 2770 3770 
Q 2525 4250 2034 4250 
z
M 2034 4750 
Q 2819 4750 3233 4129 
Q 3647 3509 3647 2328 
Q 3647 1150 3233 529 
Q 2819 -91 2034 -91 
Q 1250 -91 836 529 
Q 422 1150 422 2328 
Q 422 3509 836 4129 
Q 1250 4750 2034 4750 
z
" id="DejaVuSans-30" transform="scale(0.015625)"/>
       </defs>
       <use xlink:href="#DejaVuSans-30"/>
      </g>
     </g>
    </g>
    <g id="ytick_2">
     <g id="line2d_12">
      <g>
       <use style="stroke:#000000;stroke-width:0.8;" x="197.46" xlink:href="#m86517033f8" y="621.7848"/>
      </g>
     </g>
     <g id="text_12">
      <!-- 100 -->
      <g transform="translate(171.3725 625.584019)scale(0.1 -0.1)">
       <use xlink:href="#DejaVuSans-31"/>
       <use x="63.623047" xlink:href="#DejaVuSans-30"/>
       <use x="127.246094" xlink:href="#DejaVuSans-30"/>
      </g>
     </g>
    </g>
    <g id="ytick_3">
     <g id="line2d_13">
      <g>
       <use style="stroke:#000000;stroke-width:0.8;" x="197.46" xlink:href="#m86517033f8" y="518.8248"/>
      </g>
     </g>
     <g id="text_13">
      <!-- 200 -->
      <g transform="translate(171.3725 522.624019)scale(0.1 -0.1)">
       <use xlink:href="#DejaVuSans-32"/>
       <use x="63.623047" xlink:href="#DejaVuSans-30"/>
       <use x="127.246094" xlink:href="#DejaVuSans-30"/>
      </g>
     </g>
    </g>
    <g id="ytick_4">
     <g id="line2d_14">
      <g>
       <use style="stroke:#000000;stroke-width:0.8;" x="197.46" xlink:href="#m86517033f8" y="415.8648"/>
      </g>
     </g>
     <g id="text_14">
      <!-- 300 -->
      <g transform="translate(171.3725 419.664019)scale(0.1 -0.1)">
       <use xlink:href="#DejaVuSans-33"/>
       <use x="63.623047" xlink:href="#DejaVuSans-30"/>
       <use x="127.246094" xlink:href="#DejaVuSans-30"/>
      </g>
     </g>
    </g>
    <g id="ytick_5">
     <g id="line2d_15">
      <g>
       <use style="stroke:#000000;stroke-width:0.8;" x="197.46" xlink:href="#m86517033f8" y="312.9048"/>
      </g>
     </g>
     <g id="text_15">
      <!-- 400 -->
      <g transform="translate(171.3725 316.704019)scale(0.1 -0.1)">
       <use xlink:href="#DejaVuSans-34"/>
       <use x="63.623047" xlink:href="#DejaVuSans-30"/>
       <use x="127.246094" xlink:href="#DejaVuSans-30"/>
      </g>
     </g>
    </g>
    <g id="ytick_6">
     <g id="line2d_16">
      <g>
       <use style="stroke:#000000;stroke-width:0.8;" x="197.46" xlink:href="#m86517033f8" y="209.9448"/>
      </g>
     </g>
     <g id="text_16">
      <!-- 500 -->
      <g transform="translate(171.3725 213.744019)scale(0.1 -0.1)">
       <use xlink:href="#DejaVuSans-35"/>
       <use x="63.623047" xlink:href="#DejaVuSans-30"/>
       <use x="127.246094" xlink:href="#DejaVuSans-30"/>
      </g>
     </g>
    </g>
    <g id="ytick_7">
     <g id="line2d_17">
      <g>
       <use style="stroke:#000000;stroke-width:0.8;" x="197.46" xlink:href="#m86517033f8" y="106.9848"/>
      </g>
     </g>
     <g id="text_17">
      <!-- 600 -->
      <g transform="translate(171.3725 110.784019)scale(0.1 -0.1)">
       <defs>
        <path d="M 2113 2584 
Q 1688 2584 1439 2293 
Q 1191 2003 1191 1497 
Q 1191 994 1439 701 
Q 1688 409 2113 409 
Q 2538 409 2786 701 
Q 3034 994 3034 1497 
Q 3034 2003 2786 2293 
Q 2538 2584 2113 2584 
z
M 3366 4563 
L 3366 3988 
Q 3128 4100 2886 4159 
Q 2644 4219 2406 4219 
Q 1781 4219 1451 3797 
Q 1122 3375 1075 2522 
Q 1259 2794 1537 2939 
Q 1816 3084 2150 3084 
Q 2853 3084 3261 2657 
Q 3669 2231 3669 1497 
Q 3669 778 3244 343 
Q 2819 -91 2113 -91 
Q 1303 -91 875 529 
Q 447 1150 447 2328 
Q 447 3434 972 4092 
Q 1497 4750 2381 4750 
Q 2619 4750 2861 4703 
Q 3103 4656 3366 4563 
z
" id="DejaVuSans-36" transform="scale(0.015625)"/>
       </defs>
       <use xlink:href="#DejaVuSans-36"/>
       <use x="63.623047" xlink:href="#DejaVuSans-30"/>
       <use x="127.246094" xlink:href="#DejaVuSans-30"/>
      </g>
     </g>
    </g>
   </g>
   <g id="patch_103">
    <path d="M 197.46 724.7448 
L 197.46 97.7184 
" style="fill:none;stroke:#000000;stroke-linecap:square;stroke-linejoin:miter;stroke-width:0.8;"/>
   </g>
   <g id="patch_104">
    <path d="M 1421.712 724.7448 
L 1421.712 97.7184 
" style="fill:none;stroke:#000000;stroke-linecap:square;stroke-linejoin:miter;stroke-width:0.8;"/>
   </g>
   <g id="patch_105">
    <path d="M 197.46 724.7448 
L 1421.712 724.7448 
" style="fill:none;stroke:#000000;stroke-linecap:square;stroke-linejoin:miter;stroke-width:0.8;"/>
   </g>
   <g id="patch_106">
    <path d="M 197.46 97.7184 
L 1421.712 97.7184 
" style="fill:none;stroke:#000000;stroke-linecap:square;stroke-linejoin:miter;stroke-width:0.8;"/>
   </g>
   <g id="text_18">
    <!-- 10 -->
    <g transform="translate(292.85626 719.5968)scale(0.1 -0.1)">
     <use xlink:href="#DejaVuSans-31"/>
     <use x="63.623047" xlink:href="#DejaVuSans-30"/>
    </g>
   </g>
   <g id="text_19">
    <!-- 20 -->
    <g transform="translate(406.423236 714.4488)scale(0.1 -0.1)">
     <use xlink:href="#DejaVuSans-32"/>
     <use x="63.623047" xlink:href="#DejaVuSans-30"/>
    </g>
   </g>
   <g id="text_20">
    <!-- 50 -->
    <g transform="translate(519.990212 699.0048)scale(0.1 -0.1)">
     <use xlink:href="#DejaVuSans-35"/>
     <use x="63.623047" xlink:href="#DejaVuSans-30"/>
    </g>
   </g>
   <g id="text_21">
    <!-- 105 -->
    <g transform="translate(633.557187 670.6908)scale(0.1 -0.1)">
     <use xlink:href="#DejaVuSans-31"/>
     <use x="63.623047" xlink:href="#DejaVuSans-30"/>
     <use x="127.246094" xlink:href="#DejaVuSans-35"/>
    </g>
   </g>
   <g id="text_22">
    <!-- 23 -->
    <g transform="translate(747.124163 712.9044)scale(0.1 -0.1)">
     <use xlink:href="#DejaVuSans-32"/>
     <use x="63.623047" xlink:href="#DejaVuSans-33"/>
    </g>
   </g>
   <g id="text_23">
    <!-- 26 -->
    <g transform="translate(860.691139 711.36)scale(0.1 -0.1)">
     <use xlink:href="#DejaVuSans-32"/>
     <use x="63.623047" xlink:href="#DejaVuSans-36"/>
    </g>
   </g>
   <g id="text_24">
    <!-- 26 -->
    <g transform="translate(974.258115 711.36)scale(0.1 -0.1)">
     <use xlink:href="#DejaVuSans-32"/>
     <use x="63.623047" xlink:href="#DejaVuSans-36"/>
    </g>
   </g>
   <g id="text_25">
    <!-- 26 -->
    <g transform="translate(1087.825091 711.36)scale(0.1 -0.1)">
     <use xlink:href="#DejaVuSans-32"/>
     <use x="63.623047" xlink:href="#DejaVuSans-36"/>
    </g>
   </g>
   <g id="text_26">
    <!-- 26 -->
    <g transform="translate(1201.392067 711.36)scale(0.1 -0.1)">
     <use xlink:href="#DejaVuSans-32"/>
     <use x="63.623047" xlink:href="#DejaVuSans-36"/>
    </g>
   </g>
   <g id="text_27">
    <!-- 27 -->
    <g transform="translate(1314.959043 710.8452)scale(0.1 -0.1)">
     <defs>
      <path d="M 525 4666 
L 3525 4666 
L 3525 4397 
L 1831 0 
L 1172 0 
L 2766 4134 
L 525 4134 
L 525 4666 
z
" id="DejaVuSans-37" transform="scale(0.015625)"/>
     </defs>
     <use xlink:href="#DejaVuSans-32"/>
     <use x="63.623047" xlink:href="#DejaVuSans-37"/>
    </g>
   </g>
   <g id="text_28">
    <!-- 10 -->
    <g transform="translate(292.85626 709.3008)scale(0.1 -0.1)">
     <use xlink:href="#DejaVuSans-31"/>
     <use x="63.623047" xlink:href="#DejaVuSans-30"/>
    </g>
   </g>
   <g id="text_29">
    <!-- 50 -->
    <g transform="translate(406.423236 678.4128)scale(0.1 -0.1)">
     <use xlink:href="#DejaVuSans-35"/>
     <use x="63.623047" xlink:href="#DejaVuSans-30"/>
    </g>
   </g>
   <g id="text_30">
    <!-- 20 -->
    <g transform="translate(519.990212 662.9688)scale(0.1 -0.1)">
     <use xlink:href="#DejaVuSans-32"/>
     <use x="63.623047" xlink:href="#DejaVuSans-30"/>
    </g>
   </g>
   <g id="text_31">
    <!-- 60 -->
    <g transform="translate(633.557187 585.7488)scale(0.1 -0.1)">
     <use xlink:href="#DejaVuSans-36"/>
     <use x="63.623047" xlink:href="#DejaVuSans-30"/>
    </g>
   </g>
   <g id="text_32">
    <!-- 111 -->
    <g transform="translate(747.124163 643.9212)scale(0.1 -0.1)">
     <use xlink:href="#DejaVuSans-31"/>
     <use x="63.623047" xlink:href="#DejaVuSans-31"/>
     <use x="127.246094" xlink:href="#DejaVuSans-31"/>
    </g>
   </g>
   <g id="text_33">
    <!-- 28 -->
    <g transform="translate(860.691139 683.5608)scale(0.1 -0.1)">
     <defs>
      <path d="M 2034 2216 
Q 1584 2216 1326 1975 
Q 1069 1734 1069 1313 
Q 1069 891 1326 650 
Q 1584 409 2034 409 
Q 2484 409 2743 651 
Q 3003 894 3003 1313 
Q 3003 1734 2745 1975 
Q 2488 2216 2034 2216 
z
M 1403 2484 
Q 997 2584 770 2862 
Q 544 3141 544 3541 
Q 544 4100 942 4425 
Q 1341 4750 2034 4750 
Q 2731 4750 3128 4425 
Q 3525 4100 3525 3541 
Q 3525 3141 3298 2862 
Q 3072 2584 2669 2484 
Q 3125 2378 3379 2068 
Q 3634 1759 3634 1313 
Q 3634 634 3220 271 
Q 2806 -91 2034 -91 
Q 1263 -91 848 271 
Q 434 634 434 1313 
Q 434 1759 690 2068 
Q 947 2378 1403 2484 
z
M 1172 3481 
Q 1172 3119 1398 2916 
Q 1625 2713 2034 2713 
Q 2441 2713 2670 2916 
Q 2900 3119 2900 3481 
Q 2900 3844 2670 4047 
Q 2441 4250 2034 4250 
Q 1625 4250 1398 4047 
Q 1172 3844 1172 3481 
z
" id="DejaVuSans-38" transform="scale(0.015625)"/>
     </defs>
     <use xlink:href="#DejaVuSans-32"/>
     <use x="63.623047" xlink:href="#DejaVuSans-38"/>
    </g>
   </g>
   <g id="text_34">
    <!-- 28 -->
    <g transform="translate(974.258115 683.5608)scale(0.1 -0.1)">
     <use xlink:href="#DejaVuSans-32"/>
     <use x="63.623047" xlink:href="#DejaVuSans-38"/>
    </g>
   </g>
   <g id="text_35">
    <!-- 27 -->
    <g transform="translate(1087.825091 684.0756)scale(0.1 -0.1)">
     <use xlink:href="#DejaVuSans-32"/>
     <use x="63.623047" xlink:href="#DejaVuSans-37"/>
    </g>
   </g>
   <g id="text_36">
    <!-- 28 -->
    <g transform="translate(1201.392067 683.5608)scale(0.1 -0.1)">
     <use xlink:href="#DejaVuSans-32"/>
     <use x="63.623047" xlink:href="#DejaVuSans-38"/>
    </g>
   </g>
   <g id="text_37">
    <!-- 28 -->
    <g transform="translate(1314.959043 682.5312)scale(0.1 -0.1)">
     <use xlink:href="#DejaVuSans-32"/>
     <use x="63.623047" xlink:href="#DejaVuSans-38"/>
    </g>
   </g>
   <g id="text_38">
    <!-- 20 -->
    <g transform="translate(292.85626 693.8568)scale(0.1 -0.1)">
     <use xlink:href="#DejaVuSans-32"/>
     <use x="63.623047" xlink:href="#DejaVuSans-30"/>
    </g>
   </g>
   <g id="text_39">
    <!-- 60 -->
    <g transform="translate(406.423236 621.7848)scale(0.1 -0.1)">
     <use xlink:href="#DejaVuSans-36"/>
     <use x="63.623047" xlink:href="#DejaVuSans-30"/>
    </g>
   </g>
   <g id="text_40">
    <!-- 10 -->
    <g transform="translate(519.990212 647.5248)scale(0.1 -0.1)">
     <use xlink:href="#DejaVuSans-31"/>
     <use x="63.623047" xlink:href="#DejaVuSans-30"/>
    </g>
   </g>
   <g id="text_41">
    <!-- 10 -->
    <g transform="translate(633.557187 549.7128)scale(0.1 -0.1)">
     <use xlink:href="#DejaVuSans-31"/>
     <use x="63.623047" xlink:href="#DejaVuSans-30"/>
    </g>
   </g>
   <g id="text_42">
    <!-- 82 -->
    <g transform="translate(747.124163 544.5648)scale(0.1 -0.1)">
     <use xlink:href="#DejaVuSans-38"/>
     <use x="63.623047" xlink:href="#DejaVuSans-32"/>
    </g>
   </g>
   <g id="text_43">
    <!-- 27 -->
    <g transform="translate(860.691139 655.2468)scale(0.1 -0.1)">
     <use xlink:href="#DejaVuSans-32"/>
     <use x="63.623047" xlink:href="#DejaVuSans-37"/>
    </g>
   </g>
   <g id="text_44">
    <!-- 28 -->
    <g transform="translate(974.258115 654.732)scale(0.1 -0.1)">
     <use xlink:href="#DejaVuSans-32"/>
     <use x="63.623047" xlink:href="#DejaVuSans-38"/>
    </g>
   </g>
   <g id="text_45">
    <!-- 27 -->
    <g transform="translate(1087.825091 656.2764)scale(0.1 -0.1)">
     <use xlink:href="#DejaVuSans-32"/>
     <use x="63.623047" xlink:href="#DejaVuSans-37"/>
    </g>
   </g>
   <g id="text_46">
    <!-- 27 -->
    <g transform="translate(1201.392067 655.2468)scale(0.1 -0.1)">
     <use xlink:href="#DejaVuSans-32"/>
     <use x="63.623047" xlink:href="#DejaVuSans-37"/>
    </g>
   </g>
   <g id="text_47">
    <!-- 28 -->
    <g transform="translate(1314.959043 653.7024)scale(0.1 -0.1)">
     <use xlink:href="#DejaVuSans-32"/>
     <use x="63.623047" xlink:href="#DejaVuSans-38"/>
    </g>
   </g>
   <g id="text_48">
    <!-- 40 -->
    <g transform="translate(292.85626 662.9688)scale(0.1 -0.1)">
     <use xlink:href="#DejaVuSans-34"/>
     <use x="63.623047" xlink:href="#DejaVuSans-30"/>
    </g>
   </g>
   <g id="text_49">
    <!-- 70 -->
    <g transform="translate(406.423236 554.8608)scale(0.1 -0.1)">
     <use xlink:href="#DejaVuSans-37"/>
     <use x="63.623047" xlink:href="#DejaVuSans-30"/>
    </g>
   </g>
   <g id="text_50">
    <!-- 122 -->
    <g transform="translate(519.990212 579.5712)scale(0.1 -0.1)">
     <use xlink:href="#DejaVuSans-31"/>
     <use x="63.623047" xlink:href="#DejaVuSans-32"/>
     <use x="127.246094" xlink:href="#DejaVuSans-32"/>
    </g>
   </g>
   <g id="text_51">
    <!-- 19 -->
    <g transform="translate(633.557187 534.7836)scale(0.1 -0.1)">
     <defs>
      <path d="M 703 97 
L 703 672 
Q 941 559 1184 500 
Q 1428 441 1663 441 
Q 2288 441 2617 861 
Q 2947 1281 2994 2138 
Q 2813 1869 2534 1725 
Q 2256 1581 1919 1581 
Q 1219 1581 811 2004 
Q 403 2428 403 3163 
Q 403 3881 828 4315 
Q 1253 4750 1959 4750 
Q 2769 4750 3195 4129 
Q 3622 3509 3622 2328 
Q 3622 1225 3098 567 
Q 2575 -91 1691 -91 
Q 1453 -91 1209 -44 
Q 966 3 703 97 
z
M 1959 2075 
Q 2384 2075 2632 2365 
Q 2881 2656 2881 3163 
Q 2881 3666 2632 3958 
Q 2384 4250 1959 4250 
Q 1534 4250 1286 3958 
Q 1038 3666 1038 3163 
Q 1038 2656 1286 2365 
Q 1534 2075 1959 2075 
z
" id="DejaVuSans-39" transform="scale(0.015625)"/>
     </defs>
     <use xlink:href="#DejaVuSans-31"/>
     <use x="63.623047" xlink:href="#DejaVuSans-39"/>
    </g>
   </g>
   <g id="text_52">
    <!-- 93 -->
    <g transform="translate(747.124163 454.4748)scale(0.1 -0.1)">
     <use xlink:href="#DejaVuSans-39"/>
     <use x="63.623047" xlink:href="#DejaVuSans-33"/>
    </g>
   </g>
   <g id="text_53">
    <!-- 30 -->
    <g transform="translate(860.691139 625.9032)scale(0.1 -0.1)">
     <use xlink:href="#DejaVuSans-33"/>
     <use x="63.623047" xlink:href="#DejaVuSans-30"/>
    </g>
   </g>
   <g id="text_54">
    <!-- 30 -->
    <g transform="translate(974.258115 624.8736)scale(0.1 -0.1)">
     <use xlink:href="#DejaVuSans-33"/>
     <use x="63.623047" xlink:href="#DejaVuSans-30"/>
    </g>
   </g>
   <g id="text_55">
    <!-- 30 -->
    <g transform="translate(1087.825091 626.9328)scale(0.1 -0.1)">
     <use xlink:href="#DejaVuSans-33"/>
     <use x="63.623047" xlink:href="#DejaVuSans-30"/>
    </g>
   </g>
   <g id="text_56">
    <!-- 31 -->
    <g transform="translate(1201.392067 625.3884)scale(0.1 -0.1)">
     <use xlink:href="#DejaVuSans-33"/>
     <use x="63.623047" xlink:href="#DejaVuSans-31"/>
    </g>
   </g>
   <g id="text_57">
    <!-- 31 -->
    <g transform="translate(1314.959043 623.3292)scale(0.1 -0.1)">
     <use xlink:href="#DejaVuSans-33"/>
     <use x="63.623047" xlink:href="#DejaVuSans-31"/>
    </g>
   </g>
   <g id="text_58">
    <!-- 50 -->
    <g transform="translate(292.85626 616.6368)scale(0.1 -0.1)">
     <use xlink:href="#DejaVuSans-35"/>
     <use x="63.623047" xlink:href="#DejaVuSans-30"/>
    </g>
   </g>
   <g id="text_59">
    <!-- 50 -->
    <g transform="translate(406.423236 493.0848)scale(0.1 -0.1)">
     <use xlink:href="#DejaVuSans-35"/>
     <use x="63.623047" xlink:href="#DejaVuSans-30"/>
    </g>
   </g>
   <g id="text_60">
    <!-- 105 -->
    <g transform="translate(519.990212 462.7116)scale(0.1 -0.1)">
     <use xlink:href="#DejaVuSans-31"/>
     <use x="63.623047" xlink:href="#DejaVuSans-30"/>
     <use x="127.246094" xlink:href="#DejaVuSans-35"/>
    </g>
   </g>
   <g id="text_61">
    <!-- 50 -->
    <g transform="translate(633.557187 499.2624)scale(0.1 -0.1)">
     <use xlink:href="#DejaVuSans-35"/>
     <use x="63.623047" xlink:href="#DejaVuSans-30"/>
    </g>
   </g>
   <g id="text_62">
    <!-- 10 -->
    <g transform="translate(747.124163 401.4504)scale(0.1 -0.1)">
     <use xlink:href="#DejaVuSans-31"/>
     <use x="63.623047" xlink:href="#DejaVuSans-30"/>
    </g>
   </g>
   <g id="text_63">
    <!-- 26 -->
    <g transform="translate(860.691139 597.0744)scale(0.1 -0.1)">
     <use xlink:href="#DejaVuSans-32"/>
     <use x="63.623047" xlink:href="#DejaVuSans-36"/>
    </g>
   </g>
   <g id="text_64">
    <!-- 27 -->
    <g transform="translate(974.258115 595.53)scale(0.1 -0.1)">
     <use xlink:href="#DejaVuSans-32"/>
     <use x="63.623047" xlink:href="#DejaVuSans-37"/>
    </g>
   </g>
   <g id="text_65">
    <!-- 26 -->
    <g transform="translate(1087.825091 598.104)scale(0.1 -0.1)">
     <use xlink:href="#DejaVuSans-32"/>
     <use x="63.623047" xlink:href="#DejaVuSans-36"/>
    </g>
   </g>
   <g id="text_66">
    <!-- 26 -->
    <g transform="translate(1201.392067 596.0448)scale(0.1 -0.1)">
     <use xlink:href="#DejaVuSans-32"/>
     <use x="63.623047" xlink:href="#DejaVuSans-36"/>
    </g>
   </g>
   <g id="text_67">
    <!-- 26 -->
    <g transform="translate(1314.959043 593.9856)scale(0.1 -0.1)">
     <use xlink:href="#DejaVuSans-32"/>
     <use x="63.623047" xlink:href="#DejaVuSans-36"/>
    </g>
   </g>
   <g id="text_68">
    <!-- 80 -->
    <g transform="translate(292.85626 549.7128)scale(0.1 -0.1)">
     <use xlink:href="#DejaVuSans-38"/>
     <use x="63.623047" xlink:href="#DejaVuSans-30"/>
    </g>
   </g>
   <g id="text_69">
    <!-- 90 -->
    <g transform="translate(406.423236 421.0128)scale(0.1 -0.1)">
     <use xlink:href="#DejaVuSans-39"/>
     <use x="63.623047" xlink:href="#DejaVuSans-30"/>
    </g>
   </g>
   <g id="text_70">
    <!-- 10 -->
    <g transform="translate(519.990212 403.5096)scale(0.1 -0.1)">
     <use xlink:href="#DejaVuSans-31"/>
     <use x="63.623047" xlink:href="#DejaVuSans-30"/>
    </g>
   </g>
   <g id="text_71">
    <!-- 80 -->
    <g transform="translate(633.557187 432.3384)scale(0.1 -0.1)">
     <use xlink:href="#DejaVuSans-38"/>
     <use x="63.623047" xlink:href="#DejaVuSans-30"/>
    </g>
   </g>
   <g id="text_72">
    <!-- 113 -->
    <g transform="translate(747.124163 338.13)scale(0.1 -0.1)">
     <use xlink:href="#DejaVuSans-31"/>
     <use x="63.623047" xlink:href="#DejaVuSans-31"/>
     <use x="127.246094" xlink:href="#DejaVuSans-33"/>
    </g>
   </g>
   <g id="text_73">
    <!-- 28 -->
    <g transform="translate(860.691139 569.2752)scale(0.1 -0.1)">
     <use xlink:href="#DejaVuSans-32"/>
     <use x="63.623047" xlink:href="#DejaVuSans-38"/>
    </g>
   </g>
   <g id="text_74">
    <!-- 28 -->
    <g transform="translate(974.258115 567.216)scale(0.1 -0.1)">
     <use xlink:href="#DejaVuSans-32"/>
     <use x="63.623047" xlink:href="#DejaVuSans-38"/>
    </g>
   </g>
   <g id="text_75">
    <!-- 28 -->
    <g transform="translate(1087.825091 570.3048)scale(0.1 -0.1)">
     <use xlink:href="#DejaVuSans-32"/>
     <use x="63.623047" xlink:href="#DejaVuSans-38"/>
    </g>
   </g>
   <g id="text_76">
    <!-- 29 -->
    <g transform="translate(1201.392067 567.7308)scale(0.1 -0.1)">
     <use xlink:href="#DejaVuSans-32"/>
     <use x="63.623047" xlink:href="#DejaVuSans-39"/>
    </g>
   </g>
   <g id="text_77">
    <!-- 28 -->
    <g transform="translate(1314.959043 566.1864)scale(0.1 -0.1)">
     <use xlink:href="#DejaVuSans-32"/>
     <use x="63.623047" xlink:href="#DejaVuSans-38"/>
    </g>
   </g>
   <g id="text_78">
    <!-- 90 -->
    <g transform="translate(292.85626 462.1968)scale(0.1 -0.1)">
     <use xlink:href="#DejaVuSans-39"/>
     <use x="63.623047" xlink:href="#DejaVuSans-30"/>
    </g>
   </g>
   <g id="text_79">
    <!-- 106 -->
    <g transform="translate(406.423236 320.112)scale(0.1 -0.1)">
     <use xlink:href="#DejaVuSans-31"/>
     <use x="63.623047" xlink:href="#DejaVuSans-30"/>
     <use x="127.246094" xlink:href="#DejaVuSans-36"/>
    </g>
   </g>
   <g id="text_80">
    <!-- 23 -->
    <g transform="translate(519.990212 386.5212)scale(0.1 -0.1)">
     <use xlink:href="#DejaVuSans-32"/>
     <use x="63.623047" xlink:href="#DejaVuSans-33"/>
    </g>
   </g>
   <g id="text_81">
    <!-- 31 -->
    <g transform="translate(633.557187 375.1956)scale(0.1 -0.1)">
     <use xlink:href="#DejaVuSans-33"/>
     <use x="63.623047" xlink:href="#DejaVuSans-31"/>
    </g>
   </g>
   <g id="text_82">
    <!-- 10 -->
    <g transform="translate(747.124163 274.8096)scale(0.1 -0.1)">
     <use xlink:href="#DejaVuSans-31"/>
     <use x="63.623047" xlink:href="#DejaVuSans-30"/>
    </g>
   </g>
   <g id="text_83">
    <!-- 26 -->
    <g transform="translate(860.691139 541.476)scale(0.1 -0.1)">
     <use xlink:href="#DejaVuSans-32"/>
     <use x="63.623047" xlink:href="#DejaVuSans-36"/>
    </g>
   </g>
   <g id="text_84">
    <!-- 26 -->
    <g transform="translate(974.258115 539.4168)scale(0.1 -0.1)">
     <use xlink:href="#DejaVuSans-32"/>
     <use x="63.623047" xlink:href="#DejaVuSans-36"/>
    </g>
   </g>
   <g id="text_85">
    <!-- 27 -->
    <g transform="translate(1087.825091 541.9908)scale(0.1 -0.1)">
     <use xlink:href="#DejaVuSans-32"/>
     <use x="63.623047" xlink:href="#DejaVuSans-37"/>
    </g>
   </g>
   <g id="text_86">
    <!-- 27 -->
    <g transform="translate(1201.392067 538.902)scale(0.1 -0.1)">
     <use xlink:href="#DejaVuSans-32"/>
     <use x="63.623047" xlink:href="#DejaVuSans-37"/>
    </g>
   </g>
   <g id="text_87">
    <!-- 26 -->
    <g transform="translate(1314.959043 538.3872)scale(0.1 -0.1)">
     <use xlink:href="#DejaVuSans-32"/>
     <use x="63.623047" xlink:href="#DejaVuSans-36"/>
    </g>
   </g>
   <g id="text_88">
    <!-- 114 -->
    <g transform="translate(292.85626 357.1776)scale(0.1 -0.1)">
     <use xlink:href="#DejaVuSans-31"/>
     <use x="63.623047" xlink:href="#DejaVuSans-31"/>
     <use x="127.246094" xlink:href="#DejaVuSans-34"/>
    </g>
   </g>
   <g id="text_89">
    <!-- 10 -->
    <g transform="translate(406.423236 260.3952)scale(0.1 -0.1)">
     <use xlink:href="#DejaVuSans-31"/>
     <use x="63.623047" xlink:href="#DejaVuSans-30"/>
    </g>
   </g>
   <g id="text_90">
    <!-- 82 -->
    <g transform="translate(519.990212 332.4672)scale(0.1 -0.1)">
     <use xlink:href="#DejaVuSans-38"/>
     <use x="63.623047" xlink:href="#DejaVuSans-32"/>
    </g>
   </g>
   <g id="text_91">
    <!-- 90 -->
    <g transform="translate(633.557187 312.9048)scale(0.1 -0.1)">
     <use xlink:href="#DejaVuSans-39"/>
     <use x="63.623047" xlink:href="#DejaVuSans-30"/>
    </g>
   </g>
   <g id="text_92">
    <!-- 51 -->
    <g transform="translate(747.124163 243.4068)scale(0.1 -0.1)">
     <use xlink:href="#DejaVuSans-35"/>
     <use x="63.623047" xlink:href="#DejaVuSans-31"/>
    </g>
   </g>
   <g id="text_93">
    <!-- 28 -->
    <g transform="translate(860.691139 513.6768)scale(0.1 -0.1)">
     <use xlink:href="#DejaVuSans-32"/>
     <use x="63.623047" xlink:href="#DejaVuSans-38"/>
    </g>
   </g>
   <g id="text_94">
    <!-- 28 -->
    <g transform="translate(974.258115 511.6176)scale(0.1 -0.1)">
     <use xlink:href="#DejaVuSans-32"/>
     <use x="63.623047" xlink:href="#DejaVuSans-38"/>
    </g>
   </g>
   <g id="text_95">
    <!-- 28 -->
    <g transform="translate(1087.825091 513.6768)scale(0.1 -0.1)">
     <use xlink:href="#DejaVuSans-32"/>
     <use x="63.623047" xlink:href="#DejaVuSans-38"/>
    </g>
   </g>
   <g id="text_96">
    <!-- 29 -->
    <g transform="translate(1201.392067 510.0732)scale(0.1 -0.1)">
     <use xlink:href="#DejaVuSans-32"/>
     <use x="63.623047" xlink:href="#DejaVuSans-39"/>
    </g>
   </g>
   <g id="text_97">
    <!-- 29 -->
    <g transform="translate(1314.959043 510.0732)scale(0.1 -0.1)">
     <use xlink:href="#DejaVuSans-32"/>
     <use x="63.623047" xlink:href="#DejaVuSans-39"/>
    </g>
   </g>
   <g id="text_98">
    <!-- 106 -->
    <g transform="translate(292.85626 243.9216)scale(0.1 -0.1)">
     <use xlink:href="#DejaVuSans-31"/>
     <use x="63.623047" xlink:href="#DejaVuSans-30"/>
     <use x="127.246094" xlink:href="#DejaVuSans-36"/>
    </g>
   </g>
   <g id="text_99">
    <!-- 10 -->
    <g transform="translate(406.423236 250.0992)scale(0.1 -0.1)">
     <use xlink:href="#DejaVuSans-31"/>
     <use x="63.623047" xlink:href="#DejaVuSans-30"/>
    </g>
   </g>
   <g id="text_100">
    <!-- 70 -->
    <g transform="translate(519.990212 254.2176)scale(0.1 -0.1)">
     <use xlink:href="#DejaVuSans-37"/>
     <use x="63.623047" xlink:href="#DejaVuSans-30"/>
    </g>
   </g>
   <g id="text_101">
    <!-- 57 -->
    <g transform="translate(633.557187 237.2292)scale(0.1 -0.1)">
     <use xlink:href="#DejaVuSans-35"/>
     <use x="63.623047" xlink:href="#DejaVuSans-37"/>
    </g>
   </g>
   <g id="text_102">
    <!-- 32 -->
    <g transform="translate(747.124163 200.6784)scale(0.1 -0.1)">
     <use xlink:href="#DejaVuSans-33"/>
     <use x="63.623047" xlink:href="#DejaVuSans-32"/>
    </g>
   </g>
   <g id="text_103">
    <!-- 27 -->
    <g transform="translate(860.691139 485.3628)scale(0.1 -0.1)">
     <use xlink:href="#DejaVuSans-32"/>
     <use x="63.623047" xlink:href="#DejaVuSans-37"/>
    </g>
   </g>
   <g id="text_104">
    <!-- 27 -->
    <g transform="translate(974.258115 483.3036)scale(0.1 -0.1)">
     <use xlink:href="#DejaVuSans-32"/>
     <use x="63.623047" xlink:href="#DejaVuSans-37"/>
    </g>
   </g>
   <g id="text_105">
    <!-- 27 -->
    <g transform="translate(1087.825091 485.3628)scale(0.1 -0.1)">
     <use xlink:href="#DejaVuSans-32"/>
     <use x="63.623047" xlink:href="#DejaVuSans-37"/>
    </g>
   </g>
   <g id="text_106">
    <!-- 27 -->
    <g transform="translate(1201.392067 481.2444)scale(0.1 -0.1)">
     <use xlink:href="#DejaVuSans-32"/>
     <use x="63.623047" xlink:href="#DejaVuSans-37"/>
    </g>
   </g>
   <g id="text_107">
    <!-- 25 -->
    <g transform="translate(1314.959043 482.274)scale(0.1 -0.1)">
     <use xlink:href="#DejaVuSans-32"/>
     <use x="63.623047" xlink:href="#DejaVuSans-35"/>
    </g>
   </g>
   <g id="text_108">
    <!-- 60 -->
    <g transform="translate(292.85626 158.4648)scale(0.1 -0.1)">
     <use xlink:href="#DejaVuSans-36"/>
     <use x="63.623047" xlink:href="#DejaVuSans-30"/>
    </g>
   </g>
   <g id="text_109">
    <!-- 30 -->
    <g transform="translate(406.423236 229.5072)scale(0.1 -0.1)">
     <use xlink:href="#DejaVuSans-33"/>
     <use x="63.623047" xlink:href="#DejaVuSans-30"/>
    </g>
   </g>
   <g id="text_110">
    <!-- 64 -->
    <g transform="translate(519.990212 185.2344)scale(0.1 -0.1)">
     <use xlink:href="#DejaVuSans-36"/>
     <use x="63.623047" xlink:href="#DejaVuSans-34"/>
    </g>
   </g>
   <g id="text_111">
    <!-- 10 -->
    <g transform="translate(633.557187 202.7376)scale(0.1 -0.1)">
     <use xlink:href="#DejaVuSans-31"/>
     <use x="63.623047" xlink:href="#DejaVuSans-30"/>
    </g>
   </g>
   <g id="text_112">
    <!-- 40 -->
    <g transform="translate(747.124163 163.6128)scale(0.1 -0.1)">
     <use xlink:href="#DejaVuSans-34"/>
     <use x="63.623047" xlink:href="#DejaVuSans-30"/>
    </g>
   </g>
   <g id="text_113">
    <!-- 26 -->
    <g transform="translate(860.691139 458.0784)scale(0.1 -0.1)">
     <use xlink:href="#DejaVuSans-32"/>
     <use x="63.623047" xlink:href="#DejaVuSans-36"/>
    </g>
   </g>
   <g id="text_114">
    <!-- 26 -->
    <g transform="translate(974.258115 456.0192)scale(0.1 -0.1)">
     <use xlink:href="#DejaVuSans-32"/>
     <use x="63.623047" xlink:href="#DejaVuSans-36"/>
    </g>
   </g>
   <g id="text_115">
    <!-- 26 -->
    <g transform="translate(1087.825091 458.0784)scale(0.1 -0.1)">
     <use xlink:href="#DejaVuSans-32"/>
     <use x="63.623047" xlink:href="#DejaVuSans-36"/>
    </g>
   </g>
   <g id="text_116">
    <!-- 27 -->
    <g transform="translate(1201.392067 453.4452)scale(0.1 -0.1)">
     <use xlink:href="#DejaVuSans-32"/>
     <use x="63.623047" xlink:href="#DejaVuSans-37"/>
    </g>
   </g>
   <g id="text_117">
    <!-- 27 -->
    <g transform="translate(1314.959043 455.5044)scale(0.1 -0.1)">
     <use xlink:href="#DejaVuSans-32"/>
     <use x="63.623047" xlink:href="#DejaVuSans-37"/>
    </g>
   </g>
   <g id="text_118">
    <!-- 580 -->
    <g transform="translate(292.85626 115.63344)scale(0.1 -0.1)">
     <defs>
      <path d="M 678 4666 
L 3669 4666 
L 3669 3781 
L 1638 3781 
L 1638 3059 
Q 1775 3097 1914 3117 
Q 2053 3138 2203 3138 
Q 3056 3138 3531 2711 
Q 4006 2284 4006 1522 
Q 4006 766 3489 337 
Q 2972 -91 2053 -91 
Q 1656 -91 1267 -14 
Q 878 63 494 219 
L 494 1166 
Q 875 947 1217 837 
Q 1559 728 1863 728 
Q 2300 728 2551 942 
Q 2803 1156 2803 1522 
Q 2803 1891 2551 2103 
Q 2300 2316 1863 2316 
Q 1603 2316 1309 2248 
Q 1016 2181 678 2041 
L 678 4666 
z
" id="DejaVuSans-Bold-35" transform="scale(0.015625)"/>
      <path d="M 2228 2088 
Q 1891 2088 1709 1903 
Q 1528 1719 1528 1375 
Q 1528 1031 1709 848 
Q 1891 666 2228 666 
Q 2563 666 2741 848 
Q 2919 1031 2919 1375 
Q 2919 1722 2741 1905 
Q 2563 2088 2228 2088 
z
M 1350 2484 
Q 925 2613 709 2878 
Q 494 3144 494 3541 
Q 494 4131 934 4440 
Q 1375 4750 2228 4750 
Q 3075 4750 3515 4442 
Q 3956 4134 3956 3541 
Q 3956 3144 3739 2878 
Q 3522 2613 3097 2484 
Q 3572 2353 3814 2058 
Q 4056 1763 4056 1313 
Q 4056 619 3595 264 
Q 3134 -91 2228 -91 
Q 1319 -91 855 264 
Q 391 619 391 1313 
Q 391 1763 633 2058 
Q 875 2353 1350 2484 
z
M 1631 3419 
Q 1631 3141 1786 2991 
Q 1941 2841 2228 2841 
Q 2509 2841 2662 2991 
Q 2816 3141 2816 3419 
Q 2816 3697 2662 3845 
Q 2509 3994 2228 3994 
Q 1941 3994 1786 3844 
Q 1631 3694 1631 3419 
z
" id="DejaVuSans-Bold-38" transform="scale(0.015625)"/>
      <path d="M 2944 2338 
Q 2944 3213 2780 3570 
Q 2616 3928 2228 3928 
Q 1841 3928 1675 3570 
Q 1509 3213 1509 2338 
Q 1509 1453 1675 1090 
Q 1841 728 2228 728 
Q 2613 728 2778 1090 
Q 2944 1453 2944 2338 
z
M 4147 2328 
Q 4147 1169 3647 539 
Q 3147 -91 2228 -91 
Q 1306 -91 806 539 
Q 306 1169 306 2328 
Q 306 3491 806 4120 
Q 1306 4750 2228 4750 
Q 3147 4750 3647 4120 
Q 4147 3491 4147 2328 
z
" id="DejaVuSans-Bold-30" transform="scale(0.015625)"/>
     </defs>
     <use xlink:href="#DejaVuSans-Bold-35"/>
     <use x="69.580078" xlink:href="#DejaVuSans-Bold-38"/>
     <use x="139.160156" xlink:href="#DejaVuSans-Bold-30"/>
    </g>
   </g>
   <g id="text_119">
    <!-- 496 -->
    <g transform="translate(406.423236 203.849568)scale(0.1 -0.1)">
     <defs>
      <path d="M 2356 3675 
L 1038 1722 
L 2356 1722 
L 2356 3675 
z
M 2156 4666 
L 3494 4666 
L 3494 1722 
L 4159 1722 
L 4159 850 
L 3494 850 
L 3494 0 
L 2356 0 
L 2356 850 
L 288 850 
L 288 1881 
L 2156 4666 
z
" id="DejaVuSans-Bold-34" transform="scale(0.015625)"/>
      <path d="M 641 103 
L 641 966 
Q 928 831 1190 764 
Q 1453 697 1709 697 
Q 2247 697 2547 995 
Q 2847 1294 2900 1881 
Q 2688 1725 2447 1647 
Q 2206 1569 1925 1569 
Q 1209 1569 770 1986 
Q 331 2403 331 3084 
Q 331 3838 820 4291 
Q 1309 4744 2131 4744 
Q 3044 4744 3544 4128 
Q 4044 3513 4044 2388 
Q 4044 1231 3459 570 
Q 2875 -91 1856 -91 
Q 1528 -91 1228 -42 
Q 928 6 641 103 
z
M 2125 2350 
Q 2441 2350 2600 2554 
Q 2759 2759 2759 3169 
Q 2759 3575 2600 3781 
Q 2441 3988 2125 3988 
Q 1809 3988 1650 3781 
Q 1491 3575 1491 3169 
Q 1491 2759 1650 2554 
Q 1809 2350 2125 2350 
z
" id="DejaVuSans-Bold-39" transform="scale(0.015625)"/>
      <path d="M 2316 2303 
Q 2000 2303 1842 2098 
Q 1684 1894 1684 1484 
Q 1684 1075 1842 870 
Q 2000 666 2316 666 
Q 2634 666 2792 870 
Q 2950 1075 2950 1484 
Q 2950 1894 2792 2098 
Q 2634 2303 2316 2303 
z
M 3803 4544 
L 3803 3681 
Q 3506 3822 3243 3889 
Q 2981 3956 2731 3956 
Q 2194 3956 1894 3657 
Q 1594 3359 1544 2772 
Q 1750 2925 1990 3001 
Q 2231 3078 2516 3078 
Q 3231 3078 3670 2659 
Q 4109 2241 4109 1563 
Q 4109 813 3618 361 
Q 3128 -91 2303 -91 
Q 1394 -91 895 523 
Q 397 1138 397 2266 
Q 397 3422 980 4083 
Q 1563 4744 2578 4744 
Q 2900 4744 3203 4694 
Q 3506 4644 3803 4544 
z
" id="DejaVuSans-Bold-36" transform="scale(0.015625)"/>
     </defs>
     <use xlink:href="#DejaVuSans-Bold-34"/>
     <use x="69.580078" xlink:href="#DejaVuSans-Bold-39"/>
     <use x="139.160156" xlink:href="#DejaVuSans-Bold-36"/>
    </g>
   </g>
   <g id="text_120">
    <!-- 556 -->
    <g transform="translate(519.990212 140.838048)scale(0.1 -0.1)">
     <use xlink:href="#DejaVuSans-Bold-35"/>
     <use x="69.580078" xlink:href="#DejaVuSans-Bold-35"/>
     <use x="139.160156" xlink:href="#DejaVuSans-Bold-36"/>
    </g>
   </g>
   <g id="text_121">
    <!-- 512 -->
    <g transform="translate(633.557187 187.046496)scale(0.1 -0.1)">
     <defs>
      <path d="M 750 831 
L 1813 831 
L 1813 3847 
L 722 3622 
L 722 4441 
L 1806 4666 
L 2950 4666 
L 2950 831 
L 4013 831 
L 4013 0 
L 750 0 
L 750 831 
z
" id="DejaVuSans-Bold-31" transform="scale(0.015625)"/>
      <path d="M 1844 884 
L 3897 884 
L 3897 0 
L 506 0 
L 506 884 
L 2209 2388 
Q 2438 2594 2547 2791 
Q 2656 2988 2656 3200 
Q 2656 3528 2436 3728 
Q 2216 3928 1850 3928 
Q 1569 3928 1234 3808 
Q 900 3688 519 3450 
L 519 4475 
Q 925 4609 1322 4679 
Q 1719 4750 2100 4750 
Q 2938 4750 3402 4381 
Q 3866 4013 3866 3353 
Q 3866 2972 3669 2642 
Q 3472 2313 2841 1759 
L 1844 884 
z
" id="DejaVuSans-Bold-32" transform="scale(0.015625)"/>
     </defs>
     <use xlink:href="#DejaVuSans-Bold-35"/>
     <use x="69.580078" xlink:href="#DejaVuSans-Bold-31"/>
     <use x="139.160156" xlink:href="#DejaVuSans-Bold-32"/>
    </g>
   </g>
   <g id="text_122">
    <!-- 565 -->
    <g transform="translate(747.124163 131.38632)scale(0.1 -0.1)">
     <use xlink:href="#DejaVuSans-Bold-35"/>
     <use x="69.580078" xlink:href="#DejaVuSans-Bold-36"/>
     <use x="139.160156" xlink:href="#DejaVuSans-Bold-35"/>
    </g>
   </g>
   <g id="text_123">
    <!-- 272 -->
    <g transform="translate(860.691139 439.092576)scale(0.1 -0.1)">
     <defs>
      <path d="M 428 4666 
L 3944 4666 
L 3944 3988 
L 2125 0 
L 953 0 
L 2675 3781 
L 428 3781 
L 428 4666 
z
" id="DejaVuSans-Bold-37" transform="scale(0.015625)"/>
     </defs>
     <use xlink:href="#DejaVuSans-Bold-32"/>
     <use x="69.580078" xlink:href="#DejaVuSans-Bold-37"/>
     <use x="139.160156" xlink:href="#DejaVuSans-Bold-32"/>
    </g>
   </g>
   <g id="text_124">
    <!-- 274 -->
    <g transform="translate(974.258115 436.992192)scale(0.1 -0.1)">
     <use xlink:href="#DejaVuSans-Bold-32"/>
     <use x="69.580078" xlink:href="#DejaVuSans-Bold-37"/>
     <use x="139.160156" xlink:href="#DejaVuSans-Bold-34"/>
    </g>
   </g>
   <g id="text_125">
    <!-- 272 -->
    <g transform="translate(1087.825091 439.092576)scale(0.1 -0.1)">
     <use xlink:href="#DejaVuSans-Bold-32"/>
     <use x="69.580078" xlink:href="#DejaVuSans-Bold-37"/>
     <use x="139.160156" xlink:href="#DejaVuSans-Bold-32"/>
    </g>
   </g>
   <g id="text_126">
    <!-- 277 -->
    <g transform="translate(1201.392067 433.841616)scale(0.1 -0.1)">
     <use xlink:href="#DejaVuSans-Bold-32"/>
     <use x="69.580078" xlink:href="#DejaVuSans-Bold-37"/>
     <use x="139.160156" xlink:href="#DejaVuSans-Bold-37"/>
    </g>
   </g>
   <g id="text_127">
    <!-- 275 -->
    <g transform="translate(1314.959043 435.942)scale(0.1 -0.1)">
     <use xlink:href="#DejaVuSans-Bold-32"/>
     <use x="69.580078" xlink:href="#DejaVuSans-Bold-37"/>
     <use x="139.160156" xlink:href="#DejaVuSans-Bold-35"/>
    </g>
   </g>
   <g id="text_128">
    <!-- pawara-umonkey10 -->
    <g transform="translate(749.952562 91.7184)scale(0.12 -0.12)">
     <defs>
      <path d="M 269 3500 
L 844 3500 
L 1563 769 
L 2278 3500 
L 2956 3500 
L 3675 769 
L 4391 3500 
L 4966 3500 
L 4050 0 
L 3372 0 
L 2619 2869 
L 1863 0 
L 1184 0 
L 269 3500 
z
" id="DejaVuSans-77" transform="scale(0.015625)"/>
      <path d="M 313 2009 
L 1997 2009 
L 1997 1497 
L 313 1497 
L 313 2009 
z
" id="DejaVuSans-2d" transform="scale(0.015625)"/>
      <path d="M 544 1381 
L 544 3500 
L 1119 3500 
L 1119 1403 
Q 1119 906 1312 657 
Q 1506 409 1894 409 
Q 2359 409 2629 706 
Q 2900 1003 2900 1516 
L 2900 3500 
L 3475 3500 
L 3475 0 
L 2900 0 
L 2900 538 
Q 2691 219 2414 64 
Q 2138 -91 1772 -91 
Q 1169 -91 856 284 
Q 544 659 544 1381 
z
M 1991 3584 
L 1991 3584 
z
" id="DejaVuSans-75" transform="scale(0.015625)"/>
      <path d="M 3328 2828 
Q 3544 3216 3844 3400 
Q 4144 3584 4550 3584 
Q 5097 3584 5394 3201 
Q 5691 2819 5691 2113 
L 5691 0 
L 5113 0 
L 5113 2094 
Q 5113 2597 4934 2840 
Q 4756 3084 4391 3084 
Q 3944 3084 3684 2787 
Q 3425 2491 3425 1978 
L 3425 0 
L 2847 0 
L 2847 2094 
Q 2847 2600 2669 2842 
Q 2491 3084 2119 3084 
Q 1678 3084 1418 2786 
Q 1159 2488 1159 1978 
L 1159 0 
L 581 0 
L 581 3500 
L 1159 3500 
L 1159 2956 
Q 1356 3278 1631 3431 
Q 1906 3584 2284 3584 
Q 2666 3584 2933 3390 
Q 3200 3197 3328 2828 
z
" id="DejaVuSans-6d" transform="scale(0.015625)"/>
      <path d="M 1959 3097 
Q 1497 3097 1228 2736 
Q 959 2375 959 1747 
Q 959 1119 1226 758 
Q 1494 397 1959 397 
Q 2419 397 2687 759 
Q 2956 1122 2956 1747 
Q 2956 2369 2687 2733 
Q 2419 3097 1959 3097 
z
M 1959 3584 
Q 2709 3584 3137 3096 
Q 3566 2609 3566 1747 
Q 3566 888 3137 398 
Q 2709 -91 1959 -91 
Q 1206 -91 779 398 
Q 353 888 353 1747 
Q 353 2609 779 3096 
Q 1206 3584 1959 3584 
z
" id="DejaVuSans-6f" transform="scale(0.015625)"/>
      <path d="M 581 4863 
L 1159 4863 
L 1159 1991 
L 2875 3500 
L 3609 3500 
L 1753 1863 
L 3688 0 
L 2938 0 
L 1159 1709 
L 1159 0 
L 581 0 
L 581 4863 
z
" id="DejaVuSans-6b" transform="scale(0.015625)"/>
      <path d="M 2059 -325 
Q 1816 -950 1584 -1140 
Q 1353 -1331 966 -1331 
L 506 -1331 
L 506 -850 
L 844 -850 
Q 1081 -850 1212 -737 
Q 1344 -625 1503 -206 
L 1606 56 
L 191 3500 
L 800 3500 
L 1894 763 
L 2988 3500 
L 3597 3500 
L 2059 -325 
z
" id="DejaVuSans-79" transform="scale(0.015625)"/>
     </defs>
     <use xlink:href="#DejaVuSans-70"/>
     <use x="63.476562" xlink:href="#DejaVuSans-61"/>
     <use x="124.755859" xlink:href="#DejaVuSans-77"/>
     <use x="206.542969" xlink:href="#DejaVuSans-61"/>
     <use x="267.822266" xlink:href="#DejaVuSans-72"/>
     <use x="308.935547" xlink:href="#DejaVuSans-61"/>
     <use x="370.214844" xlink:href="#DejaVuSans-2d"/>
     <use x="406.298828" xlink:href="#DejaVuSans-75"/>
     <use x="469.677734" xlink:href="#DejaVuSans-6d"/>
     <use x="567.089844" xlink:href="#DejaVuSans-6f"/>
     <use x="628.271484" xlink:href="#DejaVuSans-6e"/>
     <use x="691.650391" xlink:href="#DejaVuSans-6b"/>
     <use x="745.935547" xlink:href="#DejaVuSans-65"/>
     <use x="807.458984" xlink:href="#DejaVuSans-79"/>
     <use x="866.638672" xlink:href="#DejaVuSans-31"/>
     <use x="930.261719" xlink:href="#DejaVuSans-30"/>
    </g>
   </g>
   <g id="legend_1">
    <g id="patch_107">
     <path d="M 1370.012 252.49965 
L 1414.712 252.49965 
Q 1416.712 252.49965 1416.712 250.49965 
L 1416.712 104.7184 
Q 1416.712 102.7184 1414.712 102.7184 
L 1370.012 102.7184 
Q 1368.012 102.7184 1368.012 104.7184 
L 1368.012 250.49965 
Q 1368.012 252.49965 1370.012 252.49965 
z
" style="fill:#ffffff;opacity:0.8;stroke:#cccccc;stroke-linejoin:miter;"/>
    </g>
    <g id="patch_108">
     <path d="M 1372.012 114.316838 
L 1392.012 114.316838 
L 1392.012 107.316838 
L 1372.012 107.316838 
z
" style="fill:#1f77b4;"/>
    </g>
    <g id="text_129">
     <!-- n0 -->
     <g transform="translate(1400.012 114.316838)scale(0.1 -0.1)">
      <use xlink:href="#DejaVuSans-6e"/>
      <use x="63.378906" xlink:href="#DejaVuSans-30"/>
     </g>
    </g>
    <g id="patch_109">
     <path d="M 1372.012 128.994963 
L 1392.012 128.994963 
L 1392.012 121.994963 
L 1372.012 121.994963 
z
" style="fill:#ff7f0e;"/>
    </g>
    <g id="text_130">
     <!-- n1 -->
     <g transform="translate(1400.012 128.994963)scale(0.1 -0.1)">
      <use xlink:href="#DejaVuSans-6e"/>
      <use x="63.378906" xlink:href="#DejaVuSans-31"/>
     </g>
    </g>
    <g id="patch_110">
     <path d="M 1372.012 143.673088 
L 1392.012 143.673088 
L 1392.012 136.673088 
L 1372.012 136.673088 
z
" style="fill:#2ca02c;"/>
    </g>
    <g id="text_131">
     <!-- n2 -->
     <g transform="translate(1400.012 143.673088)scale(0.1 -0.1)">
      <use xlink:href="#DejaVuSans-6e"/>
      <use x="63.378906" xlink:href="#DejaVuSans-32"/>
     </g>
    </g>
    <g id="patch_111">
     <path d="M 1372.012 158.351213 
L 1392.012 158.351213 
L 1392.012 151.351213 
L 1372.012 151.351213 
z
" style="fill:#d62728;"/>
    </g>
    <g id="text_132">
     <!-- n3 -->
     <g transform="translate(1400.012 158.351213)scale(0.1 -0.1)">
      <use xlink:href="#DejaVuSans-6e"/>
      <use x="63.378906" xlink:href="#DejaVuSans-33"/>
     </g>
    </g>
    <g id="patch_112">
     <path d="M 1372.012 173.029337 
L 1392.012 173.029337 
L 1392.012 166.029337 
L 1372.012 166.029337 
z
" style="fill:#9467bd;"/>
    </g>
    <g id="text_133">
     <!-- n4 -->
     <g transform="translate(1400.012 173.029337)scale(0.1 -0.1)">
      <use xlink:href="#DejaVuSans-6e"/>
      <use x="63.378906" xlink:href="#DejaVuSans-34"/>
     </g>
    </g>
    <g id="patch_113">
     <path d="M 1372.012 187.707463 
L 1392.012 187.707463 
L 1392.012 180.707463 
L 1372.012 180.707463 
z
" style="fill:#8c564b;"/>
    </g>
    <g id="text_134">
     <!-- n5 -->
     <g transform="translate(1400.012 187.707463)scale(0.1 -0.1)">
      <use xlink:href="#DejaVuSans-6e"/>
      <use x="63.378906" xlink:href="#DejaVuSans-35"/>
     </g>
    </g>
    <g id="patch_114">
     <path d="M 1372.012 202.385588 
L 1392.012 202.385588 
L 1392.012 195.385588 
L 1372.012 195.385588 
z
" style="fill:#e377c2;"/>
    </g>
    <g id="text_135">
     <!-- n6 -->
     <g transform="translate(1400.012 202.385588)scale(0.1 -0.1)">
      <use xlink:href="#DejaVuSans-6e"/>
      <use x="63.378906" xlink:href="#DejaVuSans-36"/>
     </g>
    </g>
    <g id="patch_115">
     <path d="M 1372.012 217.063713 
L 1392.012 217.063713 
L 1392.012 210.063713 
L 1372.012 210.063713 
z
" style="fill:#7f7f7f;"/>
    </g>
    <g id="text_136">
     <!-- n7 -->
     <g transform="translate(1400.012 217.063713)scale(0.1 -0.1)">
      <use xlink:href="#DejaVuSans-6e"/>
      <use x="63.378906" xlink:href="#DejaVuSans-37"/>
     </g>
    </g>
    <g id="patch_116">
     <path d="M 1372.012 231.741837 
L 1392.012 231.741837 
L 1392.012 224.741837 
L 1372.012 224.741837 
z
" style="fill:#bcbd22;"/>
    </g>
    <g id="text_137">
     <!-- n8 -->
     <g transform="translate(1400.012 231.741837)scale(0.1 -0.1)">
      <use xlink:href="#DejaVuSans-6e"/>
      <use x="63.378906" xlink:href="#DejaVuSans-38"/>
     </g>
    </g>
    <g id="patch_117">
     <path d="M 1372.012 246.419962 
L 1392.012 246.419962 
L 1392.012 239.419962 
L 1372.012 239.419962 
z
" style="fill:#17becf;"/>
    </g>
    <g id="text_138">
     <!-- n9 -->
     <g transform="translate(1400.012 246.419962)scale(0.1 -0.1)">
      <use xlink:href="#DejaVuSans-6e"/>
      <use x="63.378906" xlink:href="#DejaVuSans-39"/>
     </g>
    </g>
   </g>
  </g>
 </g>
 <defs>
  <clipPath id="p59ad7404ce">
   <rect height="627.0264" width="1224.252" x="197.46" y="97.7184"/>
  </clipPath>
 </defs>
</svg>
