<?xml version="1.0" encoding="utf-8" standalone="no"?>
<!DOCTYPE svg PUBLIC "-//W3C//DTD SVG 1.1//EN"
  "http://www.w3.org/Graphics/SVG/1.1/DTD/svg11.dtd">
<svg height="814.32pt" version="1.1" viewBox="0 0 1579.68 814.32" width="1579.68pt" xmlns="http://www.w3.org/2000/svg" xmlns:xlink="http://www.w3.org/1999/xlink">
 <metadata>
  <rdf:RDF xmlns:cc="http://creativecommons.org/ns#" xmlns:dc="http://purl.org/dc/elements/1.1/" xmlns:rdf="http://www.w3.org/1999/02/22-rdf-syntax-ns#">
   <cc:Work>
    <dc:type rdf:resource="http://purl.org/dc/dcmitype/StillImage"/>
    <dc:date>2021-08-05T08:40:02.526263</dc:date>
    <dc:format>image/svg+xml</dc:format>
    <dc:creator>
     <cc:Agent>
      <dc:title>Matplotlib v3.4.1, https://matplotlib.org/</dc:title>
     </cc:Agent>
    </dc:creator>
   </cc:Work>
  </rdf:RDF>
 </metadata>
 <defs>
  <style type="text/css">*{stroke-linecap:butt;stroke-linejoin:round;}</style>
 </defs>
 <g id="figure_1">
  <g id="patch_1">
   <path d="M 0 814.32 
L 1579.68 814.32 
L 1579.68 0 
L 0 0 
z
" style="fill:#ffffff;"/>
  </g>
  <g id="axes_1">
   <g id="patch_2">
    <path d="M 197.46 724.7448 
L 1421.712 724.7448 
L 1421.712 97.7184 
L 197.46 97.7184 
z
" style="fill:#ffffff;"/>
   </g>
   <g id="patch_3">
    <path clip-path="url(#p2648fba34b)" d="M 253.107818 724.7448 
L 343.961399 724.7448 
L 343.961399 644.433702 
L 253.107818 644.433702 
z
" style="fill:#1f77b4;"/>
   </g>
   <g id="patch_4">
    <path clip-path="url(#p2648fba34b)" d="M 366.674794 724.7448 
L 457.528375 724.7448 
L 457.528375 644.766943 
L 366.674794 644.766943 
z
" style="fill:#1f77b4;"/>
   </g>
   <g id="patch_5">
    <path clip-path="url(#p2648fba34b)" d="M 480.24177 724.7448 
L 571.095351 724.7448 
L 571.095351 644.100461 
L 480.24177 644.100461 
z
" style="fill:#1f77b4;"/>
   </g>
   <g id="patch_6">
    <path clip-path="url(#p2648fba34b)" d="M 593.808746 724.7448 
L 684.662327 724.7448 
L 684.662327 644.766943 
L 593.808746 644.766943 
z
" style="fill:#1f77b4;"/>
   </g>
   <g id="patch_7">
    <path clip-path="url(#p2648fba34b)" d="M 707.375722 724.7448 
L 798.229302 724.7448 
L 798.229302 644.766943 
L 707.375722 644.766943 
z
" style="fill:#1f77b4;"/>
   </g>
   <g id="patch_8">
    <path clip-path="url(#p2648fba34b)" d="M 820.942698 724.7448 
L 911.796278 724.7448 
L 911.796278 690.42097 
L 820.942698 690.42097 
z
" style="fill:#1f77b4;"/>
   </g>
   <g id="patch_9">
    <path clip-path="url(#p2648fba34b)" d="M 934.509673 724.7448 
L 1025.363254 724.7448 
L 1025.363254 690.087729 
L 934.509673 690.087729 
z
" style="fill:#1f77b4;"/>
   </g>
   <g id="patch_10">
    <path clip-path="url(#p2648fba34b)" d="M 1048.076649 724.7448 
L 1138.93023 724.7448 
L 1138.93023 690.754211 
L 1048.076649 690.754211 
z
" style="fill:#1f77b4;"/>
   </g>
   <g id="patch_11">
    <path clip-path="url(#p2648fba34b)" d="M 1161.643625 724.7448 
L 1252.497206 724.7448 
L 1252.497206 690.087729 
L 1161.643625 690.087729 
z
" style="fill:#1f77b4;"/>
   </g>
   <g id="patch_12">
    <path clip-path="url(#p2648fba34b)" d="M 1275.210601 724.7448 
L 1366.064182 724.7448 
L 1366.064182 690.087729 
L 1275.210601 690.087729 
z
" style="fill:#1f77b4;"/>
   </g>
   <g id="patch_13">
    <path clip-path="url(#p2648fba34b)" d="M 253.107818 644.433702 
L 343.961399 644.433702 
L 343.961399 586.449755 
L 253.107818 586.449755 
z
" style="fill:#ff7f0e;"/>
   </g>
   <g id="patch_14">
    <path clip-path="url(#p2648fba34b)" d="M 366.674794 644.766943 
L 457.528375 644.766943 
L 457.528375 586.449755 
L 366.674794 586.449755 
z
" style="fill:#ff7f0e;"/>
   </g>
   <g id="patch_15">
    <path clip-path="url(#p2648fba34b)" d="M 480.24177 644.100461 
L 571.095351 644.100461 
L 571.095351 586.116514 
L 480.24177 586.116514 
z
" style="fill:#ff7f0e;"/>
   </g>
   <g id="patch_16">
    <path clip-path="url(#p2648fba34b)" d="M 593.808746 644.766943 
L 684.662327 644.766943 
L 684.662327 586.449755 
L 593.808746 586.449755 
z
" style="fill:#ff7f0e;"/>
   </g>
   <g id="patch_17">
    <path clip-path="url(#p2648fba34b)" d="M 707.375722 644.766943 
L 798.229302 644.766943 
L 798.229302 586.782996 
L 707.375722 586.782996 
z
" style="fill:#ff7f0e;"/>
   </g>
   <g id="patch_18">
    <path clip-path="url(#p2648fba34b)" d="M 820.942698 690.42097 
L 911.796278 690.42097 
L 911.796278 665.427889 
L 820.942698 665.427889 
z
" style="fill:#ff7f0e;"/>
   </g>
   <g id="patch_19">
    <path clip-path="url(#p2648fba34b)" d="M 934.509673 690.087729 
L 1025.363254 690.087729 
L 1025.363254 665.427889 
L 934.509673 665.427889 
z
" style="fill:#ff7f0e;"/>
   </g>
   <g id="patch_20">
    <path clip-path="url(#p2648fba34b)" d="M 1048.076649 690.754211 
L 1138.93023 690.754211 
L 1138.93023 665.76113 
L 1048.076649 665.76113 
z
" style="fill:#ff7f0e;"/>
   </g>
   <g id="patch_21">
    <path clip-path="url(#p2648fba34b)" d="M 1161.643625 690.087729 
L 1252.497206 690.087729 
L 1252.497206 665.427889 
L 1161.643625 665.427889 
z
" style="fill:#ff7f0e;"/>
   </g>
   <g id="patch_22">
    <path clip-path="url(#p2648fba34b)" d="M 1275.210601 690.087729 
L 1366.064182 690.087729 
L 1366.064182 665.094648 
L 1275.210601 665.094648 
z
" style="fill:#ff7f0e;"/>
   </g>
   <g id="patch_23">
    <path clip-path="url(#p2648fba34b)" d="M 253.107818 586.449755 
L 343.961399 586.449755 
L 343.961399 532.464702 
L 253.107818 532.464702 
z
" style="fill:#2ca02c;"/>
   </g>
   <g id="patch_24">
    <path clip-path="url(#p2648fba34b)" d="M 366.674794 586.449755 
L 457.528375 586.449755 
L 457.528375 532.797943 
L 366.674794 532.797943 
z
" style="fill:#2ca02c;"/>
   </g>
   <g id="patch_25">
    <path clip-path="url(#p2648fba34b)" d="M 480.24177 586.116514 
L 571.095351 586.116514 
L 571.095351 532.131461 
L 480.24177 532.131461 
z
" style="fill:#2ca02c;"/>
   </g>
   <g id="patch_26">
    <path clip-path="url(#p2648fba34b)" d="M 593.808746 586.449755 
L 684.662327 586.449755 
L 684.662327 532.464702 
L 593.808746 532.464702 
z
" style="fill:#2ca02c;"/>
   </g>
   <g id="patch_27">
    <path clip-path="url(#p2648fba34b)" d="M 707.375722 586.782996 
L 798.229302 586.782996 
L 798.229302 533.131184 
L 707.375722 533.131184 
z
" style="fill:#2ca02c;"/>
   </g>
   <g id="patch_28">
    <path clip-path="url(#p2648fba34b)" d="M 820.942698 665.427889 
L 911.796278 665.427889 
L 911.796278 642.434255 
L 820.942698 642.434255 
z
" style="fill:#2ca02c;"/>
   </g>
   <g id="patch_29">
    <path clip-path="url(#p2648fba34b)" d="M 934.509673 665.427889 
L 1025.363254 665.427889 
L 1025.363254 642.101014 
L 934.509673 642.101014 
z
" style="fill:#2ca02c;"/>
   </g>
   <g id="patch_30">
    <path clip-path="url(#p2648fba34b)" d="M 1048.076649 665.76113 
L 1138.93023 665.76113 
L 1138.93023 642.767496 
L 1048.076649 642.767496 
z
" style="fill:#2ca02c;"/>
   </g>
   <g id="patch_31">
    <path clip-path="url(#p2648fba34b)" d="M 1161.643625 665.427889 
L 1252.497206 665.427889 
L 1252.497206 642.434255 
L 1161.643625 642.434255 
z
" style="fill:#2ca02c;"/>
   </g>
   <g id="patch_32">
    <path clip-path="url(#p2648fba34b)" d="M 1275.210601 665.094648 
L 1366.064182 665.094648 
L 1366.064182 641.767773 
L 1275.210601 641.767773 
z
" style="fill:#2ca02c;"/>
   </g>
   <g id="patch_33">
    <path clip-path="url(#p2648fba34b)" d="M 253.107818 532.464702 
L 343.961399 532.464702 
L 343.961399 468.815657 
L 253.107818 468.815657 
z
" style="fill:#d62728;"/>
   </g>
   <g id="patch_34">
    <path clip-path="url(#p2648fba34b)" d="M 366.674794 532.797943 
L 457.528375 532.797943 
L 457.528375 468.815657 
L 366.674794 468.815657 
z
" style="fill:#d62728;"/>
   </g>
   <g id="patch_35">
    <path clip-path="url(#p2648fba34b)" d="M 480.24177 532.131461 
L 571.095351 532.131461 
L 571.095351 467.815934 
L 480.24177 467.815934 
z
" style="fill:#d62728;"/>
   </g>
   <g id="patch_36">
    <path clip-path="url(#p2648fba34b)" d="M 593.808746 532.464702 
L 684.662327 532.464702 
L 684.662327 469.148898 
L 593.808746 469.148898 
z
" style="fill:#d62728;"/>
   </g>
   <g id="patch_37">
    <path clip-path="url(#p2648fba34b)" d="M 707.375722 533.131184 
L 798.229302 533.131184 
L 798.229302 468.815657 
L 707.375722 468.815657 
z
" style="fill:#d62728;"/>
   </g>
   <g id="patch_38">
    <path clip-path="url(#p2648fba34b)" d="M 820.942698 642.434255 
L 911.796278 642.434255 
L 911.796278 614.775246 
L 820.942698 614.775246 
z
" style="fill:#d62728;"/>
   </g>
   <g id="patch_39">
    <path clip-path="url(#p2648fba34b)" d="M 934.509673 642.101014 
L 1025.363254 642.101014 
L 1025.363254 614.775246 
L 934.509673 614.775246 
z
" style="fill:#d62728;"/>
   </g>
   <g id="patch_40">
    <path clip-path="url(#p2648fba34b)" d="M 1048.076649 642.767496 
L 1138.93023 642.767496 
L 1138.93023 615.77497 
L 1048.076649 615.77497 
z
" style="fill:#d62728;"/>
   </g>
   <g id="patch_41">
    <path clip-path="url(#p2648fba34b)" d="M 1161.643625 642.434255 
L 1252.497206 642.434255 
L 1252.497206 614.442005 
L 1161.643625 614.442005 
z
" style="fill:#d62728;"/>
   </g>
   <g id="patch_42">
    <path clip-path="url(#p2648fba34b)" d="M 1275.210601 641.767773 
L 1366.064182 641.767773 
L 1366.064182 614.775246 
L 1275.210601 614.775246 
z
" style="fill:#d62728;"/>
   </g>
   <g id="patch_43">
    <path clip-path="url(#p2648fba34b)" d="M 253.107818 468.815657 
L 343.961399 468.815657 
L 343.961399 403.833648 
L 253.107818 403.833648 
z
" style="fill:#9467bd;"/>
   </g>
   <g id="patch_44">
    <path clip-path="url(#p2648fba34b)" d="M 366.674794 468.815657 
L 457.528375 468.815657 
L 457.528375 403.500407 
L 366.674794 403.500407 
z
" style="fill:#9467bd;"/>
   </g>
   <g id="patch_45">
    <path clip-path="url(#p2648fba34b)" d="M 480.24177 467.815934 
L 571.095351 467.815934 
L 571.095351 402.833925 
L 480.24177 402.833925 
z
" style="fill:#9467bd;"/>
   </g>
   <g id="patch_46">
    <path clip-path="url(#p2648fba34b)" d="M 593.808746 469.148898 
L 684.662327 469.148898 
L 684.662327 404.166889 
L 593.808746 404.166889 
z
" style="fill:#9467bd;"/>
   </g>
   <g id="patch_47">
    <path clip-path="url(#p2648fba34b)" d="M 707.375722 468.815657 
L 798.229302 468.815657 
L 798.229302 403.833648 
L 707.375722 403.833648 
z
" style="fill:#9467bd;"/>
   </g>
   <g id="patch_48">
    <path clip-path="url(#p2648fba34b)" d="M 820.942698 614.775246 
L 911.796278 614.775246 
L 911.796278 586.782996 
L 820.942698 586.782996 
z
" style="fill:#9467bd;"/>
   </g>
   <g id="patch_49">
    <path clip-path="url(#p2648fba34b)" d="M 934.509673 614.775246 
L 1025.363254 614.775246 
L 1025.363254 587.116238 
L 934.509673 587.116238 
z
" style="fill:#9467bd;"/>
   </g>
   <g id="patch_50">
    <path clip-path="url(#p2648fba34b)" d="M 1048.076649 615.77497 
L 1138.93023 615.77497 
L 1138.93023 587.78272 
L 1048.076649 587.78272 
z
" style="fill:#9467bd;"/>
   </g>
   <g id="patch_51">
    <path clip-path="url(#p2648fba34b)" d="M 1161.643625 614.442005 
L 1252.497206 614.442005 
L 1252.497206 586.449755 
L 1161.643625 586.449755 
z
" style="fill:#9467bd;"/>
   </g>
   <g id="patch_52">
    <path clip-path="url(#p2648fba34b)" d="M 1275.210601 614.775246 
L 1366.064182 614.775246 
L 1366.064182 586.782996 
L 1275.210601 586.782996 
z
" style="fill:#9467bd;"/>
   </g>
   <g id="patch_53">
    <path clip-path="url(#p2648fba34b)" d="M 253.107818 403.833648 
L 343.961399 403.833648 
L 343.961399 349.182112 
L 253.107818 349.182112 
z
" style="fill:#8c564b;"/>
   </g>
   <g id="patch_54">
    <path clip-path="url(#p2648fba34b)" d="M 366.674794 403.500407 
L 457.528375 403.500407 
L 457.528375 349.182112 
L 366.674794 349.182112 
z
" style="fill:#8c564b;"/>
   </g>
   <g id="patch_55">
    <path clip-path="url(#p2648fba34b)" d="M 480.24177 402.833925 
L 571.095351 402.833925 
L 571.095351 347.849148 
L 480.24177 347.849148 
z
" style="fill:#8c564b;"/>
   </g>
   <g id="patch_56">
    <path clip-path="url(#p2648fba34b)" d="M 593.808746 404.166889 
L 684.662327 404.166889 
L 684.662327 349.848595 
L 593.808746 349.848595 
z
" style="fill:#8c564b;"/>
   </g>
   <g id="patch_57">
    <path clip-path="url(#p2648fba34b)" d="M 707.375722 403.833648 
L 798.229302 403.833648 
L 798.229302 348.848871 
L 707.375722 348.848871 
z
" style="fill:#8c564b;"/>
   </g>
   <g id="patch_58">
    <path clip-path="url(#p2648fba34b)" d="M 820.942698 586.782996 
L 911.796278 586.782996 
L 911.796278 563.456121 
L 820.942698 563.456121 
z
" style="fill:#8c564b;"/>
   </g>
   <g id="patch_59">
    <path clip-path="url(#p2648fba34b)" d="M 934.509673 587.116238 
L 1025.363254 587.116238 
L 1025.363254 563.456121 
L 934.509673 563.456121 
z
" style="fill:#8c564b;"/>
   </g>
   <g id="patch_60">
    <path clip-path="url(#p2648fba34b)" d="M 1048.076649 587.78272 
L 1138.93023 587.78272 
L 1138.93023 564.789086 
L 1048.076649 564.789086 
z
" style="fill:#8c564b;"/>
   </g>
   <g id="patch_61">
    <path clip-path="url(#p2648fba34b)" d="M 1161.643625 586.449755 
L 1252.497206 586.449755 
L 1252.497206 562.789639 
L 1161.643625 562.789639 
z
" style="fill:#8c564b;"/>
   </g>
   <g id="patch_62">
    <path clip-path="url(#p2648fba34b)" d="M 1275.210601 586.782996 
L 1366.064182 586.782996 
L 1366.064182 563.789363 
L 1275.210601 563.789363 
z
" style="fill:#8c564b;"/>
   </g>
   <g id="patch_63">
    <path clip-path="url(#p2648fba34b)" d="M 253.107818 349.182112 
L 343.961399 349.182112 
L 343.961399 294.530577 
L 253.107818 294.530577 
z
" style="fill:#e377c2;"/>
   </g>
   <g id="patch_64">
    <path clip-path="url(#p2648fba34b)" d="M 366.674794 349.182112 
L 457.528375 349.182112 
L 457.528375 294.530577 
L 366.674794 294.530577 
z
" style="fill:#e377c2;"/>
   </g>
   <g id="patch_65">
    <path clip-path="url(#p2648fba34b)" d="M 480.24177 347.849148 
L 571.095351 347.849148 
L 571.095351 293.864095 
L 480.24177 293.864095 
z
" style="fill:#e377c2;"/>
   </g>
   <g id="patch_66">
    <path clip-path="url(#p2648fba34b)" d="M 593.808746 349.848595 
L 684.662327 349.848595 
L 684.662327 294.863818 
L 593.808746 294.863818 
z
" style="fill:#e377c2;"/>
   </g>
   <g id="patch_67">
    <path clip-path="url(#p2648fba34b)" d="M 707.375722 348.848871 
L 798.229302 348.848871 
L 798.229302 294.530577 
L 707.375722 294.530577 
z
" style="fill:#e377c2;"/>
   </g>
   <g id="patch_68">
    <path clip-path="url(#p2648fba34b)" d="M 820.942698 563.456121 
L 911.796278 563.456121 
L 911.796278 540.129246 
L 820.942698 540.129246 
z
" style="fill:#e377c2;"/>
   </g>
   <g id="patch_69">
    <path clip-path="url(#p2648fba34b)" d="M 934.509673 563.456121 
L 1025.363254 563.456121 
L 1025.363254 540.129246 
L 934.509673 540.129246 
z
" style="fill:#e377c2;"/>
   </g>
   <g id="patch_70">
    <path clip-path="url(#p2648fba34b)" d="M 1048.076649 564.789086 
L 1138.93023 564.789086 
L 1138.93023 540.795729 
L 1048.076649 540.795729 
z
" style="fill:#e377c2;"/>
   </g>
   <g id="patch_71">
    <path clip-path="url(#p2648fba34b)" d="M 1161.643625 562.789639 
L 1252.497206 562.789639 
L 1252.497206 539.796005 
L 1161.643625 539.796005 
z
" style="fill:#e377c2;"/>
   </g>
   <g id="patch_72">
    <path clip-path="url(#p2648fba34b)" d="M 1275.210601 563.789363 
L 1366.064182 563.789363 
L 1366.064182 540.129246 
L 1275.210601 540.129246 
z
" style="fill:#e377c2;"/>
   </g>
   <g id="patch_73">
    <path clip-path="url(#p2648fba34b)" d="M 253.107818 294.530577 
L 343.961399 294.530577 
L 343.961399 241.212005 
L 253.107818 241.212005 
z
" style="fill:#7f7f7f;"/>
   </g>
   <g id="patch_74">
    <path clip-path="url(#p2648fba34b)" d="M 366.674794 294.530577 
L 457.528375 294.530577 
L 457.528375 241.212005 
L 366.674794 241.212005 
z
" style="fill:#7f7f7f;"/>
   </g>
   <g id="patch_75">
    <path clip-path="url(#p2648fba34b)" d="M 480.24177 293.864095 
L 571.095351 293.864095 
L 571.095351 240.545523 
L 480.24177 240.545523 
z
" style="fill:#7f7f7f;"/>
   </g>
   <g id="patch_76">
    <path clip-path="url(#p2648fba34b)" d="M 593.808746 294.863818 
L 684.662327 294.863818 
L 684.662327 241.545246 
L 593.808746 241.545246 
z
" style="fill:#7f7f7f;"/>
   </g>
   <g id="patch_77">
    <path clip-path="url(#p2648fba34b)" d="M 707.375722 294.530577 
L 798.229302 294.530577 
L 798.229302 240.878764 
L 707.375722 240.878764 
z
" style="fill:#7f7f7f;"/>
   </g>
   <g id="patch_78">
    <path clip-path="url(#p2648fba34b)" d="M 820.942698 540.129246 
L 911.796278 540.129246 
L 911.796278 517.135612 
L 820.942698 517.135612 
z
" style="fill:#7f7f7f;"/>
   </g>
   <g id="patch_79">
    <path clip-path="url(#p2648fba34b)" d="M 934.509673 540.129246 
L 1025.363254 540.129246 
L 1025.363254 517.135612 
L 934.509673 517.135612 
z
" style="fill:#7f7f7f;"/>
   </g>
   <g id="patch_80">
    <path clip-path="url(#p2648fba34b)" d="M 1048.076649 540.795729 
L 1138.93023 540.795729 
L 1138.93023 517.802095 
L 1048.076649 517.802095 
z
" style="fill:#7f7f7f;"/>
   </g>
   <g id="patch_81">
    <path clip-path="url(#p2648fba34b)" d="M 1161.643625 539.796005 
L 1252.497206 539.796005 
L 1252.497206 516.802371 
L 1161.643625 516.802371 
z
" style="fill:#7f7f7f;"/>
   </g>
   <g id="patch_82">
    <path clip-path="url(#p2648fba34b)" d="M 1275.210601 540.129246 
L 1366.064182 540.129246 
L 1366.064182 517.468854 
L 1275.210601 517.468854 
z
" style="fill:#7f7f7f;"/>
   </g>
   <g id="patch_83">
    <path clip-path="url(#p2648fba34b)" d="M 253.107818 241.212005 
L 343.961399 241.212005 
L 343.961399 189.226398 
L 253.107818 189.226398 
z
" style="fill:#bcbd22;"/>
   </g>
   <g id="patch_84">
    <path clip-path="url(#p2648fba34b)" d="M 366.674794 241.212005 
L 457.528375 241.212005 
L 457.528375 188.559916 
L 366.674794 188.559916 
z
" style="fill:#bcbd22;"/>
   </g>
   <g id="patch_85">
    <path clip-path="url(#p2648fba34b)" d="M 480.24177 240.545523 
L 571.095351 240.545523 
L 571.095351 188.226675 
L 480.24177 188.226675 
z
" style="fill:#bcbd22;"/>
   </g>
   <g id="patch_86">
    <path clip-path="url(#p2648fba34b)" d="M 593.808746 241.545246 
L 684.662327 241.545246 
L 684.662327 189.226398 
L 593.808746 189.226398 
z
" style="fill:#bcbd22;"/>
   </g>
   <g id="patch_87">
    <path clip-path="url(#p2648fba34b)" d="M 707.375722 240.878764 
L 798.229302 240.878764 
L 798.229302 188.559916 
L 707.375722 188.559916 
z
" style="fill:#bcbd22;"/>
   </g>
   <g id="patch_88">
    <path clip-path="url(#p2648fba34b)" d="M 820.942698 517.135612 
L 911.796278 517.135612 
L 911.796278 494.47522 
L 820.942698 494.47522 
z
" style="fill:#bcbd22;"/>
   </g>
   <g id="patch_89">
    <path clip-path="url(#p2648fba34b)" d="M 934.509673 517.135612 
L 1025.363254 517.135612 
L 1025.363254 495.141702 
L 934.509673 495.141702 
z
" style="fill:#bcbd22;"/>
   </g>
   <g id="patch_90">
    <path clip-path="url(#p2648fba34b)" d="M 1048.076649 517.802095 
L 1138.93023 517.802095 
L 1138.93023 495.474943 
L 1048.076649 495.474943 
z
" style="fill:#bcbd22;"/>
   </g>
   <g id="patch_91">
    <path clip-path="url(#p2648fba34b)" d="M 1161.643625 516.802371 
L 1252.497206 516.802371 
L 1252.497206 494.47522 
L 1161.643625 494.47522 
z
" style="fill:#bcbd22;"/>
   </g>
   <g id="patch_92">
    <path clip-path="url(#p2648fba34b)" d="M 1275.210601 517.468854 
L 1366.064182 517.468854 
L 1366.064182 495.141702 
L 1275.210601 495.141702 
z
" style="fill:#bcbd22;"/>
   </g>
   <g id="patch_93">
    <path clip-path="url(#p2648fba34b)" d="M 253.107818 189.226398 
L 343.961399 189.226398 
L 343.961399 129.243005 
L 253.107818 129.243005 
z
" style="fill:#17becf;"/>
   </g>
   <g id="patch_94">
    <path clip-path="url(#p2648fba34b)" d="M 366.674794 188.559916 
L 457.528375 188.559916 
L 457.528375 128.909764 
L 366.674794 128.909764 
z
" style="fill:#17becf;"/>
   </g>
   <g id="patch_95">
    <path clip-path="url(#p2648fba34b)" d="M 480.24177 188.226675 
L 571.095351 188.226675 
L 571.095351 127.5768 
L 480.24177 127.5768 
z
" style="fill:#17becf;"/>
   </g>
   <g id="patch_96">
    <path clip-path="url(#p2648fba34b)" d="M 593.808746 189.226398 
L 684.662327 189.226398 
L 684.662327 129.576246 
L 593.808746 129.576246 
z
" style="fill:#17becf;"/>
   </g>
   <g id="patch_97">
    <path clip-path="url(#p2648fba34b)" d="M 707.375722 188.559916 
L 798.229302 188.559916 
L 798.229302 128.576523 
L 707.375722 128.576523 
z
" style="fill:#17becf;"/>
   </g>
   <g id="patch_98">
    <path clip-path="url(#p2648fba34b)" d="M 820.942698 494.47522 
L 911.796278 494.47522 
L 911.796278 468.815657 
L 820.942698 468.815657 
z
" style="fill:#17becf;"/>
   </g>
   <g id="patch_99">
    <path clip-path="url(#p2648fba34b)" d="M 934.509673 495.141702 
L 1025.363254 495.141702 
L 1025.363254 469.148898 
L 934.509673 469.148898 
z
" style="fill:#17becf;"/>
   </g>
   <g id="patch_100">
    <path clip-path="url(#p2648fba34b)" d="M 1048.076649 495.474943 
L 1138.93023 495.474943 
L 1138.93023 470.481863 
L 1048.076649 470.481863 
z
" style="fill:#17becf;"/>
   </g>
   <g id="patch_101">
    <path clip-path="url(#p2648fba34b)" d="M 1161.643625 494.47522 
L 1252.497206 494.47522 
L 1252.497206 468.482416 
L 1161.643625 468.482416 
z
" style="fill:#17becf;"/>
   </g>
   <g id="patch_102">
    <path clip-path="url(#p2648fba34b)" d="M 1275.210601 495.141702 
L 1366.064182 495.141702 
L 1366.064182 469.482139 
L 1275.210601 469.482139 
z
" style="fill:#17becf;"/>
   </g>
   <g id="matplotlib.axis_1">
    <g id="xtick_1">
     <g id="line2d_1">
      <defs>
       <path d="M 0 0 
L 0 3.5 
" id="mf01a483dde" style="stroke:#000000;stroke-width:0.8;"/>
      </defs>
      <g>
       <use style="stroke:#000000;stroke-width:0.8;" x="298.534609" xlink:href="#mf01a483dde" y="724.7448"/>
      </g>
     </g>
     <g id="text_1">
      <!-- exp1 train -->
      <g transform="translate(273.00414 739.343238)scale(0.1 -0.1)">
       <defs>
        <path d="M 3597 1894 
L 3597 1613 
L 953 1613 
Q 991 1019 1311 708 
Q 1631 397 2203 397 
Q 2534 397 2845 478 
Q 3156 559 3463 722 
L 3463 178 
Q 3153 47 2828 -22 
Q 2503 -91 2169 -91 
Q 1331 -91 842 396 
Q 353 884 353 1716 
Q 353 2575 817 3079 
Q 1281 3584 2069 3584 
Q 2775 3584 3186 3129 
Q 3597 2675 3597 1894 
z
M 3022 2063 
Q 3016 2534 2758 2815 
Q 2500 3097 2075 3097 
Q 1594 3097 1305 2825 
Q 1016 2553 972 2059 
L 3022 2063 
z
" id="DejaVuSans-65" transform="scale(0.015625)"/>
        <path d="M 3513 3500 
L 2247 1797 
L 3578 0 
L 2900 0 
L 1881 1375 
L 863 0 
L 184 0 
L 1544 1831 
L 300 3500 
L 978 3500 
L 1906 2253 
L 2834 3500 
L 3513 3500 
z
" id="DejaVuSans-78" transform="scale(0.015625)"/>
        <path d="M 1159 525 
L 1159 -1331 
L 581 -1331 
L 581 3500 
L 1159 3500 
L 1159 2969 
Q 1341 3281 1617 3432 
Q 1894 3584 2278 3584 
Q 2916 3584 3314 3078 
Q 3713 2572 3713 1747 
Q 3713 922 3314 415 
Q 2916 -91 2278 -91 
Q 1894 -91 1617 61 
Q 1341 213 1159 525 
z
M 3116 1747 
Q 3116 2381 2855 2742 
Q 2594 3103 2138 3103 
Q 1681 3103 1420 2742 
Q 1159 2381 1159 1747 
Q 1159 1113 1420 752 
Q 1681 391 2138 391 
Q 2594 391 2855 752 
Q 3116 1113 3116 1747 
z
" id="DejaVuSans-70" transform="scale(0.015625)"/>
        <path d="M 794 531 
L 1825 531 
L 1825 4091 
L 703 3866 
L 703 4441 
L 1819 4666 
L 2450 4666 
L 2450 531 
L 3481 531 
L 3481 0 
L 794 0 
L 794 531 
z
" id="DejaVuSans-31" transform="scale(0.015625)"/>
        <path id="DejaVuSans-20" transform="scale(0.015625)"/>
        <path d="M 1172 4494 
L 1172 3500 
L 2356 3500 
L 2356 3053 
L 1172 3053 
L 1172 1153 
Q 1172 725 1289 603 
Q 1406 481 1766 481 
L 2356 481 
L 2356 0 
L 1766 0 
Q 1100 0 847 248 
Q 594 497 594 1153 
L 594 3053 
L 172 3053 
L 172 3500 
L 594 3500 
L 594 4494 
L 1172 4494 
z
" id="DejaVuSans-74" transform="scale(0.015625)"/>
        <path d="M 2631 2963 
Q 2534 3019 2420 3045 
Q 2306 3072 2169 3072 
Q 1681 3072 1420 2755 
Q 1159 2438 1159 1844 
L 1159 0 
L 581 0 
L 581 3500 
L 1159 3500 
L 1159 2956 
Q 1341 3275 1631 3429 
Q 1922 3584 2338 3584 
Q 2397 3584 2469 3576 
Q 2541 3569 2628 3553 
L 2631 2963 
z
" id="DejaVuSans-72" transform="scale(0.015625)"/>
        <path d="M 2194 1759 
Q 1497 1759 1228 1600 
Q 959 1441 959 1056 
Q 959 750 1161 570 
Q 1363 391 1709 391 
Q 2188 391 2477 730 
Q 2766 1069 2766 1631 
L 2766 1759 
L 2194 1759 
z
M 3341 1997 
L 3341 0 
L 2766 0 
L 2766 531 
Q 2569 213 2275 61 
Q 1981 -91 1556 -91 
Q 1019 -91 701 211 
Q 384 513 384 1019 
Q 384 1609 779 1909 
Q 1175 2209 1959 2209 
L 2766 2209 
L 2766 2266 
Q 2766 2663 2505 2880 
Q 2244 3097 1772 3097 
Q 1472 3097 1187 3025 
Q 903 2953 641 2809 
L 641 3341 
Q 956 3463 1253 3523 
Q 1550 3584 1831 3584 
Q 2591 3584 2966 3190 
Q 3341 2797 3341 1997 
z
" id="DejaVuSans-61" transform="scale(0.015625)"/>
        <path d="M 603 3500 
L 1178 3500 
L 1178 0 
L 603 0 
L 603 3500 
z
M 603 4863 
L 1178 4863 
L 1178 4134 
L 603 4134 
L 603 4863 
z
" id="DejaVuSans-69" transform="scale(0.015625)"/>
        <path d="M 3513 2113 
L 3513 0 
L 2938 0 
L 2938 2094 
Q 2938 2591 2744 2837 
Q 2550 3084 2163 3084 
Q 1697 3084 1428 2787 
Q 1159 2491 1159 1978 
L 1159 0 
L 581 0 
L 581 3500 
L 1159 3500 
L 1159 2956 
Q 1366 3272 1645 3428 
Q 1925 3584 2291 3584 
Q 2894 3584 3203 3211 
Q 3513 2838 3513 2113 
z
" id="DejaVuSans-6e" transform="scale(0.015625)"/>
       </defs>
       <use xlink:href="#DejaVuSans-65"/>
       <use x="59.773438" xlink:href="#DejaVuSans-78"/>
       <use x="118.953125" xlink:href="#DejaVuSans-70"/>
       <use x="182.429688" xlink:href="#DejaVuSans-31"/>
       <use x="246.052734" xlink:href="#DejaVuSans-20"/>
       <use x="277.839844" xlink:href="#DejaVuSans-74"/>
       <use x="317.048828" xlink:href="#DejaVuSans-72"/>
       <use x="358.162109" xlink:href="#DejaVuSans-61"/>
       <use x="419.441406" xlink:href="#DejaVuSans-69"/>
       <use x="447.224609" xlink:href="#DejaVuSans-6e"/>
      </g>
     </g>
    </g>
    <g id="xtick_2">
     <g id="line2d_2">
      <g>
       <use style="stroke:#000000;stroke-width:0.8;" x="412.101584" xlink:href="#mf01a483dde" y="724.7448"/>
      </g>
     </g>
     <g id="text_2">
      <!-- exp2 train -->
      <g transform="translate(386.571116 739.343238)scale(0.1 -0.1)">
       <defs>
        <path d="M 1228 531 
L 3431 531 
L 3431 0 
L 469 0 
L 469 531 
Q 828 903 1448 1529 
Q 2069 2156 2228 2338 
Q 2531 2678 2651 2914 
Q 2772 3150 2772 3378 
Q 2772 3750 2511 3984 
Q 2250 4219 1831 4219 
Q 1534 4219 1204 4116 
Q 875 4013 500 3803 
L 500 4441 
Q 881 4594 1212 4672 
Q 1544 4750 1819 4750 
Q 2544 4750 2975 4387 
Q 3406 4025 3406 3419 
Q 3406 3131 3298 2873 
Q 3191 2616 2906 2266 
Q 2828 2175 2409 1742 
Q 1991 1309 1228 531 
z
" id="DejaVuSans-32" transform="scale(0.015625)"/>
       </defs>
       <use xlink:href="#DejaVuSans-65"/>
       <use x="59.773438" xlink:href="#DejaVuSans-78"/>
       <use x="118.953125" xlink:href="#DejaVuSans-70"/>
       <use x="182.429688" xlink:href="#DejaVuSans-32"/>
       <use x="246.052734" xlink:href="#DejaVuSans-20"/>
       <use x="277.839844" xlink:href="#DejaVuSans-74"/>
       <use x="317.048828" xlink:href="#DejaVuSans-72"/>
       <use x="358.162109" xlink:href="#DejaVuSans-61"/>
       <use x="419.441406" xlink:href="#DejaVuSans-69"/>
       <use x="447.224609" xlink:href="#DejaVuSans-6e"/>
      </g>
     </g>
    </g>
    <g id="xtick_3">
     <g id="line2d_3">
      <g>
       <use style="stroke:#000000;stroke-width:0.8;" x="525.66856" xlink:href="#mf01a483dde" y="724.7448"/>
      </g>
     </g>
     <g id="text_3">
      <!-- exp3 train -->
      <g transform="translate(500.138092 739.343238)scale(0.1 -0.1)">
       <defs>
        <path d="M 2597 2516 
Q 3050 2419 3304 2112 
Q 3559 1806 3559 1356 
Q 3559 666 3084 287 
Q 2609 -91 1734 -91 
Q 1441 -91 1130 -33 
Q 819 25 488 141 
L 488 750 
Q 750 597 1062 519 
Q 1375 441 1716 441 
Q 2309 441 2620 675 
Q 2931 909 2931 1356 
Q 2931 1769 2642 2001 
Q 2353 2234 1838 2234 
L 1294 2234 
L 1294 2753 
L 1863 2753 
Q 2328 2753 2575 2939 
Q 2822 3125 2822 3475 
Q 2822 3834 2567 4026 
Q 2313 4219 1838 4219 
Q 1578 4219 1281 4162 
Q 984 4106 628 3988 
L 628 4550 
Q 988 4650 1302 4700 
Q 1616 4750 1894 4750 
Q 2613 4750 3031 4423 
Q 3450 4097 3450 3541 
Q 3450 3153 3228 2886 
Q 3006 2619 2597 2516 
z
" id="DejaVuSans-33" transform="scale(0.015625)"/>
       </defs>
       <use xlink:href="#DejaVuSans-65"/>
       <use x="59.773438" xlink:href="#DejaVuSans-78"/>
       <use x="118.953125" xlink:href="#DejaVuSans-70"/>
       <use x="182.429688" xlink:href="#DejaVuSans-33"/>
       <use x="246.052734" xlink:href="#DejaVuSans-20"/>
       <use x="277.839844" xlink:href="#DejaVuSans-74"/>
       <use x="317.048828" xlink:href="#DejaVuSans-72"/>
       <use x="358.162109" xlink:href="#DejaVuSans-61"/>
       <use x="419.441406" xlink:href="#DejaVuSans-69"/>
       <use x="447.224609" xlink:href="#DejaVuSans-6e"/>
      </g>
     </g>
    </g>
    <g id="xtick_4">
     <g id="line2d_4">
      <g>
       <use style="stroke:#000000;stroke-width:0.8;" x="639.235536" xlink:href="#mf01a483dde" y="724.7448"/>
      </g>
     </g>
     <g id="text_4">
      <!-- exp4 train -->
      <g transform="translate(613.705067 739.343238)scale(0.1 -0.1)">
       <defs>
        <path d="M 2419 4116 
L 825 1625 
L 2419 1625 
L 2419 4116 
z
M 2253 4666 
L 3047 4666 
L 3047 1625 
L 3713 1625 
L 3713 1100 
L 3047 1100 
L 3047 0 
L 2419 0 
L 2419 1100 
L 313 1100 
L 313 1709 
L 2253 4666 
z
" id="DejaVuSans-34" transform="scale(0.015625)"/>
       </defs>
       <use xlink:href="#DejaVuSans-65"/>
       <use x="59.773438" xlink:href="#DejaVuSans-78"/>
       <use x="118.953125" xlink:href="#DejaVuSans-70"/>
       <use x="182.429688" xlink:href="#DejaVuSans-34"/>
       <use x="246.052734" xlink:href="#DejaVuSans-20"/>
       <use x="277.839844" xlink:href="#DejaVuSans-74"/>
       <use x="317.048828" xlink:href="#DejaVuSans-72"/>
       <use x="358.162109" xlink:href="#DejaVuSans-61"/>
       <use x="419.441406" xlink:href="#DejaVuSans-69"/>
       <use x="447.224609" xlink:href="#DejaVuSans-6e"/>
      </g>
     </g>
    </g>
    <g id="xtick_5">
     <g id="line2d_5">
      <g>
       <use style="stroke:#000000;stroke-width:0.8;" x="752.802512" xlink:href="#mf01a483dde" y="724.7448"/>
      </g>
     </g>
     <g id="text_5">
      <!-- exp5 train -->
      <g transform="translate(727.272043 739.343238)scale(0.1 -0.1)">
       <defs>
        <path d="M 691 4666 
L 3169 4666 
L 3169 4134 
L 1269 4134 
L 1269 2991 
Q 1406 3038 1543 3061 
Q 1681 3084 1819 3084 
Q 2600 3084 3056 2656 
Q 3513 2228 3513 1497 
Q 3513 744 3044 326 
Q 2575 -91 1722 -91 
Q 1428 -91 1123 -41 
Q 819 9 494 109 
L 494 744 
Q 775 591 1075 516 
Q 1375 441 1709 441 
Q 2250 441 2565 725 
Q 2881 1009 2881 1497 
Q 2881 1984 2565 2268 
Q 2250 2553 1709 2553 
Q 1456 2553 1204 2497 
Q 953 2441 691 2322 
L 691 4666 
z
" id="DejaVuSans-35" transform="scale(0.015625)"/>
       </defs>
       <use xlink:href="#DejaVuSans-65"/>
       <use x="59.773438" xlink:href="#DejaVuSans-78"/>
       <use x="118.953125" xlink:href="#DejaVuSans-70"/>
       <use x="182.429688" xlink:href="#DejaVuSans-35"/>
       <use x="246.052734" xlink:href="#DejaVuSans-20"/>
       <use x="277.839844" xlink:href="#DejaVuSans-74"/>
       <use x="317.048828" xlink:href="#DejaVuSans-72"/>
       <use x="358.162109" xlink:href="#DejaVuSans-61"/>
       <use x="419.441406" xlink:href="#DejaVuSans-69"/>
       <use x="447.224609" xlink:href="#DejaVuSans-6e"/>
      </g>
     </g>
    </g>
    <g id="xtick_6">
     <g id="line2d_6">
      <g>
       <use style="stroke:#000000;stroke-width:0.8;" x="866.369488" xlink:href="#mf01a483dde" y="724.7448"/>
      </g>
     </g>
     <g id="text_6">
      <!-- exp1 test -->
      <g transform="translate(842.874957 739.343238)scale(0.1 -0.1)">
       <defs>
        <path d="M 2834 3397 
L 2834 2853 
Q 2591 2978 2328 3040 
Q 2066 3103 1784 3103 
Q 1356 3103 1142 2972 
Q 928 2841 928 2578 
Q 928 2378 1081 2264 
Q 1234 2150 1697 2047 
L 1894 2003 
Q 2506 1872 2764 1633 
Q 3022 1394 3022 966 
Q 3022 478 2636 193 
Q 2250 -91 1575 -91 
Q 1294 -91 989 -36 
Q 684 19 347 128 
L 347 722 
Q 666 556 975 473 
Q 1284 391 1588 391 
Q 1994 391 2212 530 
Q 2431 669 2431 922 
Q 2431 1156 2273 1281 
Q 2116 1406 1581 1522 
L 1381 1569 
Q 847 1681 609 1914 
Q 372 2147 372 2553 
Q 372 3047 722 3315 
Q 1072 3584 1716 3584 
Q 2034 3584 2315 3537 
Q 2597 3491 2834 3397 
z
" id="DejaVuSans-73" transform="scale(0.015625)"/>
       </defs>
       <use xlink:href="#DejaVuSans-65"/>
       <use x="59.773438" xlink:href="#DejaVuSans-78"/>
       <use x="118.953125" xlink:href="#DejaVuSans-70"/>
       <use x="182.429688" xlink:href="#DejaVuSans-31"/>
       <use x="246.052734" xlink:href="#DejaVuSans-20"/>
       <use x="277.839844" xlink:href="#DejaVuSans-74"/>
       <use x="317.048828" xlink:href="#DejaVuSans-65"/>
       <use x="378.572266" xlink:href="#DejaVuSans-73"/>
       <use x="430.671875" xlink:href="#DejaVuSans-74"/>
      </g>
     </g>
    </g>
    <g id="xtick_7">
     <g id="line2d_7">
      <g>
       <use style="stroke:#000000;stroke-width:0.8;" x="979.936464" xlink:href="#mf01a483dde" y="724.7448"/>
      </g>
     </g>
     <g id="text_7">
      <!-- exp2 test -->
      <g transform="translate(956.441933 739.343238)scale(0.1 -0.1)">
       <use xlink:href="#DejaVuSans-65"/>
       <use x="59.773438" xlink:href="#DejaVuSans-78"/>
       <use x="118.953125" xlink:href="#DejaVuSans-70"/>
       <use x="182.429688" xlink:href="#DejaVuSans-32"/>
       <use x="246.052734" xlink:href="#DejaVuSans-20"/>
       <use x="277.839844" xlink:href="#DejaVuSans-74"/>
       <use x="317.048828" xlink:href="#DejaVuSans-65"/>
       <use x="378.572266" xlink:href="#DejaVuSans-73"/>
       <use x="430.671875" xlink:href="#DejaVuSans-74"/>
      </g>
     </g>
    </g>
    <g id="xtick_8">
     <g id="line2d_8">
      <g>
       <use style="stroke:#000000;stroke-width:0.8;" x="1093.50344" xlink:href="#mf01a483dde" y="724.7448"/>
      </g>
     </g>
     <g id="text_8">
      <!-- exp3 test -->
      <g transform="translate(1070.008908 739.343238)scale(0.1 -0.1)">
       <use xlink:href="#DejaVuSans-65"/>
       <use x="59.773438" xlink:href="#DejaVuSans-78"/>
       <use x="118.953125" xlink:href="#DejaVuSans-70"/>
       <use x="182.429688" xlink:href="#DejaVuSans-33"/>
       <use x="246.052734" xlink:href="#DejaVuSans-20"/>
       <use x="277.839844" xlink:href="#DejaVuSans-74"/>
       <use x="317.048828" xlink:href="#DejaVuSans-65"/>
       <use x="378.572266" xlink:href="#DejaVuSans-73"/>
       <use x="430.671875" xlink:href="#DejaVuSans-74"/>
      </g>
     </g>
    </g>
    <g id="xtick_9">
     <g id="line2d_9">
      <g>
       <use style="stroke:#000000;stroke-width:0.8;" x="1207.070416" xlink:href="#mf01a483dde" y="724.7448"/>
      </g>
     </g>
     <g id="text_9">
      <!-- exp4 test -->
      <g transform="translate(1183.575884 739.343238)scale(0.1 -0.1)">
       <use xlink:href="#DejaVuSans-65"/>
       <use x="59.773438" xlink:href="#DejaVuSans-78"/>
       <use x="118.953125" xlink:href="#DejaVuSans-70"/>
       <use x="182.429688" xlink:href="#DejaVuSans-34"/>
       <use x="246.052734" xlink:href="#DejaVuSans-20"/>
       <use x="277.839844" xlink:href="#DejaVuSans-74"/>
       <use x="317.048828" xlink:href="#DejaVuSans-65"/>
       <use x="378.572266" xlink:href="#DejaVuSans-73"/>
       <use x="430.671875" xlink:href="#DejaVuSans-74"/>
      </g>
     </g>
    </g>
    <g id="xtick_10">
     <g id="line2d_10">
      <g>
       <use style="stroke:#000000;stroke-width:0.8;" x="1320.637391" xlink:href="#mf01a483dde" y="724.7448"/>
      </g>
     </g>
     <g id="text_10">
      <!-- exp5 test -->
      <g transform="translate(1297.14286 739.343238)scale(0.1 -0.1)">
       <use xlink:href="#DejaVuSans-65"/>
       <use x="59.773438" xlink:href="#DejaVuSans-78"/>
       <use x="118.953125" xlink:href="#DejaVuSans-70"/>
       <use x="182.429688" xlink:href="#DejaVuSans-35"/>
       <use x="246.052734" xlink:href="#DejaVuSans-20"/>
       <use x="277.839844" xlink:href="#DejaVuSans-74"/>
       <use x="317.048828" xlink:href="#DejaVuSans-65"/>
       <use x="378.572266" xlink:href="#DejaVuSans-73"/>
       <use x="430.671875" xlink:href="#DejaVuSans-74"/>
      </g>
     </g>
    </g>
   </g>
   <g id="matplotlib.axis_2">
    <g id="ytick_1">
     <g id="line2d_11">
      <defs>
       <path d="M 0 0 
L -3.5 0 
" id="m4347bd635d" style="stroke:#000000;stroke-width:0.8;"/>
      </defs>
      <g>
       <use style="stroke:#000000;stroke-width:0.8;" x="197.46" xlink:href="#m4347bd635d" y="724.7448"/>
      </g>
     </g>
     <g id="text_11">
      <!-- 0 -->
      <g transform="translate(184.0975 728.544019)scale(0.1 -0.1)">
       <defs>
        <path d="M 2034 4250 
Q 1547 4250 1301 3770 
Q 1056 3291 1056 2328 
Q 1056 1369 1301 889 
Q 1547 409 2034 409 
Q 2525 409 2770 889 
Q 3016 1369 3016 2328 
Q 3016 3291 2770 3770 
Q 2525 4250 2034 4250 
z
M 2034 4750 
Q 2819 4750 3233 4129 
Q 3647 3509 3647 2328 
Q 3647 1150 3233 529 
Q 2819 -91 2034 -91 
Q 1250 -91 836 529 
Q 422 1150 422 2328 
Q 422 3509 836 4129 
Q 1250 4750 2034 4750 
z
" id="DejaVuSans-30" transform="scale(0.015625)"/>
       </defs>
       <use xlink:href="#DejaVuSans-30"/>
      </g>
     </g>
    </g>
    <g id="ytick_2">
     <g id="line2d_12">
      <g>
       <use style="stroke:#000000;stroke-width:0.8;" x="197.46" xlink:href="#m4347bd635d" y="641.434532"/>
      </g>
     </g>
     <g id="text_12">
      <!-- 250 -->
      <g transform="translate(171.3725 645.233751)scale(0.1 -0.1)">
       <use xlink:href="#DejaVuSans-32"/>
       <use x="63.623047" xlink:href="#DejaVuSans-35"/>
       <use x="127.246094" xlink:href="#DejaVuSans-30"/>
      </g>
     </g>
    </g>
    <g id="ytick_3">
     <g id="line2d_13">
      <g>
       <use style="stroke:#000000;stroke-width:0.8;" x="197.46" xlink:href="#m4347bd635d" y="558.124264"/>
      </g>
     </g>
     <g id="text_13">
      <!-- 500 -->
      <g transform="translate(171.3725 561.923483)scale(0.1 -0.1)">
       <use xlink:href="#DejaVuSans-35"/>
       <use x="63.623047" xlink:href="#DejaVuSans-30"/>
       <use x="127.246094" xlink:href="#DejaVuSans-30"/>
      </g>
     </g>
    </g>
    <g id="ytick_4">
     <g id="line2d_14">
      <g>
       <use style="stroke:#000000;stroke-width:0.8;" x="197.46" xlink:href="#m4347bd635d" y="474.813996"/>
      </g>
     </g>
     <g id="text_14">
      <!-- 750 -->
      <g transform="translate(171.3725 478.613215)scale(0.1 -0.1)">
       <defs>
        <path d="M 525 4666 
L 3525 4666 
L 3525 4397 
L 1831 0 
L 1172 0 
L 2766 4134 
L 525 4134 
L 525 4666 
z
" id="DejaVuSans-37" transform="scale(0.015625)"/>
       </defs>
       <use xlink:href="#DejaVuSans-37"/>
       <use x="63.623047" xlink:href="#DejaVuSans-35"/>
       <use x="127.246094" xlink:href="#DejaVuSans-30"/>
      </g>
     </g>
    </g>
    <g id="ytick_5">
     <g id="line2d_15">
      <g>
       <use style="stroke:#000000;stroke-width:0.8;" x="197.46" xlink:href="#m4347bd635d" y="391.503729"/>
      </g>
     </g>
     <g id="text_15">
      <!-- 1000 -->
      <g transform="translate(165.01 395.302947)scale(0.1 -0.1)">
       <use xlink:href="#DejaVuSans-31"/>
       <use x="63.623047" xlink:href="#DejaVuSans-30"/>
       <use x="127.246094" xlink:href="#DejaVuSans-30"/>
       <use x="190.869141" xlink:href="#DejaVuSans-30"/>
      </g>
     </g>
    </g>
    <g id="ytick_6">
     <g id="line2d_16">
      <g>
       <use style="stroke:#000000;stroke-width:0.8;" x="197.46" xlink:href="#m4347bd635d" y="308.193461"/>
      </g>
     </g>
     <g id="text_16">
      <!-- 1250 -->
      <g transform="translate(165.01 311.992679)scale(0.1 -0.1)">
       <use xlink:href="#DejaVuSans-31"/>
       <use x="63.623047" xlink:href="#DejaVuSans-32"/>
       <use x="127.246094" xlink:href="#DejaVuSans-35"/>
       <use x="190.869141" xlink:href="#DejaVuSans-30"/>
      </g>
     </g>
    </g>
    <g id="ytick_7">
     <g id="line2d_17">
      <g>
       <use style="stroke:#000000;stroke-width:0.8;" x="197.46" xlink:href="#m4347bd635d" y="224.883193"/>
      </g>
     </g>
     <g id="text_17">
      <!-- 1500 -->
      <g transform="translate(165.01 228.682412)scale(0.1 -0.1)">
       <use xlink:href="#DejaVuSans-31"/>
       <use x="63.623047" xlink:href="#DejaVuSans-35"/>
       <use x="127.246094" xlink:href="#DejaVuSans-30"/>
       <use x="190.869141" xlink:href="#DejaVuSans-30"/>
      </g>
     </g>
    </g>
    <g id="ytick_8">
     <g id="line2d_18">
      <g>
       <use style="stroke:#000000;stroke-width:0.8;" x="197.46" xlink:href="#m4347bd635d" y="141.572925"/>
      </g>
     </g>
     <g id="text_18">
      <!-- 1750 -->
      <g transform="translate(165.01 145.372144)scale(0.1 -0.1)">
       <use xlink:href="#DejaVuSans-31"/>
       <use x="63.623047" xlink:href="#DejaVuSans-37"/>
       <use x="127.246094" xlink:href="#DejaVuSans-35"/>
       <use x="190.869141" xlink:href="#DejaVuSans-30"/>
      </g>
     </g>
    </g>
   </g>
   <g id="patch_103">
    <path d="M 197.46 724.7448 
L 197.46 97.7184 
" style="fill:none;stroke:#000000;stroke-linecap:square;stroke-linejoin:miter;stroke-width:0.8;"/>
   </g>
   <g id="patch_104">
    <path d="M 1421.712 724.7448 
L 1421.712 97.7184 
" style="fill:none;stroke:#000000;stroke-linecap:square;stroke-linejoin:miter;stroke-width:0.8;"/>
   </g>
   <g id="patch_105">
    <path d="M 197.46 724.7448 
L 1421.712 724.7448 
" style="fill:none;stroke:#000000;stroke-linecap:square;stroke-linejoin:miter;stroke-width:0.8;"/>
   </g>
   <g id="patch_106">
    <path d="M 197.46 97.7184 
L 1421.712 97.7184 
" style="fill:none;stroke:#000000;stroke-linecap:square;stroke-linejoin:miter;stroke-width:0.8;"/>
   </g>
   <g id="text_19">
    <!-- 241 -->
    <g transform="translate(292.85626 684.589251)scale(0.1 -0.1)">
     <use xlink:href="#DejaVuSans-32"/>
     <use x="63.623047" xlink:href="#DejaVuSans-34"/>
     <use x="127.246094" xlink:href="#DejaVuSans-31"/>
    </g>
   </g>
   <g id="text_20">
    <!-- 240 -->
    <g transform="translate(406.423236 684.755871)scale(0.1 -0.1)">
     <use xlink:href="#DejaVuSans-32"/>
     <use x="63.623047" xlink:href="#DejaVuSans-34"/>
     <use x="127.246094" xlink:href="#DejaVuSans-30"/>
    </g>
   </g>
   <g id="text_21">
    <!-- 242 -->
    <g transform="translate(519.990212 684.42263)scale(0.1 -0.1)">
     <use xlink:href="#DejaVuSans-32"/>
     <use x="63.623047" xlink:href="#DejaVuSans-34"/>
     <use x="127.246094" xlink:href="#DejaVuSans-32"/>
    </g>
   </g>
   <g id="text_22">
    <!-- 240 -->
    <g transform="translate(633.557187 684.755871)scale(0.1 -0.1)">
     <use xlink:href="#DejaVuSans-32"/>
     <use x="63.623047" xlink:href="#DejaVuSans-34"/>
     <use x="127.246094" xlink:href="#DejaVuSans-30"/>
    </g>
   </g>
   <g id="text_23">
    <!-- 240 -->
    <g transform="translate(747.124163 684.755871)scale(0.1 -0.1)">
     <use xlink:href="#DejaVuSans-32"/>
     <use x="63.623047" xlink:href="#DejaVuSans-34"/>
     <use x="127.246094" xlink:href="#DejaVuSans-30"/>
    </g>
   </g>
   <g id="text_24">
    <!-- 103 -->
    <g transform="translate(860.691139 707.582885)scale(0.1 -0.1)">
     <use xlink:href="#DejaVuSans-31"/>
     <use x="63.623047" xlink:href="#DejaVuSans-30"/>
     <use x="127.246094" xlink:href="#DejaVuSans-33"/>
    </g>
   </g>
   <g id="text_25">
    <!-- 104 -->
    <g transform="translate(974.258115 707.416264)scale(0.1 -0.1)">
     <use xlink:href="#DejaVuSans-31"/>
     <use x="63.623047" xlink:href="#DejaVuSans-30"/>
     <use x="127.246094" xlink:href="#DejaVuSans-34"/>
    </g>
   </g>
   <g id="text_26">
    <!-- 102 -->
    <g transform="translate(1087.825091 707.749505)scale(0.1 -0.1)">
     <use xlink:href="#DejaVuSans-31"/>
     <use x="63.623047" xlink:href="#DejaVuSans-30"/>
     <use x="127.246094" xlink:href="#DejaVuSans-32"/>
    </g>
   </g>
   <g id="text_27">
    <!-- 104 -->
    <g transform="translate(1201.392067 707.416264)scale(0.1 -0.1)">
     <use xlink:href="#DejaVuSans-31"/>
     <use x="63.623047" xlink:href="#DejaVuSans-30"/>
     <use x="127.246094" xlink:href="#DejaVuSans-34"/>
    </g>
   </g>
   <g id="text_28">
    <!-- 104 -->
    <g transform="translate(1314.959043 707.416264)scale(0.1 -0.1)">
     <use xlink:href="#DejaVuSans-31"/>
     <use x="63.623047" xlink:href="#DejaVuSans-30"/>
     <use x="127.246094" xlink:href="#DejaVuSans-34"/>
    </g>
   </g>
   <g id="text_29">
    <!-- 174 -->
    <g transform="translate(292.85626 615.441729)scale(0.1 -0.1)">
     <use xlink:href="#DejaVuSans-31"/>
     <use x="63.623047" xlink:href="#DejaVuSans-37"/>
     <use x="127.246094" xlink:href="#DejaVuSans-34"/>
    </g>
   </g>
   <g id="text_30">
    <!-- 175 -->
    <g transform="translate(406.423236 615.608349)scale(0.1 -0.1)">
     <use xlink:href="#DejaVuSans-31"/>
     <use x="63.623047" xlink:href="#DejaVuSans-37"/>
     <use x="127.246094" xlink:href="#DejaVuSans-35"/>
    </g>
   </g>
   <g id="text_31">
    <!-- 174 -->
    <g transform="translate(519.990212 615.108488)scale(0.1 -0.1)">
     <use xlink:href="#DejaVuSans-31"/>
     <use x="63.623047" xlink:href="#DejaVuSans-37"/>
     <use x="127.246094" xlink:href="#DejaVuSans-34"/>
    </g>
   </g>
   <g id="text_32">
    <!-- 175 -->
    <g transform="translate(633.557187 615.608349)scale(0.1 -0.1)">
     <use xlink:href="#DejaVuSans-31"/>
     <use x="63.623047" xlink:href="#DejaVuSans-37"/>
     <use x="127.246094" xlink:href="#DejaVuSans-35"/>
    </g>
   </g>
   <g id="text_33">
    <!-- 174 -->
    <g transform="translate(747.124163 615.77497)scale(0.1 -0.1)">
     <use xlink:href="#DejaVuSans-31"/>
     <use x="63.623047" xlink:href="#DejaVuSans-37"/>
     <use x="127.246094" xlink:href="#DejaVuSans-34"/>
    </g>
   </g>
   <g id="text_34">
    <!-- 75 -->
    <g transform="translate(860.691139 677.924429)scale(0.1 -0.1)">
     <use xlink:href="#DejaVuSans-37"/>
     <use x="63.623047" xlink:href="#DejaVuSans-35"/>
    </g>
   </g>
   <g id="text_35">
    <!-- 74 -->
    <g transform="translate(974.258115 677.757809)scale(0.1 -0.1)">
     <use xlink:href="#DejaVuSans-37"/>
     <use x="63.623047" xlink:href="#DejaVuSans-34"/>
    </g>
   </g>
   <g id="text_36">
    <!-- 75 -->
    <g transform="translate(1087.825091 678.257671)scale(0.1 -0.1)">
     <use xlink:href="#DejaVuSans-37"/>
     <use x="63.623047" xlink:href="#DejaVuSans-35"/>
    </g>
   </g>
   <g id="text_37">
    <!-- 74 -->
    <g transform="translate(1201.392067 677.757809)scale(0.1 -0.1)">
     <use xlink:href="#DejaVuSans-37"/>
     <use x="63.623047" xlink:href="#DejaVuSans-34"/>
    </g>
   </g>
   <g id="text_38">
    <!-- 75 -->
    <g transform="translate(1314.959043 677.591188)scale(0.1 -0.1)">
     <use xlink:href="#DejaVuSans-37"/>
     <use x="63.623047" xlink:href="#DejaVuSans-35"/>
    </g>
   </g>
   <g id="text_39">
    <!-- 162 -->
    <g transform="translate(292.85626 559.457229)scale(0.1 -0.1)">
     <defs>
      <path d="M 2113 2584 
Q 1688 2584 1439 2293 
Q 1191 2003 1191 1497 
Q 1191 994 1439 701 
Q 1688 409 2113 409 
Q 2538 409 2786 701 
Q 3034 994 3034 1497 
Q 3034 2003 2786 2293 
Q 2538 2584 2113 2584 
z
M 3366 4563 
L 3366 3988 
Q 3128 4100 2886 4159 
Q 2644 4219 2406 4219 
Q 1781 4219 1451 3797 
Q 1122 3375 1075 2522 
Q 1259 2794 1537 2939 
Q 1816 3084 2150 3084 
Q 2853 3084 3261 2657 
Q 3669 2231 3669 1497 
Q 3669 778 3244 343 
Q 2819 -91 2113 -91 
Q 1303 -91 875 529 
Q 447 1150 447 2328 
Q 447 3434 972 4092 
Q 1497 4750 2381 4750 
Q 2619 4750 2861 4703 
Q 3103 4656 3366 4563 
z
" id="DejaVuSans-36" transform="scale(0.015625)"/>
     </defs>
     <use xlink:href="#DejaVuSans-31"/>
     <use x="63.623047" xlink:href="#DejaVuSans-36"/>
     <use x="127.246094" xlink:href="#DejaVuSans-32"/>
    </g>
   </g>
   <g id="text_40">
    <!-- 161 -->
    <g transform="translate(406.423236 559.623849)scale(0.1 -0.1)">
     <use xlink:href="#DejaVuSans-31"/>
     <use x="63.623047" xlink:href="#DejaVuSans-36"/>
     <use x="127.246094" xlink:href="#DejaVuSans-31"/>
    </g>
   </g>
   <g id="text_41">
    <!-- 162 -->
    <g transform="translate(519.990212 559.123987)scale(0.1 -0.1)">
     <use xlink:href="#DejaVuSans-31"/>
     <use x="63.623047" xlink:href="#DejaVuSans-36"/>
     <use x="127.246094" xlink:href="#DejaVuSans-32"/>
    </g>
   </g>
   <g id="text_42">
    <!-- 162 -->
    <g transform="translate(633.557187 559.457229)scale(0.1 -0.1)">
     <use xlink:href="#DejaVuSans-31"/>
     <use x="63.623047" xlink:href="#DejaVuSans-36"/>
     <use x="127.246094" xlink:href="#DejaVuSans-32"/>
    </g>
   </g>
   <g id="text_43">
    <!-- 161 -->
    <g transform="translate(747.124163 559.95709)scale(0.1 -0.1)">
     <use xlink:href="#DejaVuSans-31"/>
     <use x="63.623047" xlink:href="#DejaVuSans-36"/>
     <use x="127.246094" xlink:href="#DejaVuSans-31"/>
    </g>
   </g>
   <g id="text_44">
    <!-- 69 -->
    <g transform="translate(860.691139 653.931072)scale(0.1 -0.1)">
     <defs>
      <path d="M 703 97 
L 703 672 
Q 941 559 1184 500 
Q 1428 441 1663 441 
Q 2288 441 2617 861 
Q 2947 1281 2994 2138 
Q 2813 1869 2534 1725 
Q 2256 1581 1919 1581 
Q 1219 1581 811 2004 
Q 403 2428 403 3163 
Q 403 3881 828 4315 
Q 1253 4750 1959 4750 
Q 2769 4750 3195 4129 
Q 3622 3509 3622 2328 
Q 3622 1225 3098 567 
Q 2575 -91 1691 -91 
Q 1453 -91 1209 -44 
Q 966 3 703 97 
z
M 1959 2075 
Q 2384 2075 2632 2365 
Q 2881 2656 2881 3163 
Q 2881 3666 2632 3958 
Q 2384 4250 1959 4250 
Q 1534 4250 1286 3958 
Q 1038 3666 1038 3163 
Q 1038 2656 1286 2365 
Q 1534 2075 1959 2075 
z
" id="DejaVuSans-39" transform="scale(0.015625)"/>
     </defs>
     <use xlink:href="#DejaVuSans-36"/>
     <use x="63.623047" xlink:href="#DejaVuSans-39"/>
    </g>
   </g>
   <g id="text_45">
    <!-- 70 -->
    <g transform="translate(974.258115 653.764452)scale(0.1 -0.1)">
     <use xlink:href="#DejaVuSans-37"/>
     <use x="63.623047" xlink:href="#DejaVuSans-30"/>
    </g>
   </g>
   <g id="text_46">
    <!-- 69 -->
    <g transform="translate(1087.825091 654.264313)scale(0.1 -0.1)">
     <use xlink:href="#DejaVuSans-36"/>
     <use x="63.623047" xlink:href="#DejaVuSans-39"/>
    </g>
   </g>
   <g id="text_47">
    <!-- 69 -->
    <g transform="translate(1201.392067 653.931072)scale(0.1 -0.1)">
     <use xlink:href="#DejaVuSans-36"/>
     <use x="63.623047" xlink:href="#DejaVuSans-39"/>
    </g>
   </g>
   <g id="text_48">
    <!-- 70 -->
    <g transform="translate(1314.959043 653.431211)scale(0.1 -0.1)">
     <use xlink:href="#DejaVuSans-37"/>
     <use x="63.623047" xlink:href="#DejaVuSans-30"/>
    </g>
   </g>
   <g id="text_49">
    <!-- 191 -->
    <g transform="translate(292.85626 500.640179)scale(0.1 -0.1)">
     <use xlink:href="#DejaVuSans-31"/>
     <use x="63.623047" xlink:href="#DejaVuSans-39"/>
     <use x="127.246094" xlink:href="#DejaVuSans-31"/>
    </g>
   </g>
   <g id="text_50">
    <!-- 192 -->
    <g transform="translate(406.423236 500.8068)scale(0.1 -0.1)">
     <use xlink:href="#DejaVuSans-31"/>
     <use x="63.623047" xlink:href="#DejaVuSans-39"/>
     <use x="127.246094" xlink:href="#DejaVuSans-32"/>
    </g>
   </g>
   <g id="text_51">
    <!-- 193 -->
    <g transform="translate(519.990212 499.973697)scale(0.1 -0.1)">
     <use xlink:href="#DejaVuSans-31"/>
     <use x="63.623047" xlink:href="#DejaVuSans-39"/>
     <use x="127.246094" xlink:href="#DejaVuSans-33"/>
    </g>
   </g>
   <g id="text_52">
    <!-- 190 -->
    <g transform="translate(633.557187 500.8068)scale(0.1 -0.1)">
     <use xlink:href="#DejaVuSans-31"/>
     <use x="63.623047" xlink:href="#DejaVuSans-39"/>
     <use x="127.246094" xlink:href="#DejaVuSans-30"/>
    </g>
   </g>
   <g id="text_53">
    <!-- 193 -->
    <g transform="translate(747.124163 500.973421)scale(0.1 -0.1)">
     <use xlink:href="#DejaVuSans-31"/>
     <use x="63.623047" xlink:href="#DejaVuSans-39"/>
     <use x="127.246094" xlink:href="#DejaVuSans-33"/>
    </g>
   </g>
   <g id="text_54">
    <!-- 83 -->
    <g transform="translate(860.691139 628.604751)scale(0.1 -0.1)">
     <defs>
      <path d="M 2034 2216 
Q 1584 2216 1326 1975 
Q 1069 1734 1069 1313 
Q 1069 891 1326 650 
Q 1584 409 2034 409 
Q 2484 409 2743 651 
Q 3003 894 3003 1313 
Q 3003 1734 2745 1975 
Q 2488 2216 2034 2216 
z
M 1403 2484 
Q 997 2584 770 2862 
Q 544 3141 544 3541 
Q 544 4100 942 4425 
Q 1341 4750 2034 4750 
Q 2731 4750 3128 4425 
Q 3525 4100 3525 3541 
Q 3525 3141 3298 2862 
Q 3072 2584 2669 2484 
Q 3125 2378 3379 2068 
Q 3634 1759 3634 1313 
Q 3634 634 3220 271 
Q 2806 -91 2034 -91 
Q 1263 -91 848 271 
Q 434 634 434 1313 
Q 434 1759 690 2068 
Q 947 2378 1403 2484 
z
M 1172 3481 
Q 1172 3119 1398 2916 
Q 1625 2713 2034 2713 
Q 2441 2713 2670 2916 
Q 2900 3119 2900 3481 
Q 2900 3844 2670 4047 
Q 2441 4250 2034 4250 
Q 1625 4250 1398 4047 
Q 1172 3844 1172 3481 
z
" id="DejaVuSans-38" transform="scale(0.015625)"/>
     </defs>
     <use xlink:href="#DejaVuSans-38"/>
     <use x="63.623047" xlink:href="#DejaVuSans-33"/>
    </g>
   </g>
   <g id="text_55">
    <!-- 82 -->
    <g transform="translate(974.258115 628.43813)scale(0.1 -0.1)">
     <use xlink:href="#DejaVuSans-38"/>
     <use x="63.623047" xlink:href="#DejaVuSans-32"/>
    </g>
   </g>
   <g id="text_56">
    <!-- 81 -->
    <g transform="translate(1087.825091 629.271233)scale(0.1 -0.1)">
     <use xlink:href="#DejaVuSans-38"/>
     <use x="63.623047" xlink:href="#DejaVuSans-31"/>
    </g>
   </g>
   <g id="text_57">
    <!-- 84 -->
    <g transform="translate(1201.392067 628.43813)scale(0.1 -0.1)">
     <use xlink:href="#DejaVuSans-38"/>
     <use x="63.623047" xlink:href="#DejaVuSans-34"/>
    </g>
   </g>
   <g id="text_58">
    <!-- 81 -->
    <g transform="translate(1314.959043 628.27151)scale(0.1 -0.1)">
     <use xlink:href="#DejaVuSans-38"/>
     <use x="63.623047" xlink:href="#DejaVuSans-31"/>
    </g>
   </g>
   <g id="text_59">
    <!-- 195 -->
    <g transform="translate(292.85626 436.324653)scale(0.1 -0.1)">
     <use xlink:href="#DejaVuSans-31"/>
     <use x="63.623047" xlink:href="#DejaVuSans-39"/>
     <use x="127.246094" xlink:href="#DejaVuSans-35"/>
    </g>
   </g>
   <g id="text_60">
    <!-- 196 -->
    <g transform="translate(406.423236 436.158032)scale(0.1 -0.1)">
     <use xlink:href="#DejaVuSans-31"/>
     <use x="63.623047" xlink:href="#DejaVuSans-39"/>
     <use x="127.246094" xlink:href="#DejaVuSans-36"/>
    </g>
   </g>
   <g id="text_61">
    <!-- 195 -->
    <g transform="translate(519.990212 435.324929)scale(0.1 -0.1)">
     <use xlink:href="#DejaVuSans-31"/>
     <use x="63.623047" xlink:href="#DejaVuSans-39"/>
     <use x="127.246094" xlink:href="#DejaVuSans-35"/>
    </g>
   </g>
   <g id="text_62">
    <!-- 195 -->
    <g transform="translate(633.557187 436.657894)scale(0.1 -0.1)">
     <use xlink:href="#DejaVuSans-31"/>
     <use x="63.623047" xlink:href="#DejaVuSans-39"/>
     <use x="127.246094" xlink:href="#DejaVuSans-35"/>
    </g>
   </g>
   <g id="text_63">
    <!-- 195 -->
    <g transform="translate(747.124163 436.324653)scale(0.1 -0.1)">
     <use xlink:href="#DejaVuSans-31"/>
     <use x="63.623047" xlink:href="#DejaVuSans-39"/>
     <use x="127.246094" xlink:href="#DejaVuSans-35"/>
    </g>
   </g>
   <g id="text_64">
    <!-- 84 -->
    <g transform="translate(860.691139 600.779121)scale(0.1 -0.1)">
     <use xlink:href="#DejaVuSans-38"/>
     <use x="63.623047" xlink:href="#DejaVuSans-34"/>
    </g>
   </g>
   <g id="text_65">
    <!-- 83 -->
    <g transform="translate(974.258115 600.945742)scale(0.1 -0.1)">
     <use xlink:href="#DejaVuSans-38"/>
     <use x="63.623047" xlink:href="#DejaVuSans-33"/>
    </g>
   </g>
   <g id="text_66">
    <!-- 84 -->
    <g transform="translate(1087.825091 601.778845)scale(0.1 -0.1)">
     <use xlink:href="#DejaVuSans-38"/>
     <use x="63.623047" xlink:href="#DejaVuSans-34"/>
    </g>
   </g>
   <g id="text_67">
    <!-- 84 -->
    <g transform="translate(1201.392067 600.44588)scale(0.1 -0.1)">
     <use xlink:href="#DejaVuSans-38"/>
     <use x="63.623047" xlink:href="#DejaVuSans-34"/>
    </g>
   </g>
   <g id="text_68">
    <!-- 84 -->
    <g transform="translate(1314.959043 600.779121)scale(0.1 -0.1)">
     <use xlink:href="#DejaVuSans-38"/>
     <use x="63.623047" xlink:href="#DejaVuSans-34"/>
    </g>
   </g>
   <g id="text_69">
    <!-- 164 -->
    <g transform="translate(292.85626 376.50788)scale(0.1 -0.1)">
     <use xlink:href="#DejaVuSans-31"/>
     <use x="63.623047" xlink:href="#DejaVuSans-36"/>
     <use x="127.246094" xlink:href="#DejaVuSans-34"/>
    </g>
   </g>
   <g id="text_70">
    <!-- 163 -->
    <g transform="translate(406.423236 376.34126)scale(0.1 -0.1)">
     <use xlink:href="#DejaVuSans-31"/>
     <use x="63.623047" xlink:href="#DejaVuSans-36"/>
     <use x="127.246094" xlink:href="#DejaVuSans-33"/>
    </g>
   </g>
   <g id="text_71">
    <!-- 165 -->
    <g transform="translate(519.990212 375.341537)scale(0.1 -0.1)">
     <use xlink:href="#DejaVuSans-31"/>
     <use x="63.623047" xlink:href="#DejaVuSans-36"/>
     <use x="127.246094" xlink:href="#DejaVuSans-35"/>
    </g>
   </g>
   <g id="text_72">
    <!-- 163 -->
    <g transform="translate(633.557187 377.007742)scale(0.1 -0.1)">
     <use xlink:href="#DejaVuSans-31"/>
     <use x="63.623047" xlink:href="#DejaVuSans-36"/>
     <use x="127.246094" xlink:href="#DejaVuSans-33"/>
    </g>
   </g>
   <g id="text_73">
    <!-- 165 -->
    <g transform="translate(747.124163 376.34126)scale(0.1 -0.1)">
     <use xlink:href="#DejaVuSans-31"/>
     <use x="63.623047" xlink:href="#DejaVuSans-36"/>
     <use x="127.246094" xlink:href="#DejaVuSans-35"/>
    </g>
   </g>
   <g id="text_74">
    <!-- 70 -->
    <g transform="translate(860.691139 575.119559)scale(0.1 -0.1)">
     <use xlink:href="#DejaVuSans-37"/>
     <use x="63.623047" xlink:href="#DejaVuSans-30"/>
    </g>
   </g>
   <g id="text_75">
    <!-- 71 -->
    <g transform="translate(974.258115 575.286179)scale(0.1 -0.1)">
     <use xlink:href="#DejaVuSans-37"/>
     <use x="63.623047" xlink:href="#DejaVuSans-31"/>
    </g>
   </g>
   <g id="text_76">
    <!-- 69 -->
    <g transform="translate(1087.825091 576.285903)scale(0.1 -0.1)">
     <use xlink:href="#DejaVuSans-36"/>
     <use x="63.623047" xlink:href="#DejaVuSans-39"/>
    </g>
   </g>
   <g id="text_77">
    <!-- 71 -->
    <g transform="translate(1201.392067 574.619697)scale(0.1 -0.1)">
     <use xlink:href="#DejaVuSans-37"/>
     <use x="63.623047" xlink:href="#DejaVuSans-31"/>
    </g>
   </g>
   <g id="text_78">
    <!-- 69 -->
    <g transform="translate(1314.959043 575.286179)scale(0.1 -0.1)">
     <use xlink:href="#DejaVuSans-36"/>
     <use x="63.623047" xlink:href="#DejaVuSans-39"/>
    </g>
   </g>
   <g id="text_79">
    <!-- 164 -->
    <g transform="translate(292.85626 321.856345)scale(0.1 -0.1)">
     <use xlink:href="#DejaVuSans-31"/>
     <use x="63.623047" xlink:href="#DejaVuSans-36"/>
     <use x="127.246094" xlink:href="#DejaVuSans-34"/>
    </g>
   </g>
   <g id="text_80">
    <!-- 164 -->
    <g transform="translate(406.423236 321.856345)scale(0.1 -0.1)">
     <use xlink:href="#DejaVuSans-31"/>
     <use x="63.623047" xlink:href="#DejaVuSans-36"/>
     <use x="127.246094" xlink:href="#DejaVuSans-34"/>
    </g>
   </g>
   <g id="text_81">
    <!-- 162 -->
    <g transform="translate(519.990212 320.856621)scale(0.1 -0.1)">
     <use xlink:href="#DejaVuSans-31"/>
     <use x="63.623047" xlink:href="#DejaVuSans-36"/>
     <use x="127.246094" xlink:href="#DejaVuSans-32"/>
    </g>
   </g>
   <g id="text_82">
    <!-- 165 -->
    <g transform="translate(633.557187 322.356206)scale(0.1 -0.1)">
     <use xlink:href="#DejaVuSans-31"/>
     <use x="63.623047" xlink:href="#DejaVuSans-36"/>
     <use x="127.246094" xlink:href="#DejaVuSans-35"/>
    </g>
   </g>
   <g id="text_83">
    <!-- 163 -->
    <g transform="translate(747.124163 321.689724)scale(0.1 -0.1)">
     <use xlink:href="#DejaVuSans-31"/>
     <use x="63.623047" xlink:href="#DejaVuSans-36"/>
     <use x="127.246094" xlink:href="#DejaVuSans-33"/>
    </g>
   </g>
   <g id="text_84">
    <!-- 70 -->
    <g transform="translate(860.691139 551.792684)scale(0.1 -0.1)">
     <use xlink:href="#DejaVuSans-37"/>
     <use x="63.623047" xlink:href="#DejaVuSans-30"/>
    </g>
   </g>
   <g id="text_85">
    <!-- 70 -->
    <g transform="translate(974.258115 551.792684)scale(0.1 -0.1)">
     <use xlink:href="#DejaVuSans-37"/>
     <use x="63.623047" xlink:href="#DejaVuSans-30"/>
    </g>
   </g>
   <g id="text_86">
    <!-- 72 -->
    <g transform="translate(1087.825091 552.792407)scale(0.1 -0.1)">
     <use xlink:href="#DejaVuSans-37"/>
     <use x="63.623047" xlink:href="#DejaVuSans-32"/>
    </g>
   </g>
   <g id="text_87">
    <!-- 69 -->
    <g transform="translate(1201.392067 551.292822)scale(0.1 -0.1)">
     <use xlink:href="#DejaVuSans-36"/>
     <use x="63.623047" xlink:href="#DejaVuSans-39"/>
    </g>
   </g>
   <g id="text_88">
    <!-- 71 -->
    <g transform="translate(1314.959043 551.959304)scale(0.1 -0.1)">
     <use xlink:href="#DejaVuSans-37"/>
     <use x="63.623047" xlink:href="#DejaVuSans-31"/>
    </g>
   </g>
   <g id="text_89">
    <!-- 160 -->
    <g transform="translate(292.85626 267.871291)scale(0.1 -0.1)">
     <use xlink:href="#DejaVuSans-31"/>
     <use x="63.623047" xlink:href="#DejaVuSans-36"/>
     <use x="127.246094" xlink:href="#DejaVuSans-30"/>
    </g>
   </g>
   <g id="text_90">
    <!-- 160 -->
    <g transform="translate(406.423236 267.871291)scale(0.1 -0.1)">
     <use xlink:href="#DejaVuSans-31"/>
     <use x="63.623047" xlink:href="#DejaVuSans-36"/>
     <use x="127.246094" xlink:href="#DejaVuSans-30"/>
    </g>
   </g>
   <g id="text_91">
    <!-- 160 -->
    <g transform="translate(519.990212 267.204809)scale(0.1 -0.1)">
     <use xlink:href="#DejaVuSans-31"/>
     <use x="63.623047" xlink:href="#DejaVuSans-36"/>
     <use x="127.246094" xlink:href="#DejaVuSans-30"/>
    </g>
   </g>
   <g id="text_92">
    <!-- 160 -->
    <g transform="translate(633.557187 268.204532)scale(0.1 -0.1)">
     <use xlink:href="#DejaVuSans-31"/>
     <use x="63.623047" xlink:href="#DejaVuSans-36"/>
     <use x="127.246094" xlink:href="#DejaVuSans-30"/>
    </g>
   </g>
   <g id="text_93">
    <!-- 161 -->
    <g transform="translate(747.124163 267.704671)scale(0.1 -0.1)">
     <use xlink:href="#DejaVuSans-31"/>
     <use x="63.623047" xlink:href="#DejaVuSans-36"/>
     <use x="127.246094" xlink:href="#DejaVuSans-31"/>
    </g>
   </g>
   <g id="text_94">
    <!-- 69 -->
    <g transform="translate(860.691139 528.632429)scale(0.1 -0.1)">
     <use xlink:href="#DejaVuSans-36"/>
     <use x="63.623047" xlink:href="#DejaVuSans-39"/>
    </g>
   </g>
   <g id="text_95">
    <!-- 69 -->
    <g transform="translate(974.258115 528.632429)scale(0.1 -0.1)">
     <use xlink:href="#DejaVuSans-36"/>
     <use x="63.623047" xlink:href="#DejaVuSans-39"/>
    </g>
   </g>
   <g id="text_96">
    <!-- 69 -->
    <g transform="translate(1087.825091 529.298912)scale(0.1 -0.1)">
     <use xlink:href="#DejaVuSans-36"/>
     <use x="63.623047" xlink:href="#DejaVuSans-39"/>
    </g>
   </g>
   <g id="text_97">
    <!-- 69 -->
    <g transform="translate(1201.392067 528.299188)scale(0.1 -0.1)">
     <use xlink:href="#DejaVuSans-36"/>
     <use x="63.623047" xlink:href="#DejaVuSans-39"/>
    </g>
   </g>
   <g id="text_98">
    <!-- 68 -->
    <g transform="translate(1314.959043 528.79905)scale(0.1 -0.1)">
     <use xlink:href="#DejaVuSans-36"/>
     <use x="63.623047" xlink:href="#DejaVuSans-38"/>
    </g>
   </g>
   <g id="text_99">
    <!-- 156 -->
    <g transform="translate(292.85626 215.219202)scale(0.1 -0.1)">
     <use xlink:href="#DejaVuSans-31"/>
     <use x="63.623047" xlink:href="#DejaVuSans-35"/>
     <use x="127.246094" xlink:href="#DejaVuSans-36"/>
    </g>
   </g>
   <g id="text_100">
    <!-- 158 -->
    <g transform="translate(406.423236 214.885961)scale(0.1 -0.1)">
     <use xlink:href="#DejaVuSans-31"/>
     <use x="63.623047" xlink:href="#DejaVuSans-35"/>
     <use x="127.246094" xlink:href="#DejaVuSans-38"/>
    </g>
   </g>
   <g id="text_101">
    <!-- 157 -->
    <g transform="translate(519.990212 214.386099)scale(0.1 -0.1)">
     <use xlink:href="#DejaVuSans-31"/>
     <use x="63.623047" xlink:href="#DejaVuSans-35"/>
     <use x="127.246094" xlink:href="#DejaVuSans-37"/>
    </g>
   </g>
   <g id="text_102">
    <!-- 157 -->
    <g transform="translate(633.557187 215.385822)scale(0.1 -0.1)">
     <use xlink:href="#DejaVuSans-31"/>
     <use x="63.623047" xlink:href="#DejaVuSans-35"/>
     <use x="127.246094" xlink:href="#DejaVuSans-37"/>
    </g>
   </g>
   <g id="text_103">
    <!-- 157 -->
    <g transform="translate(747.124163 214.71934)scale(0.1 -0.1)">
     <use xlink:href="#DejaVuSans-31"/>
     <use x="63.623047" xlink:href="#DejaVuSans-35"/>
     <use x="127.246094" xlink:href="#DejaVuSans-37"/>
    </g>
   </g>
   <g id="text_104">
    <!-- 68 -->
    <g transform="translate(860.691139 505.805416)scale(0.1 -0.1)">
     <use xlink:href="#DejaVuSans-36"/>
     <use x="63.623047" xlink:href="#DejaVuSans-38"/>
    </g>
   </g>
   <g id="text_105">
    <!-- 66 -->
    <g transform="translate(974.258115 506.138657)scale(0.1 -0.1)">
     <use xlink:href="#DejaVuSans-36"/>
     <use x="63.623047" xlink:href="#DejaVuSans-36"/>
    </g>
   </g>
   <g id="text_106">
    <!-- 67 -->
    <g transform="translate(1087.825091 506.638519)scale(0.1 -0.1)">
     <use xlink:href="#DejaVuSans-36"/>
     <use x="63.623047" xlink:href="#DejaVuSans-37"/>
    </g>
   </g>
   <g id="text_107">
    <!-- 67 -->
    <g transform="translate(1201.392067 505.638796)scale(0.1 -0.1)">
     <use xlink:href="#DejaVuSans-36"/>
     <use x="63.623047" xlink:href="#DejaVuSans-37"/>
    </g>
   </g>
   <g id="text_108">
    <!-- 67 -->
    <g transform="translate(1314.959043 506.305278)scale(0.1 -0.1)">
     <use xlink:href="#DejaVuSans-36"/>
     <use x="63.623047" xlink:href="#DejaVuSans-37"/>
    </g>
   </g>
   <g id="text_109">
    <!-- 180 -->
    <g transform="translate(292.85626 159.234702)scale(0.1 -0.1)">
     <use xlink:href="#DejaVuSans-31"/>
     <use x="63.623047" xlink:href="#DejaVuSans-38"/>
     <use x="127.246094" xlink:href="#DejaVuSans-30"/>
    </g>
   </g>
   <g id="text_110">
    <!-- 179 -->
    <g transform="translate(406.423236 158.73484)scale(0.1 -0.1)">
     <use xlink:href="#DejaVuSans-31"/>
     <use x="63.623047" xlink:href="#DejaVuSans-37"/>
     <use x="127.246094" xlink:href="#DejaVuSans-39"/>
    </g>
   </g>
   <g id="text_111">
    <!-- 182 -->
    <g transform="translate(519.990212 157.901737)scale(0.1 -0.1)">
     <use xlink:href="#DejaVuSans-31"/>
     <use x="63.623047" xlink:href="#DejaVuSans-38"/>
     <use x="127.246094" xlink:href="#DejaVuSans-32"/>
    </g>
   </g>
   <g id="text_112">
    <!-- 179 -->
    <g transform="translate(633.557187 159.401322)scale(0.1 -0.1)">
     <use xlink:href="#DejaVuSans-31"/>
     <use x="63.623047" xlink:href="#DejaVuSans-37"/>
     <use x="127.246094" xlink:href="#DejaVuSans-39"/>
    </g>
   </g>
   <g id="text_113">
    <!-- 180 -->
    <g transform="translate(747.124163 158.56822)scale(0.1 -0.1)">
     <use xlink:href="#DejaVuSans-31"/>
     <use x="63.623047" xlink:href="#DejaVuSans-38"/>
     <use x="127.246094" xlink:href="#DejaVuSans-30"/>
    </g>
   </g>
   <g id="text_114">
    <!-- 77 -->
    <g transform="translate(860.691139 481.645438)scale(0.1 -0.1)">
     <use xlink:href="#DejaVuSans-37"/>
     <use x="63.623047" xlink:href="#DejaVuSans-37"/>
    </g>
   </g>
   <g id="text_115">
    <!-- 78 -->
    <g transform="translate(974.258115 482.1453)scale(0.1 -0.1)">
     <use xlink:href="#DejaVuSans-37"/>
     <use x="63.623047" xlink:href="#DejaVuSans-38"/>
    </g>
   </g>
   <g id="text_116">
    <!-- 75 -->
    <g transform="translate(1087.825091 482.978403)scale(0.1 -0.1)">
     <use xlink:href="#DejaVuSans-37"/>
     <use x="63.623047" xlink:href="#DejaVuSans-35"/>
    </g>
   </g>
   <g id="text_117">
    <!-- 78 -->
    <g transform="translate(1201.392067 481.478818)scale(0.1 -0.1)">
     <use xlink:href="#DejaVuSans-37"/>
     <use x="63.623047" xlink:href="#DejaVuSans-38"/>
    </g>
   </g>
   <g id="text_118">
    <!-- 77 -->
    <g transform="translate(1314.959043 482.311921)scale(0.1 -0.1)">
     <use xlink:href="#DejaVuSans-37"/>
     <use x="63.623047" xlink:href="#DejaVuSans-37"/>
    </g>
   </g>
   <g id="text_119">
    <!-- 1787 -->
    <g transform="translate(292.85626 117.332969)scale(0.1 -0.1)">
     <defs>
      <path d="M 750 831 
L 1813 831 
L 1813 3847 
L 722 3622 
L 722 4441 
L 1806 4666 
L 2950 4666 
L 2950 831 
L 4013 831 
L 4013 0 
L 750 0 
L 750 831 
z
" id="DejaVuSans-Bold-31" transform="scale(0.015625)"/>
      <path d="M 428 4666 
L 3944 4666 
L 3944 3988 
L 2125 0 
L 953 0 
L 2675 3781 
L 428 3781 
L 428 4666 
z
" id="DejaVuSans-Bold-37" transform="scale(0.015625)"/>
      <path d="M 2228 2088 
Q 1891 2088 1709 1903 
Q 1528 1719 1528 1375 
Q 1528 1031 1709 848 
Q 1891 666 2228 666 
Q 2563 666 2741 848 
Q 2919 1031 2919 1375 
Q 2919 1722 2741 1905 
Q 2563 2088 2228 2088 
z
M 1350 2484 
Q 925 2613 709 2878 
Q 494 3144 494 3541 
Q 494 4131 934 4440 
Q 1375 4750 2228 4750 
Q 3075 4750 3515 4442 
Q 3956 4134 3956 3541 
Q 3956 3144 3739 2878 
Q 3522 2613 3097 2484 
Q 3572 2353 3814 2058 
Q 4056 1763 4056 1313 
Q 4056 619 3595 264 
Q 3134 -91 2228 -91 
Q 1319 -91 855 264 
Q 391 619 391 1313 
Q 391 1763 633 2058 
Q 875 2353 1350 2484 
z
M 1631 3419 
Q 1631 3141 1786 2991 
Q 1941 2841 2228 2841 
Q 2509 2841 2662 2991 
Q 2816 3141 2816 3419 
Q 2816 3697 2662 3845 
Q 2509 3994 2228 3994 
Q 1941 3994 1786 3844 
Q 1631 3694 1631 3419 
z
" id="DejaVuSans-Bold-38" transform="scale(0.015625)"/>
     </defs>
     <use xlink:href="#DejaVuSans-Bold-31"/>
     <use x="69.580078" xlink:href="#DejaVuSans-Bold-37"/>
     <use x="139.160156" xlink:href="#DejaVuSans-Bold-38"/>
     <use x="208.740234" xlink:href="#DejaVuSans-Bold-37"/>
    </g>
   </g>
   <g id="text_120">
    <!-- 1788 -->
    <g transform="translate(406.423236 116.993064)scale(0.1 -0.1)">
     <use xlink:href="#DejaVuSans-Bold-31"/>
     <use x="69.580078" xlink:href="#DejaVuSans-Bold-37"/>
     <use x="139.160156" xlink:href="#DejaVuSans-Bold-38"/>
     <use x="208.740234" xlink:href="#DejaVuSans-Bold-38"/>
    </g>
   </g>
   <g id="text_121">
    <!-- 1792 -->
    <g transform="translate(519.990212 115.63344)scale(0.1 -0.1)">
     <defs>
      <path d="M 641 103 
L 641 966 
Q 928 831 1190 764 
Q 1453 697 1709 697 
Q 2247 697 2547 995 
Q 2847 1294 2900 1881 
Q 2688 1725 2447 1647 
Q 2206 1569 1925 1569 
Q 1209 1569 770 1986 
Q 331 2403 331 3084 
Q 331 3838 820 4291 
Q 1309 4744 2131 4744 
Q 3044 4744 3544 4128 
Q 4044 3513 4044 2388 
Q 4044 1231 3459 570 
Q 2875 -91 1856 -91 
Q 1528 -91 1228 -42 
Q 928 6 641 103 
z
M 2125 2350 
Q 2441 2350 2600 2554 
Q 2759 2759 2759 3169 
Q 2759 3575 2600 3781 
Q 2441 3988 2125 3988 
Q 1809 3988 1650 3781 
Q 1491 3575 1491 3169 
Q 1491 2759 1650 2554 
Q 1809 2350 2125 2350 
z
" id="DejaVuSans-Bold-39" transform="scale(0.015625)"/>
      <path d="M 1844 884 
L 3897 884 
L 3897 0 
L 506 0 
L 506 884 
L 2209 2388 
Q 2438 2594 2547 2791 
Q 2656 2988 2656 3200 
Q 2656 3528 2436 3728 
Q 2216 3928 1850 3928 
Q 1569 3928 1234 3808 
Q 900 3688 519 3450 
L 519 4475 
Q 925 4609 1322 4679 
Q 1719 4750 2100 4750 
Q 2938 4750 3402 4381 
Q 3866 4013 3866 3353 
Q 3866 2972 3669 2642 
Q 3472 2313 2841 1759 
L 1844 884 
z
" id="DejaVuSans-Bold-32" transform="scale(0.015625)"/>
     </defs>
     <use xlink:href="#DejaVuSans-Bold-31"/>
     <use x="69.580078" xlink:href="#DejaVuSans-Bold-37"/>
     <use x="139.160156" xlink:href="#DejaVuSans-Bold-39"/>
     <use x="208.740234" xlink:href="#DejaVuSans-Bold-32"/>
    </g>
   </g>
   <g id="text_122">
    <!-- 1786 -->
    <g transform="translate(633.557187 117.672875)scale(0.1 -0.1)">
     <defs>
      <path d="M 2316 2303 
Q 2000 2303 1842 2098 
Q 1684 1894 1684 1484 
Q 1684 1075 1842 870 
Q 2000 666 2316 666 
Q 2634 666 2792 870 
Q 2950 1075 2950 1484 
Q 2950 1894 2792 2098 
Q 2634 2303 2316 2303 
z
M 3803 4544 
L 3803 3681 
Q 3506 3822 3243 3889 
Q 2981 3956 2731 3956 
Q 2194 3956 1894 3657 
Q 1594 3359 1544 2772 
Q 1750 2925 1990 3001 
Q 2231 3078 2516 3078 
Q 3231 3078 3670 2659 
Q 4109 2241 4109 1563 
Q 4109 813 3618 361 
Q 3128 -91 2303 -91 
Q 1394 -91 895 523 
Q 397 1138 397 2266 
Q 397 3422 980 4083 
Q 1563 4744 2578 4744 
Q 2900 4744 3203 4694 
Q 3506 4644 3803 4544 
z
" id="DejaVuSans-Bold-36" transform="scale(0.015625)"/>
     </defs>
     <use xlink:href="#DejaVuSans-Bold-31"/>
     <use x="69.580078" xlink:href="#DejaVuSans-Bold-37"/>
     <use x="139.160156" xlink:href="#DejaVuSans-Bold-38"/>
     <use x="208.740234" xlink:href="#DejaVuSans-Bold-36"/>
    </g>
   </g>
   <g id="text_123">
    <!-- 1789 -->
    <g transform="translate(747.124163 116.653158)scale(0.1 -0.1)">
     <use xlink:href="#DejaVuSans-Bold-31"/>
     <use x="69.580078" xlink:href="#DejaVuSans-Bold-37"/>
     <use x="139.160156" xlink:href="#DejaVuSans-Bold-38"/>
     <use x="208.740234" xlink:href="#DejaVuSans-Bold-39"/>
    </g>
   </g>
   <g id="text_124">
    <!-- 768 -->
    <g transform="translate(860.691139 463.697074)scale(0.1 -0.1)">
     <use xlink:href="#DejaVuSans-Bold-37"/>
     <use x="69.580078" xlink:href="#DejaVuSans-Bold-36"/>
     <use x="139.160156" xlink:href="#DejaVuSans-Bold-38"/>
    </g>
   </g>
   <g id="text_125">
    <!-- 767 -->
    <g transform="translate(974.258115 464.03698)scale(0.1 -0.1)">
     <use xlink:href="#DejaVuSans-Bold-37"/>
     <use x="69.580078" xlink:href="#DejaVuSans-Bold-36"/>
     <use x="139.160156" xlink:href="#DejaVuSans-Bold-37"/>
    </g>
   </g>
   <g id="text_126">
    <!-- 763 -->
    <g transform="translate(1087.825091 465.396604)scale(0.1 -0.1)">
     <defs>
      <path d="M 2981 2516 
Q 3453 2394 3698 2092 
Q 3944 1791 3944 1325 
Q 3944 631 3412 270 
Q 2881 -91 1863 -91 
Q 1503 -91 1142 -33 
Q 781 25 428 141 
L 428 1069 
Q 766 900 1098 814 
Q 1431 728 1753 728 
Q 2231 728 2486 893 
Q 2741 1059 2741 1369 
Q 2741 1688 2480 1852 
Q 2219 2016 1709 2016 
L 1228 2016 
L 1228 2791 
L 1734 2791 
Q 2188 2791 2409 2933 
Q 2631 3075 2631 3366 
Q 2631 3634 2415 3781 
Q 2200 3928 1806 3928 
Q 1516 3928 1219 3862 
Q 922 3797 628 3669 
L 628 4550 
Q 984 4650 1334 4700 
Q 1684 4750 2022 4750 
Q 2931 4750 3382 4451 
Q 3834 4153 3834 3553 
Q 3834 3144 3618 2883 
Q 3403 2622 2981 2516 
z
" id="DejaVuSans-Bold-33" transform="scale(0.015625)"/>
     </defs>
     <use xlink:href="#DejaVuSans-Bold-37"/>
     <use x="69.580078" xlink:href="#DejaVuSans-Bold-36"/>
     <use x="139.160156" xlink:href="#DejaVuSans-Bold-33"/>
    </g>
   </g>
   <g id="text_127">
    <!-- 769 -->
    <g transform="translate(1201.392067 463.357168)scale(0.1 -0.1)">
     <use xlink:href="#DejaVuSans-Bold-37"/>
     <use x="69.580078" xlink:href="#DejaVuSans-Bold-36"/>
     <use x="139.160156" xlink:href="#DejaVuSans-Bold-39"/>
    </g>
   </g>
   <g id="text_128">
    <!-- 766 -->
    <g transform="translate(1314.959043 464.376886)scale(0.1 -0.1)">
     <use xlink:href="#DejaVuSans-Bold-37"/>
     <use x="69.580078" xlink:href="#DejaVuSans-Bold-36"/>
     <use x="139.160156" xlink:href="#DejaVuSans-Bold-36"/>
    </g>
   </g>
   <g id="text_129">
    <!-- pawara-tropic10 -->
    <g transform="translate(760.443188 91.7184)scale(0.12 -0.12)">
     <defs>
      <path d="M 269 3500 
L 844 3500 
L 1563 769 
L 2278 3500 
L 2956 3500 
L 3675 769 
L 4391 3500 
L 4966 3500 
L 4050 0 
L 3372 0 
L 2619 2869 
L 1863 0 
L 1184 0 
L 269 3500 
z
" id="DejaVuSans-77" transform="scale(0.015625)"/>
      <path d="M 313 2009 
L 1997 2009 
L 1997 1497 
L 313 1497 
L 313 2009 
z
" id="DejaVuSans-2d" transform="scale(0.015625)"/>
      <path d="M 1959 3097 
Q 1497 3097 1228 2736 
Q 959 2375 959 1747 
Q 959 1119 1226 758 
Q 1494 397 1959 397 
Q 2419 397 2687 759 
Q 2956 1122 2956 1747 
Q 2956 2369 2687 2733 
Q 2419 3097 1959 3097 
z
M 1959 3584 
Q 2709 3584 3137 3096 
Q 3566 2609 3566 1747 
Q 3566 888 3137 398 
Q 2709 -91 1959 -91 
Q 1206 -91 779 398 
Q 353 888 353 1747 
Q 353 2609 779 3096 
Q 1206 3584 1959 3584 
z
" id="DejaVuSans-6f" transform="scale(0.015625)"/>
      <path d="M 3122 3366 
L 3122 2828 
Q 2878 2963 2633 3030 
Q 2388 3097 2138 3097 
Q 1578 3097 1268 2742 
Q 959 2388 959 1747 
Q 959 1106 1268 751 
Q 1578 397 2138 397 
Q 2388 397 2633 464 
Q 2878 531 3122 666 
L 3122 134 
Q 2881 22 2623 -34 
Q 2366 -91 2075 -91 
Q 1284 -91 818 406 
Q 353 903 353 1747 
Q 353 2603 823 3093 
Q 1294 3584 2113 3584 
Q 2378 3584 2631 3529 
Q 2884 3475 3122 3366 
z
" id="DejaVuSans-63" transform="scale(0.015625)"/>
     </defs>
     <use xlink:href="#DejaVuSans-70"/>
     <use x="63.476562" xlink:href="#DejaVuSans-61"/>
     <use x="124.755859" xlink:href="#DejaVuSans-77"/>
     <use x="206.542969" xlink:href="#DejaVuSans-61"/>
     <use x="267.822266" xlink:href="#DejaVuSans-72"/>
     <use x="308.935547" xlink:href="#DejaVuSans-61"/>
     <use x="370.214844" xlink:href="#DejaVuSans-2d"/>
     <use x="406.298828" xlink:href="#DejaVuSans-74"/>
     <use x="445.507812" xlink:href="#DejaVuSans-72"/>
     <use x="484.371094" xlink:href="#DejaVuSans-6f"/>
     <use x="545.552734" xlink:href="#DejaVuSans-70"/>
     <use x="609.029297" xlink:href="#DejaVuSans-69"/>
     <use x="636.8125" xlink:href="#DejaVuSans-63"/>
     <use x="691.792969" xlink:href="#DejaVuSans-31"/>
     <use x="755.416016" xlink:href="#DejaVuSans-30"/>
    </g>
   </g>
   <g id="legend_1">
    <g id="patch_107">
     <path d="M 1270.227625 255.2809 
L 1414.712 255.2809 
Q 1416.712 255.2809 1416.712 253.2809 
L 1416.712 104.7184 
Q 1416.712 102.7184 1414.712 102.7184 
L 1270.227625 102.7184 
Q 1268.227625 102.7184 1268.227625 104.7184 
L 1268.227625 253.2809 
Q 1268.227625 255.2809 1270.227625 255.2809 
z
" style="fill:#ffffff;opacity:0.8;stroke:#cccccc;stroke-linejoin:miter;"/>
    </g>
    <g id="patch_108">
     <path d="M 1272.227625 114.316837 
L 1292.227625 114.316837 
L 1292.227625 107.316837 
L 1272.227625 107.316837 
z
" style="fill:#1f77b4;"/>
    </g>
    <g id="text_130">
     <!-- 01_Ashoka -->
     <g transform="translate(1300.227625 114.316837)scale(0.1 -0.1)">
      <defs>
       <path d="M 3263 -1063 
L 3263 -1509 
L -63 -1509 
L -63 -1063 
L 3263 -1063 
z
" id="DejaVuSans-5f" transform="scale(0.015625)"/>
       <path d="M 2188 4044 
L 1331 1722 
L 3047 1722 
L 2188 4044 
z
M 1831 4666 
L 2547 4666 
L 4325 0 
L 3669 0 
L 3244 1197 
L 1141 1197 
L 716 0 
L 50 0 
L 1831 4666 
z
" id="DejaVuSans-41" transform="scale(0.015625)"/>
       <path d="M 3513 2113 
L 3513 0 
L 2938 0 
L 2938 2094 
Q 2938 2591 2744 2837 
Q 2550 3084 2163 3084 
Q 1697 3084 1428 2787 
Q 1159 2491 1159 1978 
L 1159 0 
L 581 0 
L 581 4863 
L 1159 4863 
L 1159 2956 
Q 1366 3272 1645 3428 
Q 1925 3584 2291 3584 
Q 2894 3584 3203 3211 
Q 3513 2838 3513 2113 
z
" id="DejaVuSans-68" transform="scale(0.015625)"/>
       <path d="M 581 4863 
L 1159 4863 
L 1159 1991 
L 2875 3500 
L 3609 3500 
L 1753 1863 
L 3688 0 
L 2938 0 
L 1159 1709 
L 1159 0 
L 581 0 
L 581 4863 
z
" id="DejaVuSans-6b" transform="scale(0.015625)"/>
      </defs>
      <use xlink:href="#DejaVuSans-30"/>
      <use x="63.623047" xlink:href="#DejaVuSans-31"/>
      <use x="127.246094" xlink:href="#DejaVuSans-5f"/>
      <use x="177.246094" xlink:href="#DejaVuSans-41"/>
      <use x="245.654297" xlink:href="#DejaVuSans-73"/>
      <use x="297.753906" xlink:href="#DejaVuSans-68"/>
      <use x="361.132812" xlink:href="#DejaVuSans-6f"/>
      <use x="422.314453" xlink:href="#DejaVuSans-6b"/>
      <use x="478.474609" xlink:href="#DejaVuSans-61"/>
     </g>
    </g>
    <g id="patch_109">
     <path d="M 1272.227625 129.273087 
L 1292.227625 129.273087 
L 1292.227625 122.273087 
L 1272.227625 122.273087 
z
" style="fill:#ff7f0e;"/>
    </g>
    <g id="text_131">
     <!-- 02_Hibiscus -->
     <g transform="translate(1300.227625 129.273087)scale(0.1 -0.1)">
      <defs>
       <path d="M 628 4666 
L 1259 4666 
L 1259 2753 
L 3553 2753 
L 3553 4666 
L 4184 4666 
L 4184 0 
L 3553 0 
L 3553 2222 
L 1259 2222 
L 1259 0 
L 628 0 
L 628 4666 
z
" id="DejaVuSans-48" transform="scale(0.015625)"/>
       <path d="M 3116 1747 
Q 3116 2381 2855 2742 
Q 2594 3103 2138 3103 
Q 1681 3103 1420 2742 
Q 1159 2381 1159 1747 
Q 1159 1113 1420 752 
Q 1681 391 2138 391 
Q 2594 391 2855 752 
Q 3116 1113 3116 1747 
z
M 1159 2969 
Q 1341 3281 1617 3432 
Q 1894 3584 2278 3584 
Q 2916 3584 3314 3078 
Q 3713 2572 3713 1747 
Q 3713 922 3314 415 
Q 2916 -91 2278 -91 
Q 1894 -91 1617 61 
Q 1341 213 1159 525 
L 1159 0 
L 581 0 
L 581 4863 
L 1159 4863 
L 1159 2969 
z
" id="DejaVuSans-62" transform="scale(0.015625)"/>
       <path d="M 544 1381 
L 544 3500 
L 1119 3500 
L 1119 1403 
Q 1119 906 1312 657 
Q 1506 409 1894 409 
Q 2359 409 2629 706 
Q 2900 1003 2900 1516 
L 2900 3500 
L 3475 3500 
L 3475 0 
L 2900 0 
L 2900 538 
Q 2691 219 2414 64 
Q 2138 -91 1772 -91 
Q 1169 -91 856 284 
Q 544 659 544 1381 
z
M 1991 3584 
L 1991 3584 
z
" id="DejaVuSans-75" transform="scale(0.015625)"/>
      </defs>
      <use xlink:href="#DejaVuSans-30"/>
      <use x="63.623047" xlink:href="#DejaVuSans-32"/>
      <use x="127.246094" xlink:href="#DejaVuSans-5f"/>
      <use x="177.246094" xlink:href="#DejaVuSans-48"/>
      <use x="252.441406" xlink:href="#DejaVuSans-69"/>
      <use x="280.224609" xlink:href="#DejaVuSans-62"/>
      <use x="343.701172" xlink:href="#DejaVuSans-69"/>
      <use x="371.484375" xlink:href="#DejaVuSans-73"/>
      <use x="423.583984" xlink:href="#DejaVuSans-63"/>
      <use x="478.564453" xlink:href="#DejaVuSans-75"/>
      <use x="541.943359" xlink:href="#DejaVuSans-73"/>
     </g>
    </g>
    <g id="patch_110">
     <path d="M 1272.227625 144.229337 
L 1292.227625 144.229337 
L 1292.227625 137.229337 
L 1272.227625 137.229337 
z
" style="fill:#2ca02c;"/>
    </g>
    <g id="text_132">
     <!-- 03_Lime -->
     <g transform="translate(1300.227625 144.229337)scale(0.1 -0.1)">
      <defs>
       <path d="M 628 4666 
L 1259 4666 
L 1259 531 
L 3531 531 
L 3531 0 
L 628 0 
L 628 4666 
z
" id="DejaVuSans-4c" transform="scale(0.015625)"/>
       <path d="M 3328 2828 
Q 3544 3216 3844 3400 
Q 4144 3584 4550 3584 
Q 5097 3584 5394 3201 
Q 5691 2819 5691 2113 
L 5691 0 
L 5113 0 
L 5113 2094 
Q 5113 2597 4934 2840 
Q 4756 3084 4391 3084 
Q 3944 3084 3684 2787 
Q 3425 2491 3425 1978 
L 3425 0 
L 2847 0 
L 2847 2094 
Q 2847 2600 2669 2842 
Q 2491 3084 2119 3084 
Q 1678 3084 1418 2786 
Q 1159 2488 1159 1978 
L 1159 0 
L 581 0 
L 581 3500 
L 1159 3500 
L 1159 2956 
Q 1356 3278 1631 3431 
Q 1906 3584 2284 3584 
Q 2666 3584 2933 3390 
Q 3200 3197 3328 2828 
z
" id="DejaVuSans-6d" transform="scale(0.015625)"/>
      </defs>
      <use xlink:href="#DejaVuSans-30"/>
      <use x="63.623047" xlink:href="#DejaVuSans-33"/>
      <use x="127.246094" xlink:href="#DejaVuSans-5f"/>
      <use x="177.246094" xlink:href="#DejaVuSans-4c"/>
      <use x="232.958984" xlink:href="#DejaVuSans-69"/>
      <use x="260.742188" xlink:href="#DejaVuSans-6d"/>
      <use x="358.154297" xlink:href="#DejaVuSans-65"/>
     </g>
    </g>
    <g id="patch_111">
     <path d="M 1272.227625 159.185587 
L 1292.227625 159.185587 
L 1292.227625 152.185587 
L 1272.227625 152.185587 
z
" style="fill:#d62728;"/>
    </g>
    <g id="text_133">
     <!-- 04_WestIndianJasmine -->
     <g transform="translate(1300.227625 159.185587)scale(0.1 -0.1)">
      <defs>
       <path d="M 213 4666 
L 850 4666 
L 1831 722 
L 2809 4666 
L 3519 4666 
L 4500 722 
L 5478 4666 
L 6119 4666 
L 4947 0 
L 4153 0 
L 3169 4050 
L 2175 0 
L 1381 0 
L 213 4666 
z
" id="DejaVuSans-57" transform="scale(0.015625)"/>
       <path d="M 628 4666 
L 1259 4666 
L 1259 0 
L 628 0 
L 628 4666 
z
" id="DejaVuSans-49" transform="scale(0.015625)"/>
       <path d="M 2906 2969 
L 2906 4863 
L 3481 4863 
L 3481 0 
L 2906 0 
L 2906 525 
Q 2725 213 2448 61 
Q 2172 -91 1784 -91 
Q 1150 -91 751 415 
Q 353 922 353 1747 
Q 353 2572 751 3078 
Q 1150 3584 1784 3584 
Q 2172 3584 2448 3432 
Q 2725 3281 2906 2969 
z
M 947 1747 
Q 947 1113 1208 752 
Q 1469 391 1925 391 
Q 2381 391 2643 752 
Q 2906 1113 2906 1747 
Q 2906 2381 2643 2742 
Q 2381 3103 1925 3103 
Q 1469 3103 1208 2742 
Q 947 2381 947 1747 
z
" id="DejaVuSans-64" transform="scale(0.015625)"/>
       <path d="M 628 4666 
L 1259 4666 
L 1259 325 
Q 1259 -519 939 -900 
Q 619 -1281 -91 -1281 
L -331 -1281 
L -331 -750 
L -134 -750 
Q 284 -750 456 -515 
Q 628 -281 628 325 
L 628 4666 
z
" id="DejaVuSans-4a" transform="scale(0.015625)"/>
      </defs>
      <use xlink:href="#DejaVuSans-30"/>
      <use x="63.623047" xlink:href="#DejaVuSans-34"/>
      <use x="127.246094" xlink:href="#DejaVuSans-5f"/>
      <use x="177.246094" xlink:href="#DejaVuSans-57"/>
      <use x="270.248047" xlink:href="#DejaVuSans-65"/>
      <use x="331.771484" xlink:href="#DejaVuSans-73"/>
      <use x="383.871094" xlink:href="#DejaVuSans-74"/>
      <use x="423.080078" xlink:href="#DejaVuSans-49"/>
      <use x="452.572266" xlink:href="#DejaVuSans-6e"/>
      <use x="515.951172" xlink:href="#DejaVuSans-64"/>
      <use x="579.427734" xlink:href="#DejaVuSans-69"/>
      <use x="607.210938" xlink:href="#DejaVuSans-61"/>
      <use x="668.490234" xlink:href="#DejaVuSans-6e"/>
      <use x="731.869141" xlink:href="#DejaVuSans-4a"/>
      <use x="761.361328" xlink:href="#DejaVuSans-61"/>
      <use x="822.640625" xlink:href="#DejaVuSans-73"/>
      <use x="874.740234" xlink:href="#DejaVuSans-6d"/>
      <use x="972.152344" xlink:href="#DejaVuSans-69"/>
      <use x="999.935547" xlink:href="#DejaVuSans-6e"/>
      <use x="1063.314453" xlink:href="#DejaVuSans-65"/>
     </g>
    </g>
    <g id="patch_112">
     <path d="M 1272.227625 174.141837 
L 1292.227625 174.141837 
L 1292.227625 167.141837 
L 1272.227625 167.141837 
z
" style="fill:#9467bd;"/>
    </g>
    <g id="text_134">
     <!-- 05_LadyPalm -->
     <g transform="translate(1300.227625 174.141837)scale(0.1 -0.1)">
      <defs>
       <path d="M 2059 -325 
Q 1816 -950 1584 -1140 
Q 1353 -1331 966 -1331 
L 506 -1331 
L 506 -850 
L 844 -850 
Q 1081 -850 1212 -737 
Q 1344 -625 1503 -206 
L 1606 56 
L 191 3500 
L 800 3500 
L 1894 763 
L 2988 3500 
L 3597 3500 
L 2059 -325 
z
" id="DejaVuSans-79" transform="scale(0.015625)"/>
       <path d="M 1259 4147 
L 1259 2394 
L 2053 2394 
Q 2494 2394 2734 2622 
Q 2975 2850 2975 3272 
Q 2975 3691 2734 3919 
Q 2494 4147 2053 4147 
L 1259 4147 
z
M 628 4666 
L 2053 4666 
Q 2838 4666 3239 4311 
Q 3641 3956 3641 3272 
Q 3641 2581 3239 2228 
Q 2838 1875 2053 1875 
L 1259 1875 
L 1259 0 
L 628 0 
L 628 4666 
z
" id="DejaVuSans-50" transform="scale(0.015625)"/>
       <path d="M 603 4863 
L 1178 4863 
L 1178 0 
L 603 0 
L 603 4863 
z
" id="DejaVuSans-6c" transform="scale(0.015625)"/>
      </defs>
      <use xlink:href="#DejaVuSans-30"/>
      <use x="63.623047" xlink:href="#DejaVuSans-35"/>
      <use x="127.246094" xlink:href="#DejaVuSans-5f"/>
      <use x="177.246094" xlink:href="#DejaVuSans-4c"/>
      <use x="232.958984" xlink:href="#DejaVuSans-61"/>
      <use x="294.238281" xlink:href="#DejaVuSans-64"/>
      <use x="357.714844" xlink:href="#DejaVuSans-79"/>
      <use x="416.894531" xlink:href="#DejaVuSans-50"/>
      <use x="472.697266" xlink:href="#DejaVuSans-61"/>
      <use x="533.976562" xlink:href="#DejaVuSans-6c"/>
      <use x="561.759766" xlink:href="#DejaVuSans-6d"/>
     </g>
    </g>
    <g id="patch_113">
     <path d="M 1272.227625 189.098087 
L 1292.227625 189.098087 
L 1292.227625 182.098087 
L 1272.227625 182.098087 
z
" style="fill:#8c564b;"/>
    </g>
    <g id="text_135">
     <!-- 06_UmbrellaTree -->
     <g transform="translate(1300.227625 189.098087)scale(0.1 -0.1)">
      <defs>
       <path d="M 556 4666 
L 1191 4666 
L 1191 1831 
Q 1191 1081 1462 751 
Q 1734 422 2344 422 
Q 2950 422 3222 751 
Q 3494 1081 3494 1831 
L 3494 4666 
L 4128 4666 
L 4128 1753 
Q 4128 841 3676 375 
Q 3225 -91 2344 -91 
Q 1459 -91 1007 375 
Q 556 841 556 1753 
L 556 4666 
z
" id="DejaVuSans-55" transform="scale(0.015625)"/>
       <path d="M -19 4666 
L 3928 4666 
L 3928 4134 
L 2272 4134 
L 2272 0 
L 1638 0 
L 1638 4134 
L -19 4134 
L -19 4666 
z
" id="DejaVuSans-54" transform="scale(0.015625)"/>
      </defs>
      <use xlink:href="#DejaVuSans-30"/>
      <use x="63.623047" xlink:href="#DejaVuSans-36"/>
      <use x="127.246094" xlink:href="#DejaVuSans-5f"/>
      <use x="177.246094" xlink:href="#DejaVuSans-55"/>
      <use x="250.439453" xlink:href="#DejaVuSans-6d"/>
      <use x="347.851562" xlink:href="#DejaVuSans-62"/>
      <use x="411.328125" xlink:href="#DejaVuSans-72"/>
      <use x="450.191406" xlink:href="#DejaVuSans-65"/>
      <use x="511.714844" xlink:href="#DejaVuSans-6c"/>
      <use x="539.498047" xlink:href="#DejaVuSans-6c"/>
      <use x="567.28125" xlink:href="#DejaVuSans-61"/>
      <use x="628.560547" xlink:href="#DejaVuSans-54"/>
      <use x="674.894531" xlink:href="#DejaVuSans-72"/>
      <use x="713.757812" xlink:href="#DejaVuSans-65"/>
      <use x="775.28125" xlink:href="#DejaVuSans-65"/>
     </g>
    </g>
    <g id="patch_114">
     <path d="M 1272.227625 204.054337 
L 1292.227625 204.054337 
L 1292.227625 197.054337 
L 1272.227625 197.054337 
z
" style="fill:#e377c2;"/>
    </g>
    <g id="text_136">
     <!-- 07_Ervatamia -->
     <g transform="translate(1300.227625 204.054337)scale(0.1 -0.1)">
      <defs>
       <path d="M 628 4666 
L 3578 4666 
L 3578 4134 
L 1259 4134 
L 1259 2753 
L 3481 2753 
L 3481 2222 
L 1259 2222 
L 1259 531 
L 3634 531 
L 3634 0 
L 628 0 
L 628 4666 
z
" id="DejaVuSans-45" transform="scale(0.015625)"/>
       <path d="M 191 3500 
L 800 3500 
L 1894 563 
L 2988 3500 
L 3597 3500 
L 2284 0 
L 1503 0 
L 191 3500 
z
" id="DejaVuSans-76" transform="scale(0.015625)"/>
      </defs>
      <use xlink:href="#DejaVuSans-30"/>
      <use x="63.623047" xlink:href="#DejaVuSans-37"/>
      <use x="127.246094" xlink:href="#DejaVuSans-5f"/>
      <use x="177.246094" xlink:href="#DejaVuSans-45"/>
      <use x="240.429688" xlink:href="#DejaVuSans-72"/>
      <use x="281.542969" xlink:href="#DejaVuSans-76"/>
      <use x="340.722656" xlink:href="#DejaVuSans-61"/>
      <use x="402.001953" xlink:href="#DejaVuSans-74"/>
      <use x="441.210938" xlink:href="#DejaVuSans-61"/>
      <use x="502.490234" xlink:href="#DejaVuSans-6d"/>
      <use x="599.902344" xlink:href="#DejaVuSans-69"/>
      <use x="627.685547" xlink:href="#DejaVuSans-61"/>
     </g>
    </g>
    <g id="patch_115">
     <path d="M 1272.227625 219.010587 
L 1292.227625 219.010587 
L 1292.227625 212.010587 
L 1272.227625 212.010587 
z
" style="fill:#7f7f7f;"/>
    </g>
    <g id="text_137">
     <!-- 08_Mango -->
     <g transform="translate(1300.227625 219.010587)scale(0.1 -0.1)">
      <defs>
       <path d="M 628 4666 
L 1569 4666 
L 2759 1491 
L 3956 4666 
L 4897 4666 
L 4897 0 
L 4281 0 
L 4281 4097 
L 3078 897 
L 2444 897 
L 1241 4097 
L 1241 0 
L 628 0 
L 628 4666 
z
" id="DejaVuSans-4d" transform="scale(0.015625)"/>
       <path d="M 2906 1791 
Q 2906 2416 2648 2759 
Q 2391 3103 1925 3103 
Q 1463 3103 1205 2759 
Q 947 2416 947 1791 
Q 947 1169 1205 825 
Q 1463 481 1925 481 
Q 2391 481 2648 825 
Q 2906 1169 2906 1791 
z
M 3481 434 
Q 3481 -459 3084 -895 
Q 2688 -1331 1869 -1331 
Q 1566 -1331 1297 -1286 
Q 1028 -1241 775 -1147 
L 775 -588 
Q 1028 -725 1275 -790 
Q 1522 -856 1778 -856 
Q 2344 -856 2625 -561 
Q 2906 -266 2906 331 
L 2906 616 
Q 2728 306 2450 153 
Q 2172 0 1784 0 
Q 1141 0 747 490 
Q 353 981 353 1791 
Q 353 2603 747 3093 
Q 1141 3584 1784 3584 
Q 2172 3584 2450 3431 
Q 2728 3278 2906 2969 
L 2906 3500 
L 3481 3500 
L 3481 434 
z
" id="DejaVuSans-67" transform="scale(0.015625)"/>
      </defs>
      <use xlink:href="#DejaVuSans-30"/>
      <use x="63.623047" xlink:href="#DejaVuSans-38"/>
      <use x="127.246094" xlink:href="#DejaVuSans-5f"/>
      <use x="177.246094" xlink:href="#DejaVuSans-4d"/>
      <use x="263.525391" xlink:href="#DejaVuSans-61"/>
      <use x="324.804688" xlink:href="#DejaVuSans-6e"/>
      <use x="388.183594" xlink:href="#DejaVuSans-67"/>
      <use x="451.660156" xlink:href="#DejaVuSans-6f"/>
     </g>
    </g>
    <g id="patch_116">
     <path d="M 1272.227625 233.966837 
L 1292.227625 233.966837 
L 1292.227625 226.966837 
L 1272.227625 226.966837 
z
" style="fill:#bcbd22;"/>
    </g>
    <g id="text_138">
     <!-- 09_Acacia -->
     <g transform="translate(1300.227625 233.966837)scale(0.1 -0.1)">
      <use xlink:href="#DejaVuSans-30"/>
      <use x="63.623047" xlink:href="#DejaVuSans-39"/>
      <use x="127.246094" xlink:href="#DejaVuSans-5f"/>
      <use x="177.246094" xlink:href="#DejaVuSans-41"/>
      <use x="243.904297" xlink:href="#DejaVuSans-63"/>
      <use x="298.884766" xlink:href="#DejaVuSans-61"/>
      <use x="360.164062" xlink:href="#DejaVuSans-63"/>
      <use x="415.144531" xlink:href="#DejaVuSans-69"/>
      <use x="442.927734" xlink:href="#DejaVuSans-61"/>
     </g>
    </g>
    <g id="patch_117">
     <path d="M 1272.227625 248.923087 
L 1292.227625 248.923087 
L 1292.227625 241.923087 
L 1272.227625 241.923087 
z
" style="fill:#17becf;"/>
    </g>
    <g id="text_139">
     <!-- 10_Sanchezia -->
     <g transform="translate(1300.227625 248.923087)scale(0.1 -0.1)">
      <defs>
       <path d="M 3425 4513 
L 3425 3897 
Q 3066 4069 2747 4153 
Q 2428 4238 2131 4238 
Q 1616 4238 1336 4038 
Q 1056 3838 1056 3469 
Q 1056 3159 1242 3001 
Q 1428 2844 1947 2747 
L 2328 2669 
Q 3034 2534 3370 2195 
Q 3706 1856 3706 1288 
Q 3706 609 3251 259 
Q 2797 -91 1919 -91 
Q 1588 -91 1214 -16 
Q 841 59 441 206 
L 441 856 
Q 825 641 1194 531 
Q 1563 422 1919 422 
Q 2459 422 2753 634 
Q 3047 847 3047 1241 
Q 3047 1584 2836 1778 
Q 2625 1972 2144 2069 
L 1759 2144 
Q 1053 2284 737 2584 
Q 422 2884 422 3419 
Q 422 4038 858 4394 
Q 1294 4750 2059 4750 
Q 2388 4750 2728 4690 
Q 3069 4631 3425 4513 
z
" id="DejaVuSans-53" transform="scale(0.015625)"/>
       <path d="M 353 3500 
L 3084 3500 
L 3084 2975 
L 922 459 
L 3084 459 
L 3084 0 
L 275 0 
L 275 525 
L 2438 3041 
L 353 3041 
L 353 3500 
z
" id="DejaVuSans-7a" transform="scale(0.015625)"/>
      </defs>
      <use xlink:href="#DejaVuSans-31"/>
      <use x="63.623047" xlink:href="#DejaVuSans-30"/>
      <use x="127.246094" xlink:href="#DejaVuSans-5f"/>
      <use x="177.246094" xlink:href="#DejaVuSans-53"/>
      <use x="240.722656" xlink:href="#DejaVuSans-61"/>
      <use x="302.001953" xlink:href="#DejaVuSans-6e"/>
      <use x="365.380859" xlink:href="#DejaVuSans-63"/>
      <use x="420.361328" xlink:href="#DejaVuSans-68"/>
      <use x="483.740234" xlink:href="#DejaVuSans-65"/>
      <use x="545.263672" xlink:href="#DejaVuSans-7a"/>
      <use x="597.753906" xlink:href="#DejaVuSans-69"/>
      <use x="625.537109" xlink:href="#DejaVuSans-61"/>
     </g>
    </g>
   </g>
  </g>
 </g>
 <defs>
  <clipPath id="p2648fba34b">
   <rect height="627.0264" width="1224.252" x="197.46" y="97.7184"/>
  </clipPath>
 </defs>
</svg>
