<?xml version="1.0" encoding="utf-8" standalone="no"?>
<!DOCTYPE svg PUBLIC "-//W3C//DTD SVG 1.1//EN"
  "http://www.w3.org/Graphics/SVG/1.1/DTD/svg11.dtd">
<svg height="814.32pt" version="1.1" viewBox="0 0 1579.68 814.32" width="1579.68pt" xmlns="http://www.w3.org/2000/svg" xmlns:xlink="http://www.w3.org/1999/xlink">
 <metadata>
  <rdf:RDF xmlns:cc="http://creativecommons.org/ns#" xmlns:dc="http://purl.org/dc/elements/1.1/" xmlns:rdf="http://www.w3.org/1999/02/22-rdf-syntax-ns#">
   <cc:Work>
    <dc:type rdf:resource="http://purl.org/dc/dcmitype/StillImage"/>
    <dc:date>2021-08-05T08:41:09.289314</dc:date>
    <dc:format>image/svg+xml</dc:format>
    <dc:creator>
     <cc:Agent>
      <dc:title>Matplotlib v3.4.1, https://matplotlib.org/</dc:title>
     </cc:Agent>
    </dc:creator>
   </cc:Work>
  </rdf:RDF>
 </metadata>
 <defs>
  <style type="text/css">*{stroke-linecap:butt;stroke-linejoin:round;}</style>
 </defs>
 <g id="figure_1">
  <g id="patch_1">
   <path d="M 0 814.32 
L 1579.68 814.32 
L 1579.68 0 
L 0 0 
z
" style="fill:#ffffff;"/>
  </g>
  <g id="axes_1">
   <g id="patch_2">
    <path d="M 197.46 724.7448 
L 1421.712 724.7448 
L 1421.712 97.7184 
L 197.46 97.7184 
z
" style="fill:#ffffff;"/>
   </g>
   <g id="patch_3">
    <path clip-path="url(#p035681de15)" d="M 253.107818 724.7448 
L 406.619041 724.7448 
L 406.619041 704.8392 
L 253.107818 704.8392 
z
" style="fill:#1f77b4;"/>
   </g>
   <g id="patch_4">
    <path clip-path="url(#p035681de15)" d="M 444.996846 724.7448 
L 598.508069 724.7448 
L 598.508069 704.8392 
L 444.996846 704.8392 
z
" style="fill:#1f77b4;"/>
   </g>
   <g id="patch_5">
    <path clip-path="url(#p035681de15)" d="M 636.885875 724.7448 
L 790.397097 724.7448 
L 790.397097 704.8392 
L 636.885875 704.8392 
z
" style="fill:#1f77b4;"/>
   </g>
   <g id="patch_6">
    <path clip-path="url(#p035681de15)" d="M 828.774903 724.7448 
L 982.286125 724.7448 
L 982.286125 684.9336 
L 828.774903 684.9336 
z
" style="fill:#1f77b4;"/>
   </g>
   <g id="patch_7">
    <path clip-path="url(#p035681de15)" d="M 1020.663931 724.7448 
L 1174.175154 724.7448 
L 1174.175154 684.9336 
L 1020.663931 684.9336 
z
" style="fill:#1f77b4;"/>
   </g>
   <g id="patch_8">
    <path clip-path="url(#p035681de15)" d="M 1212.552959 724.7448 
L 1366.064182 724.7448 
L 1366.064182 684.9336 
L 1212.552959 684.9336 
z
" style="fill:#1f77b4;"/>
   </g>
   <g id="patch_9">
    <path clip-path="url(#p035681de15)" d="M 253.107818 704.8392 
L 406.619041 704.8392 
L 406.619041 684.9336 
L 253.107818 684.9336 
z
" style="fill:#ff7f0e;"/>
   </g>
   <g id="patch_10">
    <path clip-path="url(#p035681de15)" d="M 444.996846 704.8392 
L 598.508069 704.8392 
L 598.508069 684.9336 
L 444.996846 684.9336 
z
" style="fill:#ff7f0e;"/>
   </g>
   <g id="patch_11">
    <path clip-path="url(#p035681de15)" d="M 636.885875 704.8392 
L 790.397097 704.8392 
L 790.397097 684.9336 
L 636.885875 684.9336 
z
" style="fill:#ff7f0e;"/>
   </g>
   <g id="patch_12">
    <path clip-path="url(#p035681de15)" d="M 828.774903 684.9336 
L 982.286125 684.9336 
L 982.286125 645.1224 
L 828.774903 645.1224 
z
" style="fill:#ff7f0e;"/>
   </g>
   <g id="patch_13">
    <path clip-path="url(#p035681de15)" d="M 1020.663931 684.9336 
L 1174.175154 684.9336 
L 1174.175154 645.1224 
L 1020.663931 645.1224 
z
" style="fill:#ff7f0e;"/>
   </g>
   <g id="patch_14">
    <path clip-path="url(#p035681de15)" d="M 1212.552959 684.9336 
L 1366.064182 684.9336 
L 1366.064182 645.1224 
L 1212.552959 645.1224 
z
" style="fill:#ff7f0e;"/>
   </g>
   <g id="patch_15">
    <path clip-path="url(#p035681de15)" d="M 253.107818 684.9336 
L 406.619041 684.9336 
L 406.619041 665.028 
L 253.107818 665.028 
z
" style="fill:#2ca02c;"/>
   </g>
   <g id="patch_16">
    <path clip-path="url(#p035681de15)" d="M 444.996846 684.9336 
L 598.508069 684.9336 
L 598.508069 665.028 
L 444.996846 665.028 
z
" style="fill:#2ca02c;"/>
   </g>
   <g id="patch_17">
    <path clip-path="url(#p035681de15)" d="M 636.885875 684.9336 
L 790.397097 684.9336 
L 790.397097 665.028 
L 636.885875 665.028 
z
" style="fill:#2ca02c;"/>
   </g>
   <g id="patch_18">
    <path clip-path="url(#p035681de15)" d="M 828.774903 645.1224 
L 982.286125 645.1224 
L 982.286125 605.3112 
L 828.774903 605.3112 
z
" style="fill:#2ca02c;"/>
   </g>
   <g id="patch_19">
    <path clip-path="url(#p035681de15)" d="M 1020.663931 645.1224 
L 1174.175154 645.1224 
L 1174.175154 605.3112 
L 1020.663931 605.3112 
z
" style="fill:#2ca02c;"/>
   </g>
   <g id="patch_20">
    <path clip-path="url(#p035681de15)" d="M 1212.552959 645.1224 
L 1366.064182 645.1224 
L 1366.064182 605.3112 
L 1212.552959 605.3112 
z
" style="fill:#2ca02c;"/>
   </g>
   <g id="patch_21">
    <path clip-path="url(#p035681de15)" d="M 253.107818 665.028 
L 406.619041 665.028 
L 406.619041 645.1224 
L 253.107818 645.1224 
z
" style="fill:#d62728;"/>
   </g>
   <g id="patch_22">
    <path clip-path="url(#p035681de15)" d="M 444.996846 665.028 
L 598.508069 665.028 
L 598.508069 645.1224 
L 444.996846 645.1224 
z
" style="fill:#d62728;"/>
   </g>
   <g id="patch_23">
    <path clip-path="url(#p035681de15)" d="M 636.885875 665.028 
L 790.397097 665.028 
L 790.397097 645.1224 
L 636.885875 645.1224 
z
" style="fill:#d62728;"/>
   </g>
   <g id="patch_24">
    <path clip-path="url(#p035681de15)" d="M 828.774903 605.3112 
L 982.286125 605.3112 
L 982.286125 565.5 
L 828.774903 565.5 
z
" style="fill:#d62728;"/>
   </g>
   <g id="patch_25">
    <path clip-path="url(#p035681de15)" d="M 1020.663931 605.3112 
L 1174.175154 605.3112 
L 1174.175154 565.5 
L 1020.663931 565.5 
z
" style="fill:#d62728;"/>
   </g>
   <g id="patch_26">
    <path clip-path="url(#p035681de15)" d="M 1212.552959 605.3112 
L 1366.064182 605.3112 
L 1366.064182 565.5 
L 1212.552959 565.5 
z
" style="fill:#d62728;"/>
   </g>
   <g id="patch_27">
    <path clip-path="url(#p035681de15)" d="M 253.107818 645.1224 
L 406.619041 645.1224 
L 406.619041 625.2168 
L 253.107818 625.2168 
z
" style="fill:#9467bd;"/>
   </g>
   <g id="patch_28">
    <path clip-path="url(#p035681de15)" d="M 444.996846 645.1224 
L 598.508069 645.1224 
L 598.508069 625.2168 
L 444.996846 625.2168 
z
" style="fill:#9467bd;"/>
   </g>
   <g id="patch_29">
    <path clip-path="url(#p035681de15)" d="M 636.885875 645.1224 
L 790.397097 645.1224 
L 790.397097 625.2168 
L 636.885875 625.2168 
z
" style="fill:#9467bd;"/>
   </g>
   <g id="patch_30">
    <path clip-path="url(#p035681de15)" d="M 828.774903 565.5 
L 982.286125 565.5 
L 982.286125 525.6888 
L 828.774903 525.6888 
z
" style="fill:#9467bd;"/>
   </g>
   <g id="patch_31">
    <path clip-path="url(#p035681de15)" d="M 1020.663931 565.5 
L 1174.175154 565.5 
L 1174.175154 525.6888 
L 1020.663931 525.6888 
z
" style="fill:#9467bd;"/>
   </g>
   <g id="patch_32">
    <path clip-path="url(#p035681de15)" d="M 1212.552959 565.5 
L 1366.064182 565.5 
L 1366.064182 525.6888 
L 1212.552959 525.6888 
z
" style="fill:#9467bd;"/>
   </g>
   <g id="patch_33">
    <path clip-path="url(#p035681de15)" d="M 253.107818 625.2168 
L 406.619041 625.2168 
L 406.619041 605.3112 
L 253.107818 605.3112 
z
" style="fill:#8c564b;"/>
   </g>
   <g id="patch_34">
    <path clip-path="url(#p035681de15)" d="M 444.996846 625.2168 
L 598.508069 625.2168 
L 598.508069 605.3112 
L 444.996846 605.3112 
z
" style="fill:#8c564b;"/>
   </g>
   <g id="patch_35">
    <path clip-path="url(#p035681de15)" d="M 636.885875 625.2168 
L 790.397097 625.2168 
L 790.397097 605.3112 
L 636.885875 605.3112 
z
" style="fill:#8c564b;"/>
   </g>
   <g id="patch_36">
    <path clip-path="url(#p035681de15)" d="M 828.774903 525.6888 
L 982.286125 525.6888 
L 982.286125 485.8776 
L 828.774903 485.8776 
z
" style="fill:#8c564b;"/>
   </g>
   <g id="patch_37">
    <path clip-path="url(#p035681de15)" d="M 1020.663931 525.6888 
L 1174.175154 525.6888 
L 1174.175154 485.8776 
L 1020.663931 485.8776 
z
" style="fill:#8c564b;"/>
   </g>
   <g id="patch_38">
    <path clip-path="url(#p035681de15)" d="M 1212.552959 525.6888 
L 1366.064182 525.6888 
L 1366.064182 485.8776 
L 1212.552959 485.8776 
z
" style="fill:#8c564b;"/>
   </g>
   <g id="patch_39">
    <path clip-path="url(#p035681de15)" d="M 253.107818 605.3112 
L 406.619041 605.3112 
L 406.619041 585.4056 
L 253.107818 585.4056 
z
" style="fill:#e377c2;"/>
   </g>
   <g id="patch_40">
    <path clip-path="url(#p035681de15)" d="M 444.996846 605.3112 
L 598.508069 605.3112 
L 598.508069 585.4056 
L 444.996846 585.4056 
z
" style="fill:#e377c2;"/>
   </g>
   <g id="patch_41">
    <path clip-path="url(#p035681de15)" d="M 636.885875 605.3112 
L 790.397097 605.3112 
L 790.397097 585.4056 
L 636.885875 585.4056 
z
" style="fill:#e377c2;"/>
   </g>
   <g id="patch_42">
    <path clip-path="url(#p035681de15)" d="M 828.774903 485.8776 
L 982.286125 485.8776 
L 982.286125 446.0664 
L 828.774903 446.0664 
z
" style="fill:#e377c2;"/>
   </g>
   <g id="patch_43">
    <path clip-path="url(#p035681de15)" d="M 1020.663931 485.8776 
L 1174.175154 485.8776 
L 1174.175154 446.0664 
L 1020.663931 446.0664 
z
" style="fill:#e377c2;"/>
   </g>
   <g id="patch_44">
    <path clip-path="url(#p035681de15)" d="M 1212.552959 485.8776 
L 1366.064182 485.8776 
L 1366.064182 446.0664 
L 1212.552959 446.0664 
z
" style="fill:#e377c2;"/>
   </g>
   <g id="patch_45">
    <path clip-path="url(#p035681de15)" d="M 253.107818 585.4056 
L 406.619041 585.4056 
L 406.619041 565.5 
L 253.107818 565.5 
z
" style="fill:#7f7f7f;"/>
   </g>
   <g id="patch_46">
    <path clip-path="url(#p035681de15)" d="M 444.996846 585.4056 
L 598.508069 585.4056 
L 598.508069 565.5 
L 444.996846 565.5 
z
" style="fill:#7f7f7f;"/>
   </g>
   <g id="patch_47">
    <path clip-path="url(#p035681de15)" d="M 636.885875 585.4056 
L 790.397097 585.4056 
L 790.397097 565.5 
L 636.885875 565.5 
z
" style="fill:#7f7f7f;"/>
   </g>
   <g id="patch_48">
    <path clip-path="url(#p035681de15)" d="M 828.774903 446.0664 
L 982.286125 446.0664 
L 982.286125 406.2552 
L 828.774903 406.2552 
z
" style="fill:#7f7f7f;"/>
   </g>
   <g id="patch_49">
    <path clip-path="url(#p035681de15)" d="M 1020.663931 446.0664 
L 1174.175154 446.0664 
L 1174.175154 406.2552 
L 1020.663931 406.2552 
z
" style="fill:#7f7f7f;"/>
   </g>
   <g id="patch_50">
    <path clip-path="url(#p035681de15)" d="M 1212.552959 446.0664 
L 1366.064182 446.0664 
L 1366.064182 406.2552 
L 1212.552959 406.2552 
z
" style="fill:#7f7f7f;"/>
   </g>
   <g id="patch_51">
    <path clip-path="url(#p035681de15)" d="M 253.107818 565.5 
L 406.619041 565.5 
L 406.619041 545.5944 
L 253.107818 545.5944 
z
" style="fill:#bcbd22;"/>
   </g>
   <g id="patch_52">
    <path clip-path="url(#p035681de15)" d="M 444.996846 565.5 
L 598.508069 565.5 
L 598.508069 545.5944 
L 444.996846 545.5944 
z
" style="fill:#bcbd22;"/>
   </g>
   <g id="patch_53">
    <path clip-path="url(#p035681de15)" d="M 636.885875 565.5 
L 790.397097 565.5 
L 790.397097 545.5944 
L 636.885875 545.5944 
z
" style="fill:#bcbd22;"/>
   </g>
   <g id="patch_54">
    <path clip-path="url(#p035681de15)" d="M 828.774903 406.2552 
L 982.286125 406.2552 
L 982.286125 366.444 
L 828.774903 366.444 
z
" style="fill:#bcbd22;"/>
   </g>
   <g id="patch_55">
    <path clip-path="url(#p035681de15)" d="M 1020.663931 406.2552 
L 1174.175154 406.2552 
L 1174.175154 366.444 
L 1020.663931 366.444 
z
" style="fill:#bcbd22;"/>
   </g>
   <g id="patch_56">
    <path clip-path="url(#p035681de15)" d="M 1212.552959 406.2552 
L 1366.064182 406.2552 
L 1366.064182 366.444 
L 1212.552959 366.444 
z
" style="fill:#bcbd22;"/>
   </g>
   <g id="patch_57">
    <path clip-path="url(#p035681de15)" d="M 253.107818 545.5944 
L 406.619041 545.5944 
L 406.619041 525.6888 
L 253.107818 525.6888 
z
" style="fill:#17becf;"/>
   </g>
   <g id="patch_58">
    <path clip-path="url(#p035681de15)" d="M 444.996846 545.5944 
L 598.508069 545.5944 
L 598.508069 525.6888 
L 444.996846 525.6888 
z
" style="fill:#17becf;"/>
   </g>
   <g id="patch_59">
    <path clip-path="url(#p035681de15)" d="M 636.885875 545.5944 
L 790.397097 545.5944 
L 790.397097 525.6888 
L 636.885875 525.6888 
z
" style="fill:#17becf;"/>
   </g>
   <g id="patch_60">
    <path clip-path="url(#p035681de15)" d="M 828.774903 366.444 
L 982.286125 366.444 
L 982.286125 326.6328 
L 828.774903 326.6328 
z
" style="fill:#17becf;"/>
   </g>
   <g id="patch_61">
    <path clip-path="url(#p035681de15)" d="M 1020.663931 366.444 
L 1174.175154 366.444 
L 1174.175154 326.6328 
L 1020.663931 326.6328 
z
" style="fill:#17becf;"/>
   </g>
   <g id="patch_62">
    <path clip-path="url(#p035681de15)" d="M 1212.552959 366.444 
L 1366.064182 366.444 
L 1366.064182 326.6328 
L 1212.552959 326.6328 
z
" style="fill:#17becf;"/>
   </g>
   <g id="patch_63">
    <path clip-path="url(#p035681de15)" d="M 253.107818 525.6888 
L 406.619041 525.6888 
L 406.619041 505.7832 
L 253.107818 505.7832 
z
" style="fill:#1f77b4;"/>
   </g>
   <g id="patch_64">
    <path clip-path="url(#p035681de15)" d="M 444.996846 525.6888 
L 598.508069 525.6888 
L 598.508069 505.7832 
L 444.996846 505.7832 
z
" style="fill:#1f77b4;"/>
   </g>
   <g id="patch_65">
    <path clip-path="url(#p035681de15)" d="M 636.885875 525.6888 
L 790.397097 525.6888 
L 790.397097 505.7832 
L 636.885875 505.7832 
z
" style="fill:#1f77b4;"/>
   </g>
   <g id="patch_66">
    <path clip-path="url(#p035681de15)" d="M 828.774903 326.6328 
L 982.286125 326.6328 
L 982.286125 286.8216 
L 828.774903 286.8216 
z
" style="fill:#1f77b4;"/>
   </g>
   <g id="patch_67">
    <path clip-path="url(#p035681de15)" d="M 1020.663931 326.6328 
L 1174.175154 326.6328 
L 1174.175154 286.8216 
L 1020.663931 286.8216 
z
" style="fill:#1f77b4;"/>
   </g>
   <g id="patch_68">
    <path clip-path="url(#p035681de15)" d="M 1212.552959 326.6328 
L 1366.064182 326.6328 
L 1366.064182 286.8216 
L 1212.552959 286.8216 
z
" style="fill:#1f77b4;"/>
   </g>
   <g id="patch_69">
    <path clip-path="url(#p035681de15)" d="M 253.107818 505.7832 
L 406.619041 505.7832 
L 406.619041 485.8776 
L 253.107818 485.8776 
z
" style="fill:#ff7f0e;"/>
   </g>
   <g id="patch_70">
    <path clip-path="url(#p035681de15)" d="M 444.996846 505.7832 
L 598.508069 505.7832 
L 598.508069 485.8776 
L 444.996846 485.8776 
z
" style="fill:#ff7f0e;"/>
   </g>
   <g id="patch_71">
    <path clip-path="url(#p035681de15)" d="M 636.885875 505.7832 
L 790.397097 505.7832 
L 790.397097 485.8776 
L 636.885875 485.8776 
z
" style="fill:#ff7f0e;"/>
   </g>
   <g id="patch_72">
    <path clip-path="url(#p035681de15)" d="M 828.774903 286.8216 
L 982.286125 286.8216 
L 982.286125 247.0104 
L 828.774903 247.0104 
z
" style="fill:#ff7f0e;"/>
   </g>
   <g id="patch_73">
    <path clip-path="url(#p035681de15)" d="M 1020.663931 286.8216 
L 1174.175154 286.8216 
L 1174.175154 247.0104 
L 1020.663931 247.0104 
z
" style="fill:#ff7f0e;"/>
   </g>
   <g id="patch_74">
    <path clip-path="url(#p035681de15)" d="M 1212.552959 286.8216 
L 1366.064182 286.8216 
L 1366.064182 247.0104 
L 1212.552959 247.0104 
z
" style="fill:#ff7f0e;"/>
   </g>
   <g id="patch_75">
    <path clip-path="url(#p035681de15)" d="M 253.107818 485.8776 
L 406.619041 485.8776 
L 406.619041 465.972 
L 253.107818 465.972 
z
" style="fill:#2ca02c;"/>
   </g>
   <g id="patch_76">
    <path clip-path="url(#p035681de15)" d="M 444.996846 485.8776 
L 598.508069 485.8776 
L 598.508069 465.972 
L 444.996846 465.972 
z
" style="fill:#2ca02c;"/>
   </g>
   <g id="patch_77">
    <path clip-path="url(#p035681de15)" d="M 636.885875 485.8776 
L 790.397097 485.8776 
L 790.397097 465.972 
L 636.885875 465.972 
z
" style="fill:#2ca02c;"/>
   </g>
   <g id="patch_78">
    <path clip-path="url(#p035681de15)" d="M 828.774903 247.0104 
L 982.286125 247.0104 
L 982.286125 207.1992 
L 828.774903 207.1992 
z
" style="fill:#2ca02c;"/>
   </g>
   <g id="patch_79">
    <path clip-path="url(#p035681de15)" d="M 1020.663931 247.0104 
L 1174.175154 247.0104 
L 1174.175154 207.1992 
L 1020.663931 207.1992 
z
" style="fill:#2ca02c;"/>
   </g>
   <g id="patch_80">
    <path clip-path="url(#p035681de15)" d="M 1212.552959 247.0104 
L 1366.064182 247.0104 
L 1366.064182 207.1992 
L 1212.552959 207.1992 
z
" style="fill:#2ca02c;"/>
   </g>
   <g id="patch_81">
    <path clip-path="url(#p035681de15)" d="M 253.107818 465.972 
L 406.619041 465.972 
L 406.619041 446.0664 
L 253.107818 446.0664 
z
" style="fill:#d62728;"/>
   </g>
   <g id="patch_82">
    <path clip-path="url(#p035681de15)" d="M 444.996846 465.972 
L 598.508069 465.972 
L 598.508069 446.0664 
L 444.996846 446.0664 
z
" style="fill:#d62728;"/>
   </g>
   <g id="patch_83">
    <path clip-path="url(#p035681de15)" d="M 636.885875 465.972 
L 790.397097 465.972 
L 790.397097 446.0664 
L 636.885875 446.0664 
z
" style="fill:#d62728;"/>
   </g>
   <g id="patch_84">
    <path clip-path="url(#p035681de15)" d="M 828.774903 207.1992 
L 982.286125 207.1992 
L 982.286125 167.388 
L 828.774903 167.388 
z
" style="fill:#d62728;"/>
   </g>
   <g id="patch_85">
    <path clip-path="url(#p035681de15)" d="M 1020.663931 207.1992 
L 1174.175154 207.1992 
L 1174.175154 167.388 
L 1020.663931 167.388 
z
" style="fill:#d62728;"/>
   </g>
   <g id="patch_86">
    <path clip-path="url(#p035681de15)" d="M 1212.552959 207.1992 
L 1366.064182 207.1992 
L 1366.064182 167.388 
L 1212.552959 167.388 
z
" style="fill:#d62728;"/>
   </g>
   <g id="patch_87">
    <path clip-path="url(#p035681de15)" d="M 253.107818 446.0664 
L 406.619041 446.0664 
L 406.619041 426.1608 
L 253.107818 426.1608 
z
" style="fill:#9467bd;"/>
   </g>
   <g id="patch_88">
    <path clip-path="url(#p035681de15)" d="M 444.996846 446.0664 
L 598.508069 446.0664 
L 598.508069 426.1608 
L 444.996846 426.1608 
z
" style="fill:#9467bd;"/>
   </g>
   <g id="patch_89">
    <path clip-path="url(#p035681de15)" d="M 636.885875 446.0664 
L 790.397097 446.0664 
L 790.397097 426.1608 
L 636.885875 426.1608 
z
" style="fill:#9467bd;"/>
   </g>
   <g id="patch_90">
    <path clip-path="url(#p035681de15)" d="M 828.774903 167.388 
L 982.286125 167.388 
L 982.286125 127.5768 
L 828.774903 127.5768 
z
" style="fill:#9467bd;"/>
   </g>
   <g id="patch_91">
    <path clip-path="url(#p035681de15)" d="M 1020.663931 167.388 
L 1174.175154 167.388 
L 1174.175154 127.5768 
L 1020.663931 127.5768 
z
" style="fill:#9467bd;"/>
   </g>
   <g id="patch_92">
    <path clip-path="url(#p035681de15)" d="M 1212.552959 167.388 
L 1366.064182 167.388 
L 1366.064182 127.5768 
L 1212.552959 127.5768 
z
" style="fill:#9467bd;"/>
   </g>
   <g id="matplotlib.axis_1">
    <g id="xtick_1">
     <g id="line2d_1">
      <defs>
       <path d="M 0 0 
L 0 3.5 
" id="m10e7722dd4" style="stroke:#000000;stroke-width:0.8;"/>
      </defs>
      <g>
       <use style="stroke:#000000;stroke-width:0.8;" x="329.863429" xlink:href="#m10e7722dd4" y="724.7448"/>
      </g>
     </g>
     <g id="text_1">
      <!-- exp1 train -->
      <g transform="translate(304.332961 739.343238)scale(0.1 -0.1)">
       <defs>
        <path d="M 3597 1894 
L 3597 1613 
L 953 1613 
Q 991 1019 1311 708 
Q 1631 397 2203 397 
Q 2534 397 2845 478 
Q 3156 559 3463 722 
L 3463 178 
Q 3153 47 2828 -22 
Q 2503 -91 2169 -91 
Q 1331 -91 842 396 
Q 353 884 353 1716 
Q 353 2575 817 3079 
Q 1281 3584 2069 3584 
Q 2775 3584 3186 3129 
Q 3597 2675 3597 1894 
z
M 3022 2063 
Q 3016 2534 2758 2815 
Q 2500 3097 2075 3097 
Q 1594 3097 1305 2825 
Q 1016 2553 972 2059 
L 3022 2063 
z
" id="DejaVuSans-65" transform="scale(0.015625)"/>
        <path d="M 3513 3500 
L 2247 1797 
L 3578 0 
L 2900 0 
L 1881 1375 
L 863 0 
L 184 0 
L 1544 1831 
L 300 3500 
L 978 3500 
L 1906 2253 
L 2834 3500 
L 3513 3500 
z
" id="DejaVuSans-78" transform="scale(0.015625)"/>
        <path d="M 1159 525 
L 1159 -1331 
L 581 -1331 
L 581 3500 
L 1159 3500 
L 1159 2969 
Q 1341 3281 1617 3432 
Q 1894 3584 2278 3584 
Q 2916 3584 3314 3078 
Q 3713 2572 3713 1747 
Q 3713 922 3314 415 
Q 2916 -91 2278 -91 
Q 1894 -91 1617 61 
Q 1341 213 1159 525 
z
M 3116 1747 
Q 3116 2381 2855 2742 
Q 2594 3103 2138 3103 
Q 1681 3103 1420 2742 
Q 1159 2381 1159 1747 
Q 1159 1113 1420 752 
Q 1681 391 2138 391 
Q 2594 391 2855 752 
Q 3116 1113 3116 1747 
z
" id="DejaVuSans-70" transform="scale(0.015625)"/>
        <path d="M 794 531 
L 1825 531 
L 1825 4091 
L 703 3866 
L 703 4441 
L 1819 4666 
L 2450 4666 
L 2450 531 
L 3481 531 
L 3481 0 
L 794 0 
L 794 531 
z
" id="DejaVuSans-31" transform="scale(0.015625)"/>
        <path id="DejaVuSans-20" transform="scale(0.015625)"/>
        <path d="M 1172 4494 
L 1172 3500 
L 2356 3500 
L 2356 3053 
L 1172 3053 
L 1172 1153 
Q 1172 725 1289 603 
Q 1406 481 1766 481 
L 2356 481 
L 2356 0 
L 1766 0 
Q 1100 0 847 248 
Q 594 497 594 1153 
L 594 3053 
L 172 3053 
L 172 3500 
L 594 3500 
L 594 4494 
L 1172 4494 
z
" id="DejaVuSans-74" transform="scale(0.015625)"/>
        <path d="M 2631 2963 
Q 2534 3019 2420 3045 
Q 2306 3072 2169 3072 
Q 1681 3072 1420 2755 
Q 1159 2438 1159 1844 
L 1159 0 
L 581 0 
L 581 3500 
L 1159 3500 
L 1159 2956 
Q 1341 3275 1631 3429 
Q 1922 3584 2338 3584 
Q 2397 3584 2469 3576 
Q 2541 3569 2628 3553 
L 2631 2963 
z
" id="DejaVuSans-72" transform="scale(0.015625)"/>
        <path d="M 2194 1759 
Q 1497 1759 1228 1600 
Q 959 1441 959 1056 
Q 959 750 1161 570 
Q 1363 391 1709 391 
Q 2188 391 2477 730 
Q 2766 1069 2766 1631 
L 2766 1759 
L 2194 1759 
z
M 3341 1997 
L 3341 0 
L 2766 0 
L 2766 531 
Q 2569 213 2275 61 
Q 1981 -91 1556 -91 
Q 1019 -91 701 211 
Q 384 513 384 1019 
Q 384 1609 779 1909 
Q 1175 2209 1959 2209 
L 2766 2209 
L 2766 2266 
Q 2766 2663 2505 2880 
Q 2244 3097 1772 3097 
Q 1472 3097 1187 3025 
Q 903 2953 641 2809 
L 641 3341 
Q 956 3463 1253 3523 
Q 1550 3584 1831 3584 
Q 2591 3584 2966 3190 
Q 3341 2797 3341 1997 
z
" id="DejaVuSans-61" transform="scale(0.015625)"/>
        <path d="M 603 3500 
L 1178 3500 
L 1178 0 
L 603 0 
L 603 3500 
z
M 603 4863 
L 1178 4863 
L 1178 4134 
L 603 4134 
L 603 4863 
z
" id="DejaVuSans-69" transform="scale(0.015625)"/>
        <path d="M 3513 2113 
L 3513 0 
L 2938 0 
L 2938 2094 
Q 2938 2591 2744 2837 
Q 2550 3084 2163 3084 
Q 1697 3084 1428 2787 
Q 1159 2491 1159 1978 
L 1159 0 
L 581 0 
L 581 3500 
L 1159 3500 
L 1159 2956 
Q 1366 3272 1645 3428 
Q 1925 3584 2291 3584 
Q 2894 3584 3203 3211 
Q 3513 2838 3513 2113 
z
" id="DejaVuSans-6e" transform="scale(0.015625)"/>
       </defs>
       <use xlink:href="#DejaVuSans-65"/>
       <use x="59.773438" xlink:href="#DejaVuSans-78"/>
       <use x="118.953125" xlink:href="#DejaVuSans-70"/>
       <use x="182.429688" xlink:href="#DejaVuSans-31"/>
       <use x="246.052734" xlink:href="#DejaVuSans-20"/>
       <use x="277.839844" xlink:href="#DejaVuSans-74"/>
       <use x="317.048828" xlink:href="#DejaVuSans-72"/>
       <use x="358.162109" xlink:href="#DejaVuSans-61"/>
       <use x="419.441406" xlink:href="#DejaVuSans-69"/>
       <use x="447.224609" xlink:href="#DejaVuSans-6e"/>
      </g>
     </g>
    </g>
    <g id="xtick_2">
     <g id="line2d_2">
      <g>
       <use style="stroke:#000000;stroke-width:0.8;" x="521.752458" xlink:href="#m10e7722dd4" y="724.7448"/>
      </g>
     </g>
     <g id="text_2">
      <!-- exp2 train -->
      <g transform="translate(496.221989 739.343238)scale(0.1 -0.1)">
       <defs>
        <path d="M 1228 531 
L 3431 531 
L 3431 0 
L 469 0 
L 469 531 
Q 828 903 1448 1529 
Q 2069 2156 2228 2338 
Q 2531 2678 2651 2914 
Q 2772 3150 2772 3378 
Q 2772 3750 2511 3984 
Q 2250 4219 1831 4219 
Q 1534 4219 1204 4116 
Q 875 4013 500 3803 
L 500 4441 
Q 881 4594 1212 4672 
Q 1544 4750 1819 4750 
Q 2544 4750 2975 4387 
Q 3406 4025 3406 3419 
Q 3406 3131 3298 2873 
Q 3191 2616 2906 2266 
Q 2828 2175 2409 1742 
Q 1991 1309 1228 531 
z
" id="DejaVuSans-32" transform="scale(0.015625)"/>
       </defs>
       <use xlink:href="#DejaVuSans-65"/>
       <use x="59.773438" xlink:href="#DejaVuSans-78"/>
       <use x="118.953125" xlink:href="#DejaVuSans-70"/>
       <use x="182.429688" xlink:href="#DejaVuSans-32"/>
       <use x="246.052734" xlink:href="#DejaVuSans-20"/>
       <use x="277.839844" xlink:href="#DejaVuSans-74"/>
       <use x="317.048828" xlink:href="#DejaVuSans-72"/>
       <use x="358.162109" xlink:href="#DejaVuSans-61"/>
       <use x="419.441406" xlink:href="#DejaVuSans-69"/>
       <use x="447.224609" xlink:href="#DejaVuSans-6e"/>
      </g>
     </g>
    </g>
    <g id="xtick_3">
     <g id="line2d_3">
      <g>
       <use style="stroke:#000000;stroke-width:0.8;" x="713.641486" xlink:href="#m10e7722dd4" y="724.7448"/>
      </g>
     </g>
     <g id="text_3">
      <!-- exp3 train -->
      <g transform="translate(688.111017 739.343238)scale(0.1 -0.1)">
       <defs>
        <path d="M 2597 2516 
Q 3050 2419 3304 2112 
Q 3559 1806 3559 1356 
Q 3559 666 3084 287 
Q 2609 -91 1734 -91 
Q 1441 -91 1130 -33 
Q 819 25 488 141 
L 488 750 
Q 750 597 1062 519 
Q 1375 441 1716 441 
Q 2309 441 2620 675 
Q 2931 909 2931 1356 
Q 2931 1769 2642 2001 
Q 2353 2234 1838 2234 
L 1294 2234 
L 1294 2753 
L 1863 2753 
Q 2328 2753 2575 2939 
Q 2822 3125 2822 3475 
Q 2822 3834 2567 4026 
Q 2313 4219 1838 4219 
Q 1578 4219 1281 4162 
Q 984 4106 628 3988 
L 628 4550 
Q 988 4650 1302 4700 
Q 1616 4750 1894 4750 
Q 2613 4750 3031 4423 
Q 3450 4097 3450 3541 
Q 3450 3153 3228 2886 
Q 3006 2619 2597 2516 
z
" id="DejaVuSans-33" transform="scale(0.015625)"/>
       </defs>
       <use xlink:href="#DejaVuSans-65"/>
       <use x="59.773438" xlink:href="#DejaVuSans-78"/>
       <use x="118.953125" xlink:href="#DejaVuSans-70"/>
       <use x="182.429688" xlink:href="#DejaVuSans-33"/>
       <use x="246.052734" xlink:href="#DejaVuSans-20"/>
       <use x="277.839844" xlink:href="#DejaVuSans-74"/>
       <use x="317.048828" xlink:href="#DejaVuSans-72"/>
       <use x="358.162109" xlink:href="#DejaVuSans-61"/>
       <use x="419.441406" xlink:href="#DejaVuSans-69"/>
       <use x="447.224609" xlink:href="#DejaVuSans-6e"/>
      </g>
     </g>
    </g>
    <g id="xtick_4">
     <g id="line2d_4">
      <g>
       <use style="stroke:#000000;stroke-width:0.8;" x="905.530514" xlink:href="#m10e7722dd4" y="724.7448"/>
      </g>
     </g>
     <g id="text_4">
      <!-- exp1 test -->
      <g transform="translate(882.035983 739.343238)scale(0.1 -0.1)">
       <defs>
        <path d="M 2834 3397 
L 2834 2853 
Q 2591 2978 2328 3040 
Q 2066 3103 1784 3103 
Q 1356 3103 1142 2972 
Q 928 2841 928 2578 
Q 928 2378 1081 2264 
Q 1234 2150 1697 2047 
L 1894 2003 
Q 2506 1872 2764 1633 
Q 3022 1394 3022 966 
Q 3022 478 2636 193 
Q 2250 -91 1575 -91 
Q 1294 -91 989 -36 
Q 684 19 347 128 
L 347 722 
Q 666 556 975 473 
Q 1284 391 1588 391 
Q 1994 391 2212 530 
Q 2431 669 2431 922 
Q 2431 1156 2273 1281 
Q 2116 1406 1581 1522 
L 1381 1569 
Q 847 1681 609 1914 
Q 372 2147 372 2553 
Q 372 3047 722 3315 
Q 1072 3584 1716 3584 
Q 2034 3584 2315 3537 
Q 2597 3491 2834 3397 
z
" id="DejaVuSans-73" transform="scale(0.015625)"/>
       </defs>
       <use xlink:href="#DejaVuSans-65"/>
       <use x="59.773438" xlink:href="#DejaVuSans-78"/>
       <use x="118.953125" xlink:href="#DejaVuSans-70"/>
       <use x="182.429688" xlink:href="#DejaVuSans-31"/>
       <use x="246.052734" xlink:href="#DejaVuSans-20"/>
       <use x="277.839844" xlink:href="#DejaVuSans-74"/>
       <use x="317.048828" xlink:href="#DejaVuSans-65"/>
       <use x="378.572266" xlink:href="#DejaVuSans-73"/>
       <use x="430.671875" xlink:href="#DejaVuSans-74"/>
      </g>
     </g>
    </g>
    <g id="xtick_5">
     <g id="line2d_5">
      <g>
       <use style="stroke:#000000;stroke-width:0.8;" x="1097.419542" xlink:href="#m10e7722dd4" y="724.7448"/>
      </g>
     </g>
     <g id="text_5">
      <!-- exp2 test -->
      <g transform="translate(1073.925011 739.343238)scale(0.1 -0.1)">
       <use xlink:href="#DejaVuSans-65"/>
       <use x="59.773438" xlink:href="#DejaVuSans-78"/>
       <use x="118.953125" xlink:href="#DejaVuSans-70"/>
       <use x="182.429688" xlink:href="#DejaVuSans-32"/>
       <use x="246.052734" xlink:href="#DejaVuSans-20"/>
       <use x="277.839844" xlink:href="#DejaVuSans-74"/>
       <use x="317.048828" xlink:href="#DejaVuSans-65"/>
       <use x="378.572266" xlink:href="#DejaVuSans-73"/>
       <use x="430.671875" xlink:href="#DejaVuSans-74"/>
      </g>
     </g>
    </g>
    <g id="xtick_6">
     <g id="line2d_6">
      <g>
       <use style="stroke:#000000;stroke-width:0.8;" x="1289.308571" xlink:href="#m10e7722dd4" y="724.7448"/>
      </g>
     </g>
     <g id="text_6">
      <!-- exp3 test -->
      <g transform="translate(1265.814039 739.343238)scale(0.1 -0.1)">
       <use xlink:href="#DejaVuSans-65"/>
       <use x="59.773438" xlink:href="#DejaVuSans-78"/>
       <use x="118.953125" xlink:href="#DejaVuSans-70"/>
       <use x="182.429688" xlink:href="#DejaVuSans-33"/>
       <use x="246.052734" xlink:href="#DejaVuSans-20"/>
       <use x="277.839844" xlink:href="#DejaVuSans-74"/>
       <use x="317.048828" xlink:href="#DejaVuSans-65"/>
       <use x="378.572266" xlink:href="#DejaVuSans-73"/>
       <use x="430.671875" xlink:href="#DejaVuSans-74"/>
      </g>
     </g>
    </g>
   </g>
   <g id="matplotlib.axis_2">
    <g id="ytick_1">
     <g id="line2d_7">
      <defs>
       <path d="M 0 0 
L -3.5 0 
" id="md3f6cca091" style="stroke:#000000;stroke-width:0.8;"/>
      </defs>
      <g>
       <use style="stroke:#000000;stroke-width:0.8;" x="197.46" xlink:href="#md3f6cca091" y="724.7448"/>
      </g>
     </g>
     <g id="text_7">
      <!-- 0 -->
      <g transform="translate(184.0975 728.544019)scale(0.1 -0.1)">
       <defs>
        <path d="M 2034 4250 
Q 1547 4250 1301 3770 
Q 1056 3291 1056 2328 
Q 1056 1369 1301 889 
Q 1547 409 2034 409 
Q 2525 409 2770 889 
Q 3016 1369 3016 2328 
Q 3016 3291 2770 3770 
Q 2525 4250 2034 4250 
z
M 2034 4750 
Q 2819 4750 3233 4129 
Q 3647 3509 3647 2328 
Q 3647 1150 3233 529 
Q 2819 -91 2034 -91 
Q 1250 -91 836 529 
Q 422 1150 422 2328 
Q 422 3509 836 4129 
Q 1250 4750 2034 4750 
z
" id="DejaVuSans-30" transform="scale(0.015625)"/>
       </defs>
       <use xlink:href="#DejaVuSans-30"/>
      </g>
     </g>
    </g>
    <g id="ytick_2">
     <g id="line2d_8">
      <g>
       <use style="stroke:#000000;stroke-width:0.8;" x="197.46" xlink:href="#md3f6cca091" y="645.1224"/>
      </g>
     </g>
     <g id="text_8">
      <!-- 100 -->
      <g transform="translate(171.3725 648.921619)scale(0.1 -0.1)">
       <use xlink:href="#DejaVuSans-31"/>
       <use x="63.623047" xlink:href="#DejaVuSans-30"/>
       <use x="127.246094" xlink:href="#DejaVuSans-30"/>
      </g>
     </g>
    </g>
    <g id="ytick_3">
     <g id="line2d_9">
      <g>
       <use style="stroke:#000000;stroke-width:0.8;" x="197.46" xlink:href="#md3f6cca091" y="565.5"/>
      </g>
     </g>
     <g id="text_9">
      <!-- 200 -->
      <g transform="translate(171.3725 569.299219)scale(0.1 -0.1)">
       <use xlink:href="#DejaVuSans-32"/>
       <use x="63.623047" xlink:href="#DejaVuSans-30"/>
       <use x="127.246094" xlink:href="#DejaVuSans-30"/>
      </g>
     </g>
    </g>
    <g id="ytick_4">
     <g id="line2d_10">
      <g>
       <use style="stroke:#000000;stroke-width:0.8;" x="197.46" xlink:href="#md3f6cca091" y="485.8776"/>
      </g>
     </g>
     <g id="text_10">
      <!-- 300 -->
      <g transform="translate(171.3725 489.676819)scale(0.1 -0.1)">
       <use xlink:href="#DejaVuSans-33"/>
       <use x="63.623047" xlink:href="#DejaVuSans-30"/>
       <use x="127.246094" xlink:href="#DejaVuSans-30"/>
      </g>
     </g>
    </g>
    <g id="ytick_5">
     <g id="line2d_11">
      <g>
       <use style="stroke:#000000;stroke-width:0.8;" x="197.46" xlink:href="#md3f6cca091" y="406.2552"/>
      </g>
     </g>
     <g id="text_11">
      <!-- 400 -->
      <g transform="translate(171.3725 410.054419)scale(0.1 -0.1)">
       <defs>
        <path d="M 2419 4116 
L 825 1625 
L 2419 1625 
L 2419 4116 
z
M 2253 4666 
L 3047 4666 
L 3047 1625 
L 3713 1625 
L 3713 1100 
L 3047 1100 
L 3047 0 
L 2419 0 
L 2419 1100 
L 313 1100 
L 313 1709 
L 2253 4666 
z
" id="DejaVuSans-34" transform="scale(0.015625)"/>
       </defs>
       <use xlink:href="#DejaVuSans-34"/>
       <use x="63.623047" xlink:href="#DejaVuSans-30"/>
       <use x="127.246094" xlink:href="#DejaVuSans-30"/>
      </g>
     </g>
    </g>
    <g id="ytick_6">
     <g id="line2d_12">
      <g>
       <use style="stroke:#000000;stroke-width:0.8;" x="197.46" xlink:href="#md3f6cca091" y="326.6328"/>
      </g>
     </g>
     <g id="text_12">
      <!-- 500 -->
      <g transform="translate(171.3725 330.432019)scale(0.1 -0.1)">
       <defs>
        <path d="M 691 4666 
L 3169 4666 
L 3169 4134 
L 1269 4134 
L 1269 2991 
Q 1406 3038 1543 3061 
Q 1681 3084 1819 3084 
Q 2600 3084 3056 2656 
Q 3513 2228 3513 1497 
Q 3513 744 3044 326 
Q 2575 -91 1722 -91 
Q 1428 -91 1123 -41 
Q 819 9 494 109 
L 494 744 
Q 775 591 1075 516 
Q 1375 441 1709 441 
Q 2250 441 2565 725 
Q 2881 1009 2881 1497 
Q 2881 1984 2565 2268 
Q 2250 2553 1709 2553 
Q 1456 2553 1204 2497 
Q 953 2441 691 2322 
L 691 4666 
z
" id="DejaVuSans-35" transform="scale(0.015625)"/>
       </defs>
       <use xlink:href="#DejaVuSans-35"/>
       <use x="63.623047" xlink:href="#DejaVuSans-30"/>
       <use x="127.246094" xlink:href="#DejaVuSans-30"/>
      </g>
     </g>
    </g>
    <g id="ytick_7">
     <g id="line2d_13">
      <g>
       <use style="stroke:#000000;stroke-width:0.8;" x="197.46" xlink:href="#md3f6cca091" y="247.0104"/>
      </g>
     </g>
     <g id="text_13">
      <!-- 600 -->
      <g transform="translate(171.3725 250.809619)scale(0.1 -0.1)">
       <defs>
        <path d="M 2113 2584 
Q 1688 2584 1439 2293 
Q 1191 2003 1191 1497 
Q 1191 994 1439 701 
Q 1688 409 2113 409 
Q 2538 409 2786 701 
Q 3034 994 3034 1497 
Q 3034 2003 2786 2293 
Q 2538 2584 2113 2584 
z
M 3366 4563 
L 3366 3988 
Q 3128 4100 2886 4159 
Q 2644 4219 2406 4219 
Q 1781 4219 1451 3797 
Q 1122 3375 1075 2522 
Q 1259 2794 1537 2939 
Q 1816 3084 2150 3084 
Q 2853 3084 3261 2657 
Q 3669 2231 3669 1497 
Q 3669 778 3244 343 
Q 2819 -91 2113 -91 
Q 1303 -91 875 529 
Q 447 1150 447 2328 
Q 447 3434 972 4092 
Q 1497 4750 2381 4750 
Q 2619 4750 2861 4703 
Q 3103 4656 3366 4563 
z
" id="DejaVuSans-36" transform="scale(0.015625)"/>
       </defs>
       <use xlink:href="#DejaVuSans-36"/>
       <use x="63.623047" xlink:href="#DejaVuSans-30"/>
       <use x="127.246094" xlink:href="#DejaVuSans-30"/>
      </g>
     </g>
    </g>
    <g id="ytick_8">
     <g id="line2d_14">
      <g>
       <use style="stroke:#000000;stroke-width:0.8;" x="197.46" xlink:href="#md3f6cca091" y="167.388"/>
      </g>
     </g>
     <g id="text_14">
      <!-- 700 -->
      <g transform="translate(171.3725 171.187219)scale(0.1 -0.1)">
       <defs>
        <path d="M 525 4666 
L 3525 4666 
L 3525 4397 
L 1831 0 
L 1172 0 
L 2766 4134 
L 525 4134 
L 525 4666 
z
" id="DejaVuSans-37" transform="scale(0.015625)"/>
       </defs>
       <use xlink:href="#DejaVuSans-37"/>
       <use x="63.623047" xlink:href="#DejaVuSans-30"/>
       <use x="127.246094" xlink:href="#DejaVuSans-30"/>
      </g>
     </g>
    </g>
   </g>
   <g id="patch_93">
    <path d="M 197.46 724.7448 
L 197.46 97.7184 
" style="fill:none;stroke:#000000;stroke-linecap:square;stroke-linejoin:miter;stroke-width:0.8;"/>
   </g>
   <g id="patch_94">
    <path d="M 1421.712 724.7448 
L 1421.712 97.7184 
" style="fill:none;stroke:#000000;stroke-linecap:square;stroke-linejoin:miter;stroke-width:0.8;"/>
   </g>
   <g id="patch_95">
    <path d="M 197.46 724.7448 
L 1421.712 724.7448 
" style="fill:none;stroke:#000000;stroke-linecap:square;stroke-linejoin:miter;stroke-width:0.8;"/>
   </g>
   <g id="patch_96">
    <path d="M 197.46 97.7184 
L 1421.712 97.7184 
" style="fill:none;stroke:#000000;stroke-linecap:square;stroke-linejoin:miter;stroke-width:0.8;"/>
   </g>
   <g id="text_15">
    <!-- 25 -->
    <g transform="translate(320.268978 714.792)scale(0.1 -0.1)">
     <use xlink:href="#DejaVuSans-32"/>
     <use x="63.623047" xlink:href="#DejaVuSans-35"/>
    </g>
   </g>
   <g id="text_16">
    <!-- 25 -->
    <g transform="translate(512.158006 714.792)scale(0.1 -0.1)">
     <use xlink:href="#DejaVuSans-32"/>
     <use x="63.623047" xlink:href="#DejaVuSans-35"/>
    </g>
   </g>
   <g id="text_17">
    <!-- 25 -->
    <g transform="translate(704.047034 714.792)scale(0.1 -0.1)">
     <use xlink:href="#DejaVuSans-32"/>
     <use x="63.623047" xlink:href="#DejaVuSans-35"/>
    </g>
   </g>
   <g id="text_18">
    <!-- 50 -->
    <g transform="translate(895.936063 704.8392)scale(0.1 -0.1)">
     <use xlink:href="#DejaVuSans-35"/>
     <use x="63.623047" xlink:href="#DejaVuSans-30"/>
    </g>
   </g>
   <g id="text_19">
    <!-- 50 -->
    <g transform="translate(1087.825091 704.8392)scale(0.1 -0.1)">
     <use xlink:href="#DejaVuSans-35"/>
     <use x="63.623047" xlink:href="#DejaVuSans-30"/>
    </g>
   </g>
   <g id="text_20">
    <!-- 50 -->
    <g transform="translate(1279.714119 704.8392)scale(0.1 -0.1)">
     <use xlink:href="#DejaVuSans-35"/>
     <use x="63.623047" xlink:href="#DejaVuSans-30"/>
    </g>
   </g>
   <g id="text_21">
    <!-- 25 -->
    <g transform="translate(320.268978 694.8864)scale(0.1 -0.1)">
     <use xlink:href="#DejaVuSans-32"/>
     <use x="63.623047" xlink:href="#DejaVuSans-35"/>
    </g>
   </g>
   <g id="text_22">
    <!-- 25 -->
    <g transform="translate(512.158006 694.8864)scale(0.1 -0.1)">
     <use xlink:href="#DejaVuSans-32"/>
     <use x="63.623047" xlink:href="#DejaVuSans-35"/>
    </g>
   </g>
   <g id="text_23">
    <!-- 25 -->
    <g transform="translate(704.047034 694.8864)scale(0.1 -0.1)">
     <use xlink:href="#DejaVuSans-32"/>
     <use x="63.623047" xlink:href="#DejaVuSans-35"/>
    </g>
   </g>
   <g id="text_24">
    <!-- 50 -->
    <g transform="translate(895.936063 665.028)scale(0.1 -0.1)">
     <use xlink:href="#DejaVuSans-35"/>
     <use x="63.623047" xlink:href="#DejaVuSans-30"/>
    </g>
   </g>
   <g id="text_25">
    <!-- 50 -->
    <g transform="translate(1087.825091 665.028)scale(0.1 -0.1)">
     <use xlink:href="#DejaVuSans-35"/>
     <use x="63.623047" xlink:href="#DejaVuSans-30"/>
    </g>
   </g>
   <g id="text_26">
    <!-- 50 -->
    <g transform="translate(1279.714119 665.028)scale(0.1 -0.1)">
     <use xlink:href="#DejaVuSans-35"/>
     <use x="63.623047" xlink:href="#DejaVuSans-30"/>
    </g>
   </g>
   <g id="text_27">
    <!-- 25 -->
    <g transform="translate(320.268978 674.9808)scale(0.1 -0.1)">
     <use xlink:href="#DejaVuSans-32"/>
     <use x="63.623047" xlink:href="#DejaVuSans-35"/>
    </g>
   </g>
   <g id="text_28">
    <!-- 25 -->
    <g transform="translate(512.158006 674.9808)scale(0.1 -0.1)">
     <use xlink:href="#DejaVuSans-32"/>
     <use x="63.623047" xlink:href="#DejaVuSans-35"/>
    </g>
   </g>
   <g id="text_29">
    <!-- 25 -->
    <g transform="translate(704.047034 674.9808)scale(0.1 -0.1)">
     <use xlink:href="#DejaVuSans-32"/>
     <use x="63.623047" xlink:href="#DejaVuSans-35"/>
    </g>
   </g>
   <g id="text_30">
    <!-- 50 -->
    <g transform="translate(895.936063 625.2168)scale(0.1 -0.1)">
     <use xlink:href="#DejaVuSans-35"/>
     <use x="63.623047" xlink:href="#DejaVuSans-30"/>
    </g>
   </g>
   <g id="text_31">
    <!-- 50 -->
    <g transform="translate(1087.825091 625.2168)scale(0.1 -0.1)">
     <use xlink:href="#DejaVuSans-35"/>
     <use x="63.623047" xlink:href="#DejaVuSans-30"/>
    </g>
   </g>
   <g id="text_32">
    <!-- 50 -->
    <g transform="translate(1279.714119 625.2168)scale(0.1 -0.1)">
     <use xlink:href="#DejaVuSans-35"/>
     <use x="63.623047" xlink:href="#DejaVuSans-30"/>
    </g>
   </g>
   <g id="text_33">
    <!-- 25 -->
    <g transform="translate(320.268978 655.0752)scale(0.1 -0.1)">
     <use xlink:href="#DejaVuSans-32"/>
     <use x="63.623047" xlink:href="#DejaVuSans-35"/>
    </g>
   </g>
   <g id="text_34">
    <!-- 25 -->
    <g transform="translate(512.158006 655.0752)scale(0.1 -0.1)">
     <use xlink:href="#DejaVuSans-32"/>
     <use x="63.623047" xlink:href="#DejaVuSans-35"/>
    </g>
   </g>
   <g id="text_35">
    <!-- 25 -->
    <g transform="translate(704.047034 655.0752)scale(0.1 -0.1)">
     <use xlink:href="#DejaVuSans-32"/>
     <use x="63.623047" xlink:href="#DejaVuSans-35"/>
    </g>
   </g>
   <g id="text_36">
    <!-- 50 -->
    <g transform="translate(895.936063 585.4056)scale(0.1 -0.1)">
     <use xlink:href="#DejaVuSans-35"/>
     <use x="63.623047" xlink:href="#DejaVuSans-30"/>
    </g>
   </g>
   <g id="text_37">
    <!-- 50 -->
    <g transform="translate(1087.825091 585.4056)scale(0.1 -0.1)">
     <use xlink:href="#DejaVuSans-35"/>
     <use x="63.623047" xlink:href="#DejaVuSans-30"/>
    </g>
   </g>
   <g id="text_38">
    <!-- 50 -->
    <g transform="translate(1279.714119 585.4056)scale(0.1 -0.1)">
     <use xlink:href="#DejaVuSans-35"/>
     <use x="63.623047" xlink:href="#DejaVuSans-30"/>
    </g>
   </g>
   <g id="text_39">
    <!-- 25 -->
    <g transform="translate(320.268978 635.1696)scale(0.1 -0.1)">
     <use xlink:href="#DejaVuSans-32"/>
     <use x="63.623047" xlink:href="#DejaVuSans-35"/>
    </g>
   </g>
   <g id="text_40">
    <!-- 25 -->
    <g transform="translate(512.158006 635.1696)scale(0.1 -0.1)">
     <use xlink:href="#DejaVuSans-32"/>
     <use x="63.623047" xlink:href="#DejaVuSans-35"/>
    </g>
   </g>
   <g id="text_41">
    <!-- 25 -->
    <g transform="translate(704.047034 635.1696)scale(0.1 -0.1)">
     <use xlink:href="#DejaVuSans-32"/>
     <use x="63.623047" xlink:href="#DejaVuSans-35"/>
    </g>
   </g>
   <g id="text_42">
    <!-- 50 -->
    <g transform="translate(895.936063 545.5944)scale(0.1 -0.1)">
     <use xlink:href="#DejaVuSans-35"/>
     <use x="63.623047" xlink:href="#DejaVuSans-30"/>
    </g>
   </g>
   <g id="text_43">
    <!-- 50 -->
    <g transform="translate(1087.825091 545.5944)scale(0.1 -0.1)">
     <use xlink:href="#DejaVuSans-35"/>
     <use x="63.623047" xlink:href="#DejaVuSans-30"/>
    </g>
   </g>
   <g id="text_44">
    <!-- 50 -->
    <g transform="translate(1279.714119 545.5944)scale(0.1 -0.1)">
     <use xlink:href="#DejaVuSans-35"/>
     <use x="63.623047" xlink:href="#DejaVuSans-30"/>
    </g>
   </g>
   <g id="text_45">
    <!-- 25 -->
    <g transform="translate(320.268978 615.264)scale(0.1 -0.1)">
     <use xlink:href="#DejaVuSans-32"/>
     <use x="63.623047" xlink:href="#DejaVuSans-35"/>
    </g>
   </g>
   <g id="text_46">
    <!-- 25 -->
    <g transform="translate(512.158006 615.264)scale(0.1 -0.1)">
     <use xlink:href="#DejaVuSans-32"/>
     <use x="63.623047" xlink:href="#DejaVuSans-35"/>
    </g>
   </g>
   <g id="text_47">
    <!-- 25 -->
    <g transform="translate(704.047034 615.264)scale(0.1 -0.1)">
     <use xlink:href="#DejaVuSans-32"/>
     <use x="63.623047" xlink:href="#DejaVuSans-35"/>
    </g>
   </g>
   <g id="text_48">
    <!-- 50 -->
    <g transform="translate(895.936063 505.7832)scale(0.1 -0.1)">
     <use xlink:href="#DejaVuSans-35"/>
     <use x="63.623047" xlink:href="#DejaVuSans-30"/>
    </g>
   </g>
   <g id="text_49">
    <!-- 50 -->
    <g transform="translate(1087.825091 505.7832)scale(0.1 -0.1)">
     <use xlink:href="#DejaVuSans-35"/>
     <use x="63.623047" xlink:href="#DejaVuSans-30"/>
    </g>
   </g>
   <g id="text_50">
    <!-- 50 -->
    <g transform="translate(1279.714119 505.7832)scale(0.1 -0.1)">
     <use xlink:href="#DejaVuSans-35"/>
     <use x="63.623047" xlink:href="#DejaVuSans-30"/>
    </g>
   </g>
   <g id="text_51">
    <!-- 25 -->
    <g transform="translate(320.268978 595.3584)scale(0.1 -0.1)">
     <use xlink:href="#DejaVuSans-32"/>
     <use x="63.623047" xlink:href="#DejaVuSans-35"/>
    </g>
   </g>
   <g id="text_52">
    <!-- 25 -->
    <g transform="translate(512.158006 595.3584)scale(0.1 -0.1)">
     <use xlink:href="#DejaVuSans-32"/>
     <use x="63.623047" xlink:href="#DejaVuSans-35"/>
    </g>
   </g>
   <g id="text_53">
    <!-- 25 -->
    <g transform="translate(704.047034 595.3584)scale(0.1 -0.1)">
     <use xlink:href="#DejaVuSans-32"/>
     <use x="63.623047" xlink:href="#DejaVuSans-35"/>
    </g>
   </g>
   <g id="text_54">
    <!-- 50 -->
    <g transform="translate(895.936063 465.972)scale(0.1 -0.1)">
     <use xlink:href="#DejaVuSans-35"/>
     <use x="63.623047" xlink:href="#DejaVuSans-30"/>
    </g>
   </g>
   <g id="text_55">
    <!-- 50 -->
    <g transform="translate(1087.825091 465.972)scale(0.1 -0.1)">
     <use xlink:href="#DejaVuSans-35"/>
     <use x="63.623047" xlink:href="#DejaVuSans-30"/>
    </g>
   </g>
   <g id="text_56">
    <!-- 50 -->
    <g transform="translate(1279.714119 465.972)scale(0.1 -0.1)">
     <use xlink:href="#DejaVuSans-35"/>
     <use x="63.623047" xlink:href="#DejaVuSans-30"/>
    </g>
   </g>
   <g id="text_57">
    <!-- 25 -->
    <g transform="translate(320.268978 575.4528)scale(0.1 -0.1)">
     <use xlink:href="#DejaVuSans-32"/>
     <use x="63.623047" xlink:href="#DejaVuSans-35"/>
    </g>
   </g>
   <g id="text_58">
    <!-- 25 -->
    <g transform="translate(512.158006 575.4528)scale(0.1 -0.1)">
     <use xlink:href="#DejaVuSans-32"/>
     <use x="63.623047" xlink:href="#DejaVuSans-35"/>
    </g>
   </g>
   <g id="text_59">
    <!-- 25 -->
    <g transform="translate(704.047034 575.4528)scale(0.1 -0.1)">
     <use xlink:href="#DejaVuSans-32"/>
     <use x="63.623047" xlink:href="#DejaVuSans-35"/>
    </g>
   </g>
   <g id="text_60">
    <!-- 50 -->
    <g transform="translate(895.936063 426.1608)scale(0.1 -0.1)">
     <use xlink:href="#DejaVuSans-35"/>
     <use x="63.623047" xlink:href="#DejaVuSans-30"/>
    </g>
   </g>
   <g id="text_61">
    <!-- 50 -->
    <g transform="translate(1087.825091 426.1608)scale(0.1 -0.1)">
     <use xlink:href="#DejaVuSans-35"/>
     <use x="63.623047" xlink:href="#DejaVuSans-30"/>
    </g>
   </g>
   <g id="text_62">
    <!-- 50 -->
    <g transform="translate(1279.714119 426.1608)scale(0.1 -0.1)">
     <use xlink:href="#DejaVuSans-35"/>
     <use x="63.623047" xlink:href="#DejaVuSans-30"/>
    </g>
   </g>
   <g id="text_63">
    <!-- 25 -->
    <g transform="translate(320.268978 555.5472)scale(0.1 -0.1)">
     <use xlink:href="#DejaVuSans-32"/>
     <use x="63.623047" xlink:href="#DejaVuSans-35"/>
    </g>
   </g>
   <g id="text_64">
    <!-- 25 -->
    <g transform="translate(512.158006 555.5472)scale(0.1 -0.1)">
     <use xlink:href="#DejaVuSans-32"/>
     <use x="63.623047" xlink:href="#DejaVuSans-35"/>
    </g>
   </g>
   <g id="text_65">
    <!-- 25 -->
    <g transform="translate(704.047034 555.5472)scale(0.1 -0.1)">
     <use xlink:href="#DejaVuSans-32"/>
     <use x="63.623047" xlink:href="#DejaVuSans-35"/>
    </g>
   </g>
   <g id="text_66">
    <!-- 50 -->
    <g transform="translate(895.936063 386.3496)scale(0.1 -0.1)">
     <use xlink:href="#DejaVuSans-35"/>
     <use x="63.623047" xlink:href="#DejaVuSans-30"/>
    </g>
   </g>
   <g id="text_67">
    <!-- 50 -->
    <g transform="translate(1087.825091 386.3496)scale(0.1 -0.1)">
     <use xlink:href="#DejaVuSans-35"/>
     <use x="63.623047" xlink:href="#DejaVuSans-30"/>
    </g>
   </g>
   <g id="text_68">
    <!-- 50 -->
    <g transform="translate(1279.714119 386.3496)scale(0.1 -0.1)">
     <use xlink:href="#DejaVuSans-35"/>
     <use x="63.623047" xlink:href="#DejaVuSans-30"/>
    </g>
   </g>
   <g id="text_69">
    <!-- 25 -->
    <g transform="translate(320.268978 535.6416)scale(0.1 -0.1)">
     <use xlink:href="#DejaVuSans-32"/>
     <use x="63.623047" xlink:href="#DejaVuSans-35"/>
    </g>
   </g>
   <g id="text_70">
    <!-- 25 -->
    <g transform="translate(512.158006 535.6416)scale(0.1 -0.1)">
     <use xlink:href="#DejaVuSans-32"/>
     <use x="63.623047" xlink:href="#DejaVuSans-35"/>
    </g>
   </g>
   <g id="text_71">
    <!-- 25 -->
    <g transform="translate(704.047034 535.6416)scale(0.1 -0.1)">
     <use xlink:href="#DejaVuSans-32"/>
     <use x="63.623047" xlink:href="#DejaVuSans-35"/>
    </g>
   </g>
   <g id="text_72">
    <!-- 50 -->
    <g transform="translate(895.936063 346.5384)scale(0.1 -0.1)">
     <use xlink:href="#DejaVuSans-35"/>
     <use x="63.623047" xlink:href="#DejaVuSans-30"/>
    </g>
   </g>
   <g id="text_73">
    <!-- 50 -->
    <g transform="translate(1087.825091 346.5384)scale(0.1 -0.1)">
     <use xlink:href="#DejaVuSans-35"/>
     <use x="63.623047" xlink:href="#DejaVuSans-30"/>
    </g>
   </g>
   <g id="text_74">
    <!-- 50 -->
    <g transform="translate(1279.714119 346.5384)scale(0.1 -0.1)">
     <use xlink:href="#DejaVuSans-35"/>
     <use x="63.623047" xlink:href="#DejaVuSans-30"/>
    </g>
   </g>
   <g id="text_75">
    <!-- 25 -->
    <g transform="translate(320.268978 515.736)scale(0.1 -0.1)">
     <use xlink:href="#DejaVuSans-32"/>
     <use x="63.623047" xlink:href="#DejaVuSans-35"/>
    </g>
   </g>
   <g id="text_76">
    <!-- 25 -->
    <g transform="translate(512.158006 515.736)scale(0.1 -0.1)">
     <use xlink:href="#DejaVuSans-32"/>
     <use x="63.623047" xlink:href="#DejaVuSans-35"/>
    </g>
   </g>
   <g id="text_77">
    <!-- 25 -->
    <g transform="translate(704.047034 515.736)scale(0.1 -0.1)">
     <use xlink:href="#DejaVuSans-32"/>
     <use x="63.623047" xlink:href="#DejaVuSans-35"/>
    </g>
   </g>
   <g id="text_78">
    <!-- 50 -->
    <g transform="translate(895.936063 306.7272)scale(0.1 -0.1)">
     <use xlink:href="#DejaVuSans-35"/>
     <use x="63.623047" xlink:href="#DejaVuSans-30"/>
    </g>
   </g>
   <g id="text_79">
    <!-- 50 -->
    <g transform="translate(1087.825091 306.7272)scale(0.1 -0.1)">
     <use xlink:href="#DejaVuSans-35"/>
     <use x="63.623047" xlink:href="#DejaVuSans-30"/>
    </g>
   </g>
   <g id="text_80">
    <!-- 50 -->
    <g transform="translate(1279.714119 306.7272)scale(0.1 -0.1)">
     <use xlink:href="#DejaVuSans-35"/>
     <use x="63.623047" xlink:href="#DejaVuSans-30"/>
    </g>
   </g>
   <g id="text_81">
    <!-- 25 -->
    <g transform="translate(320.268978 495.8304)scale(0.1 -0.1)">
     <use xlink:href="#DejaVuSans-32"/>
     <use x="63.623047" xlink:href="#DejaVuSans-35"/>
    </g>
   </g>
   <g id="text_82">
    <!-- 25 -->
    <g transform="translate(512.158006 495.8304)scale(0.1 -0.1)">
     <use xlink:href="#DejaVuSans-32"/>
     <use x="63.623047" xlink:href="#DejaVuSans-35"/>
    </g>
   </g>
   <g id="text_83">
    <!-- 25 -->
    <g transform="translate(704.047034 495.8304)scale(0.1 -0.1)">
     <use xlink:href="#DejaVuSans-32"/>
     <use x="63.623047" xlink:href="#DejaVuSans-35"/>
    </g>
   </g>
   <g id="text_84">
    <!-- 50 -->
    <g transform="translate(895.936063 266.916)scale(0.1 -0.1)">
     <use xlink:href="#DejaVuSans-35"/>
     <use x="63.623047" xlink:href="#DejaVuSans-30"/>
    </g>
   </g>
   <g id="text_85">
    <!-- 50 -->
    <g transform="translate(1087.825091 266.916)scale(0.1 -0.1)">
     <use xlink:href="#DejaVuSans-35"/>
     <use x="63.623047" xlink:href="#DejaVuSans-30"/>
    </g>
   </g>
   <g id="text_86">
    <!-- 50 -->
    <g transform="translate(1279.714119 266.916)scale(0.1 -0.1)">
     <use xlink:href="#DejaVuSans-35"/>
     <use x="63.623047" xlink:href="#DejaVuSans-30"/>
    </g>
   </g>
   <g id="text_87">
    <!-- 25 -->
    <g transform="translate(320.268978 475.9248)scale(0.1 -0.1)">
     <use xlink:href="#DejaVuSans-32"/>
     <use x="63.623047" xlink:href="#DejaVuSans-35"/>
    </g>
   </g>
   <g id="text_88">
    <!-- 25 -->
    <g transform="translate(512.158006 475.9248)scale(0.1 -0.1)">
     <use xlink:href="#DejaVuSans-32"/>
     <use x="63.623047" xlink:href="#DejaVuSans-35"/>
    </g>
   </g>
   <g id="text_89">
    <!-- 25 -->
    <g transform="translate(704.047034 475.9248)scale(0.1 -0.1)">
     <use xlink:href="#DejaVuSans-32"/>
     <use x="63.623047" xlink:href="#DejaVuSans-35"/>
    </g>
   </g>
   <g id="text_90">
    <!-- 50 -->
    <g transform="translate(895.936063 227.1048)scale(0.1 -0.1)">
     <use xlink:href="#DejaVuSans-35"/>
     <use x="63.623047" xlink:href="#DejaVuSans-30"/>
    </g>
   </g>
   <g id="text_91">
    <!-- 50 -->
    <g transform="translate(1087.825091 227.1048)scale(0.1 -0.1)">
     <use xlink:href="#DejaVuSans-35"/>
     <use x="63.623047" xlink:href="#DejaVuSans-30"/>
    </g>
   </g>
   <g id="text_92">
    <!-- 50 -->
    <g transform="translate(1279.714119 227.1048)scale(0.1 -0.1)">
     <use xlink:href="#DejaVuSans-35"/>
     <use x="63.623047" xlink:href="#DejaVuSans-30"/>
    </g>
   </g>
   <g id="text_93">
    <!-- 25 -->
    <g transform="translate(320.268978 456.0192)scale(0.1 -0.1)">
     <use xlink:href="#DejaVuSans-32"/>
     <use x="63.623047" xlink:href="#DejaVuSans-35"/>
    </g>
   </g>
   <g id="text_94">
    <!-- 25 -->
    <g transform="translate(512.158006 456.0192)scale(0.1 -0.1)">
     <use xlink:href="#DejaVuSans-32"/>
     <use x="63.623047" xlink:href="#DejaVuSans-35"/>
    </g>
   </g>
   <g id="text_95">
    <!-- 25 -->
    <g transform="translate(704.047034 456.0192)scale(0.1 -0.1)">
     <use xlink:href="#DejaVuSans-32"/>
     <use x="63.623047" xlink:href="#DejaVuSans-35"/>
    </g>
   </g>
   <g id="text_96">
    <!-- 50 -->
    <g transform="translate(895.936063 187.2936)scale(0.1 -0.1)">
     <use xlink:href="#DejaVuSans-35"/>
     <use x="63.623047" xlink:href="#DejaVuSans-30"/>
    </g>
   </g>
   <g id="text_97">
    <!-- 50 -->
    <g transform="translate(1087.825091 187.2936)scale(0.1 -0.1)">
     <use xlink:href="#DejaVuSans-35"/>
     <use x="63.623047" xlink:href="#DejaVuSans-30"/>
    </g>
   </g>
   <g id="text_98">
    <!-- 50 -->
    <g transform="translate(1279.714119 187.2936)scale(0.1 -0.1)">
     <use xlink:href="#DejaVuSans-35"/>
     <use x="63.623047" xlink:href="#DejaVuSans-30"/>
    </g>
   </g>
   <g id="text_99">
    <!-- 25 -->
    <g transform="translate(320.268978 436.1136)scale(0.1 -0.1)">
     <use xlink:href="#DejaVuSans-32"/>
     <use x="63.623047" xlink:href="#DejaVuSans-35"/>
    </g>
   </g>
   <g id="text_100">
    <!-- 25 -->
    <g transform="translate(512.158006 436.1136)scale(0.1 -0.1)">
     <use xlink:href="#DejaVuSans-32"/>
     <use x="63.623047" xlink:href="#DejaVuSans-35"/>
    </g>
   </g>
   <g id="text_101">
    <!-- 25 -->
    <g transform="translate(704.047034 436.1136)scale(0.1 -0.1)">
     <use xlink:href="#DejaVuSans-32"/>
     <use x="63.623047" xlink:href="#DejaVuSans-35"/>
    </g>
   </g>
   <g id="text_102">
    <!-- 50 -->
    <g transform="translate(895.936063 147.4824)scale(0.1 -0.1)">
     <use xlink:href="#DejaVuSans-35"/>
     <use x="63.623047" xlink:href="#DejaVuSans-30"/>
    </g>
   </g>
   <g id="text_103">
    <!-- 50 -->
    <g transform="translate(1087.825091 147.4824)scale(0.1 -0.1)">
     <use xlink:href="#DejaVuSans-35"/>
     <use x="63.623047" xlink:href="#DejaVuSans-30"/>
    </g>
   </g>
   <g id="text_104">
    <!-- 50 -->
    <g transform="translate(1279.714119 147.4824)scale(0.1 -0.1)">
     <use xlink:href="#DejaVuSans-35"/>
     <use x="63.623047" xlink:href="#DejaVuSans-30"/>
    </g>
   </g>
   <g id="text_105">
    <!-- 375 -->
    <g transform="translate(320.268978 420.18912)scale(0.1 -0.1)">
     <defs>
      <path d="M 2981 2516 
Q 3453 2394 3698 2092 
Q 3944 1791 3944 1325 
Q 3944 631 3412 270 
Q 2881 -91 1863 -91 
Q 1503 -91 1142 -33 
Q 781 25 428 141 
L 428 1069 
Q 766 900 1098 814 
Q 1431 728 1753 728 
Q 2231 728 2486 893 
Q 2741 1059 2741 1369 
Q 2741 1688 2480 1852 
Q 2219 2016 1709 2016 
L 1228 2016 
L 1228 2791 
L 1734 2791 
Q 2188 2791 2409 2933 
Q 2631 3075 2631 3366 
Q 2631 3634 2415 3781 
Q 2200 3928 1806 3928 
Q 1516 3928 1219 3862 
Q 922 3797 628 3669 
L 628 4550 
Q 984 4650 1334 4700 
Q 1684 4750 2022 4750 
Q 2931 4750 3382 4451 
Q 3834 4153 3834 3553 
Q 3834 3144 3618 2883 
Q 3403 2622 2981 2516 
z
" id="DejaVuSans-Bold-33" transform="scale(0.015625)"/>
      <path d="M 428 4666 
L 3944 4666 
L 3944 3988 
L 2125 0 
L 953 0 
L 2675 3781 
L 428 3781 
L 428 4666 
z
" id="DejaVuSans-Bold-37" transform="scale(0.015625)"/>
      <path d="M 678 4666 
L 3669 4666 
L 3669 3781 
L 1638 3781 
L 1638 3059 
Q 1775 3097 1914 3117 
Q 2053 3138 2203 3138 
Q 3056 3138 3531 2711 
Q 4006 2284 4006 1522 
Q 4006 766 3489 337 
Q 2972 -91 2053 -91 
Q 1656 -91 1267 -14 
Q 878 63 494 219 
L 494 1166 
Q 875 947 1217 837 
Q 1559 728 1863 728 
Q 2300 728 2551 942 
Q 2803 1156 2803 1522 
Q 2803 1891 2551 2103 
Q 2300 2316 1863 2316 
Q 1603 2316 1309 2248 
Q 1016 2181 678 2041 
L 678 4666 
z
" id="DejaVuSans-Bold-35" transform="scale(0.015625)"/>
     </defs>
     <use xlink:href="#DejaVuSans-Bold-33"/>
     <use x="69.580078" xlink:href="#DejaVuSans-Bold-37"/>
     <use x="139.160156" xlink:href="#DejaVuSans-Bold-35"/>
    </g>
   </g>
   <g id="text_106">
    <!-- 375 -->
    <g transform="translate(512.158006 420.18912)scale(0.1 -0.1)">
     <use xlink:href="#DejaVuSans-Bold-33"/>
     <use x="69.580078" xlink:href="#DejaVuSans-Bold-37"/>
     <use x="139.160156" xlink:href="#DejaVuSans-Bold-35"/>
    </g>
   </g>
   <g id="text_107">
    <!-- 375 -->
    <g transform="translate(704.047034 420.18912)scale(0.1 -0.1)">
     <use xlink:href="#DejaVuSans-Bold-33"/>
     <use x="69.580078" xlink:href="#DejaVuSans-Bold-37"/>
     <use x="139.160156" xlink:href="#DejaVuSans-Bold-35"/>
    </g>
   </g>
   <g id="text_108">
    <!-- 750 -->
    <g transform="translate(895.936063 115.63344)scale(0.1 -0.1)">
     <defs>
      <path d="M 2944 2338 
Q 2944 3213 2780 3570 
Q 2616 3928 2228 3928 
Q 1841 3928 1675 3570 
Q 1509 3213 1509 2338 
Q 1509 1453 1675 1090 
Q 1841 728 2228 728 
Q 2613 728 2778 1090 
Q 2944 1453 2944 2338 
z
M 4147 2328 
Q 4147 1169 3647 539 
Q 3147 -91 2228 -91 
Q 1306 -91 806 539 
Q 306 1169 306 2328 
Q 306 3491 806 4120 
Q 1306 4750 2228 4750 
Q 3147 4750 3647 4120 
Q 4147 3491 4147 2328 
z
" id="DejaVuSans-Bold-30" transform="scale(0.015625)"/>
     </defs>
     <use xlink:href="#DejaVuSans-Bold-37"/>
     <use x="69.580078" xlink:href="#DejaVuSans-Bold-35"/>
     <use x="139.160156" xlink:href="#DejaVuSans-Bold-30"/>
    </g>
   </g>
   <g id="text_109">
    <!-- 750 -->
    <g transform="translate(1087.825091 115.63344)scale(0.1 -0.1)">
     <use xlink:href="#DejaVuSans-Bold-37"/>
     <use x="69.580078" xlink:href="#DejaVuSans-Bold-35"/>
     <use x="139.160156" xlink:href="#DejaVuSans-Bold-30"/>
    </g>
   </g>
   <g id="text_110">
    <!-- 750 -->
    <g transform="translate(1279.714119 115.63344)scale(0.1 -0.1)">
     <use xlink:href="#DejaVuSans-Bold-37"/>
     <use x="69.580078" xlink:href="#DejaVuSans-Bold-35"/>
     <use x="139.160156" xlink:href="#DejaVuSans-Bold-30"/>
    </g>
   </g>
   <g id="text_111">
    <!-- swedishLeaves3folds15 -->
    <g transform="translate(738.644437 91.7184)scale(0.12 -0.12)">
     <defs>
      <path d="M 269 3500 
L 844 3500 
L 1563 769 
L 2278 3500 
L 2956 3500 
L 3675 769 
L 4391 3500 
L 4966 3500 
L 4050 0 
L 3372 0 
L 2619 2869 
L 1863 0 
L 1184 0 
L 269 3500 
z
" id="DejaVuSans-77" transform="scale(0.015625)"/>
      <path d="M 2906 2969 
L 2906 4863 
L 3481 4863 
L 3481 0 
L 2906 0 
L 2906 525 
Q 2725 213 2448 61 
Q 2172 -91 1784 -91 
Q 1150 -91 751 415 
Q 353 922 353 1747 
Q 353 2572 751 3078 
Q 1150 3584 1784 3584 
Q 2172 3584 2448 3432 
Q 2725 3281 2906 2969 
z
M 947 1747 
Q 947 1113 1208 752 
Q 1469 391 1925 391 
Q 2381 391 2643 752 
Q 2906 1113 2906 1747 
Q 2906 2381 2643 2742 
Q 2381 3103 1925 3103 
Q 1469 3103 1208 2742 
Q 947 2381 947 1747 
z
" id="DejaVuSans-64" transform="scale(0.015625)"/>
      <path d="M 3513 2113 
L 3513 0 
L 2938 0 
L 2938 2094 
Q 2938 2591 2744 2837 
Q 2550 3084 2163 3084 
Q 1697 3084 1428 2787 
Q 1159 2491 1159 1978 
L 1159 0 
L 581 0 
L 581 4863 
L 1159 4863 
L 1159 2956 
Q 1366 3272 1645 3428 
Q 1925 3584 2291 3584 
Q 2894 3584 3203 3211 
Q 3513 2838 3513 2113 
z
" id="DejaVuSans-68" transform="scale(0.015625)"/>
      <path d="M 628 4666 
L 1259 4666 
L 1259 531 
L 3531 531 
L 3531 0 
L 628 0 
L 628 4666 
z
" id="DejaVuSans-4c" transform="scale(0.015625)"/>
      <path d="M 191 3500 
L 800 3500 
L 1894 563 
L 2988 3500 
L 3597 3500 
L 2284 0 
L 1503 0 
L 191 3500 
z
" id="DejaVuSans-76" transform="scale(0.015625)"/>
      <path d="M 2375 4863 
L 2375 4384 
L 1825 4384 
Q 1516 4384 1395 4259 
Q 1275 4134 1275 3809 
L 1275 3500 
L 2222 3500 
L 2222 3053 
L 1275 3053 
L 1275 0 
L 697 0 
L 697 3053 
L 147 3053 
L 147 3500 
L 697 3500 
L 697 3744 
Q 697 4328 969 4595 
Q 1241 4863 1831 4863 
L 2375 4863 
z
" id="DejaVuSans-66" transform="scale(0.015625)"/>
      <path d="M 1959 3097 
Q 1497 3097 1228 2736 
Q 959 2375 959 1747 
Q 959 1119 1226 758 
Q 1494 397 1959 397 
Q 2419 397 2687 759 
Q 2956 1122 2956 1747 
Q 2956 2369 2687 2733 
Q 2419 3097 1959 3097 
z
M 1959 3584 
Q 2709 3584 3137 3096 
Q 3566 2609 3566 1747 
Q 3566 888 3137 398 
Q 2709 -91 1959 -91 
Q 1206 -91 779 398 
Q 353 888 353 1747 
Q 353 2609 779 3096 
Q 1206 3584 1959 3584 
z
" id="DejaVuSans-6f" transform="scale(0.015625)"/>
      <path d="M 603 4863 
L 1178 4863 
L 1178 0 
L 603 0 
L 603 4863 
z
" id="DejaVuSans-6c" transform="scale(0.015625)"/>
     </defs>
     <use xlink:href="#DejaVuSans-73"/>
     <use x="52.099609" xlink:href="#DejaVuSans-77"/>
     <use x="133.886719" xlink:href="#DejaVuSans-65"/>
     <use x="195.410156" xlink:href="#DejaVuSans-64"/>
     <use x="258.886719" xlink:href="#DejaVuSans-69"/>
     <use x="286.669922" xlink:href="#DejaVuSans-73"/>
     <use x="338.769531" xlink:href="#DejaVuSans-68"/>
     <use x="402.148438" xlink:href="#DejaVuSans-4c"/>
     <use x="456.111328" xlink:href="#DejaVuSans-65"/>
     <use x="517.634766" xlink:href="#DejaVuSans-61"/>
     <use x="578.914062" xlink:href="#DejaVuSans-76"/>
     <use x="638.09375" xlink:href="#DejaVuSans-65"/>
     <use x="699.617188" xlink:href="#DejaVuSans-73"/>
     <use x="751.716797" xlink:href="#DejaVuSans-33"/>
     <use x="815.339844" xlink:href="#DejaVuSans-66"/>
     <use x="850.544922" xlink:href="#DejaVuSans-6f"/>
     <use x="911.726562" xlink:href="#DejaVuSans-6c"/>
     <use x="939.509766" xlink:href="#DejaVuSans-64"/>
     <use x="1002.986328" xlink:href="#DejaVuSans-73"/>
     <use x="1055.085938" xlink:href="#DejaVuSans-31"/>
     <use x="1118.708984" xlink:href="#DejaVuSans-35"/>
    </g>
   </g>
   <g id="legend_1">
    <g id="patch_97">
     <path d="M 204.46 325.890275 
L 267.764688 325.890275 
Q 269.764688 325.890275 269.764688 323.890275 
L 269.764688 104.7184 
Q 269.764688 102.7184 267.764688 102.7184 
L 204.46 102.7184 
Q 202.46 102.7184 202.46 104.7184 
L 202.46 323.890275 
Q 202.46 325.890275 204.46 325.890275 
z
" style="fill:#ffffff;opacity:0.8;stroke:#cccccc;stroke-linejoin:miter;"/>
    </g>
    <g id="patch_98">
     <path d="M 206.46 114.316837 
L 226.46 114.316837 
L 226.46 107.316837 
L 206.46 107.316837 
z
" style="fill:#1f77b4;"/>
    </g>
    <g id="text_112">
     <!-- leaf1 -->
     <g transform="translate(234.46 114.316837)scale(0.1 -0.1)">
      <use xlink:href="#DejaVuSans-6c"/>
      <use x="27.783203" xlink:href="#DejaVuSans-65"/>
      <use x="89.306641" xlink:href="#DejaVuSans-61"/>
      <use x="150.585938" xlink:href="#DejaVuSans-66"/>
      <use x="185.791016" xlink:href="#DejaVuSans-31"/>
     </g>
    </g>
    <g id="patch_99">
     <path d="M 206.46 128.994962 
L 226.46 128.994962 
L 226.46 121.994962 
L 206.46 121.994962 
z
" style="fill:#ff7f0e;"/>
    </g>
    <g id="text_113">
     <!-- leaf10 -->
     <g transform="translate(234.46 128.994962)scale(0.1 -0.1)">
      <use xlink:href="#DejaVuSans-6c"/>
      <use x="27.783203" xlink:href="#DejaVuSans-65"/>
      <use x="89.306641" xlink:href="#DejaVuSans-61"/>
      <use x="150.585938" xlink:href="#DejaVuSans-66"/>
      <use x="185.791016" xlink:href="#DejaVuSans-31"/>
      <use x="249.414062" xlink:href="#DejaVuSans-30"/>
     </g>
    </g>
    <g id="patch_100">
     <path d="M 206.46 143.673087 
L 226.46 143.673087 
L 226.46 136.673087 
L 206.46 136.673087 
z
" style="fill:#2ca02c;"/>
    </g>
    <g id="text_114">
     <!-- leaf11 -->
     <g transform="translate(234.46 143.673087)scale(0.1 -0.1)">
      <use xlink:href="#DejaVuSans-6c"/>
      <use x="27.783203" xlink:href="#DejaVuSans-65"/>
      <use x="89.306641" xlink:href="#DejaVuSans-61"/>
      <use x="150.585938" xlink:href="#DejaVuSans-66"/>
      <use x="185.791016" xlink:href="#DejaVuSans-31"/>
      <use x="249.414062" xlink:href="#DejaVuSans-31"/>
     </g>
    </g>
    <g id="patch_101">
     <path d="M 206.46 158.351212 
L 226.46 158.351212 
L 226.46 151.351212 
L 206.46 151.351212 
z
" style="fill:#d62728;"/>
    </g>
    <g id="text_115">
     <!-- leaf12 -->
     <g transform="translate(234.46 158.351212)scale(0.1 -0.1)">
      <use xlink:href="#DejaVuSans-6c"/>
      <use x="27.783203" xlink:href="#DejaVuSans-65"/>
      <use x="89.306641" xlink:href="#DejaVuSans-61"/>
      <use x="150.585938" xlink:href="#DejaVuSans-66"/>
      <use x="185.791016" xlink:href="#DejaVuSans-31"/>
      <use x="249.414062" xlink:href="#DejaVuSans-32"/>
     </g>
    </g>
    <g id="patch_102">
     <path d="M 206.46 173.029337 
L 226.46 173.029337 
L 226.46 166.029337 
L 206.46 166.029337 
z
" style="fill:#9467bd;"/>
    </g>
    <g id="text_116">
     <!-- leaf13 -->
     <g transform="translate(234.46 173.029337)scale(0.1 -0.1)">
      <use xlink:href="#DejaVuSans-6c"/>
      <use x="27.783203" xlink:href="#DejaVuSans-65"/>
      <use x="89.306641" xlink:href="#DejaVuSans-61"/>
      <use x="150.585938" xlink:href="#DejaVuSans-66"/>
      <use x="185.791016" xlink:href="#DejaVuSans-31"/>
      <use x="249.414062" xlink:href="#DejaVuSans-33"/>
     </g>
    </g>
    <g id="patch_103">
     <path d="M 206.46 187.707462 
L 226.46 187.707462 
L 226.46 180.707462 
L 206.46 180.707462 
z
" style="fill:#8c564b;"/>
    </g>
    <g id="text_117">
     <!-- leaf14 -->
     <g transform="translate(234.46 187.707462)scale(0.1 -0.1)">
      <use xlink:href="#DejaVuSans-6c"/>
      <use x="27.783203" xlink:href="#DejaVuSans-65"/>
      <use x="89.306641" xlink:href="#DejaVuSans-61"/>
      <use x="150.585938" xlink:href="#DejaVuSans-66"/>
      <use x="185.791016" xlink:href="#DejaVuSans-31"/>
      <use x="249.414062" xlink:href="#DejaVuSans-34"/>
     </g>
    </g>
    <g id="patch_104">
     <path d="M 206.46 202.385587 
L 226.46 202.385587 
L 226.46 195.385587 
L 206.46 195.385587 
z
" style="fill:#e377c2;"/>
    </g>
    <g id="text_118">
     <!-- leaf15 -->
     <g transform="translate(234.46 202.385587)scale(0.1 -0.1)">
      <use xlink:href="#DejaVuSans-6c"/>
      <use x="27.783203" xlink:href="#DejaVuSans-65"/>
      <use x="89.306641" xlink:href="#DejaVuSans-61"/>
      <use x="150.585938" xlink:href="#DejaVuSans-66"/>
      <use x="185.791016" xlink:href="#DejaVuSans-31"/>
      <use x="249.414062" xlink:href="#DejaVuSans-35"/>
     </g>
    </g>
    <g id="patch_105">
     <path d="M 206.46 217.063712 
L 226.46 217.063712 
L 226.46 210.063712 
L 206.46 210.063712 
z
" style="fill:#7f7f7f;"/>
    </g>
    <g id="text_119">
     <!-- leaf2 -->
     <g transform="translate(234.46 217.063712)scale(0.1 -0.1)">
      <use xlink:href="#DejaVuSans-6c"/>
      <use x="27.783203" xlink:href="#DejaVuSans-65"/>
      <use x="89.306641" xlink:href="#DejaVuSans-61"/>
      <use x="150.585938" xlink:href="#DejaVuSans-66"/>
      <use x="185.791016" xlink:href="#DejaVuSans-32"/>
     </g>
    </g>
    <g id="patch_106">
     <path d="M 206.46 231.741837 
L 226.46 231.741837 
L 226.46 224.741837 
L 206.46 224.741837 
z
" style="fill:#bcbd22;"/>
    </g>
    <g id="text_120">
     <!-- leaf3 -->
     <g transform="translate(234.46 231.741837)scale(0.1 -0.1)">
      <use xlink:href="#DejaVuSans-6c"/>
      <use x="27.783203" xlink:href="#DejaVuSans-65"/>
      <use x="89.306641" xlink:href="#DejaVuSans-61"/>
      <use x="150.585938" xlink:href="#DejaVuSans-66"/>
      <use x="185.791016" xlink:href="#DejaVuSans-33"/>
     </g>
    </g>
    <g id="patch_107">
     <path d="M 206.46 246.419962 
L 226.46 246.419962 
L 226.46 239.419962 
L 206.46 239.419962 
z
" style="fill:#17becf;"/>
    </g>
    <g id="text_121">
     <!-- leaf4 -->
     <g transform="translate(234.46 246.419962)scale(0.1 -0.1)">
      <use xlink:href="#DejaVuSans-6c"/>
      <use x="27.783203" xlink:href="#DejaVuSans-65"/>
      <use x="89.306641" xlink:href="#DejaVuSans-61"/>
      <use x="150.585938" xlink:href="#DejaVuSans-66"/>
      <use x="185.791016" xlink:href="#DejaVuSans-34"/>
     </g>
    </g>
    <g id="patch_108">
     <path d="M 206.46 261.098087 
L 226.46 261.098087 
L 226.46 254.098087 
L 206.46 254.098087 
z
" style="fill:#1f77b4;"/>
    </g>
    <g id="text_122">
     <!-- leaf5 -->
     <g transform="translate(234.46 261.098087)scale(0.1 -0.1)">
      <use xlink:href="#DejaVuSans-6c"/>
      <use x="27.783203" xlink:href="#DejaVuSans-65"/>
      <use x="89.306641" xlink:href="#DejaVuSans-61"/>
      <use x="150.585938" xlink:href="#DejaVuSans-66"/>
      <use x="185.791016" xlink:href="#DejaVuSans-35"/>
     </g>
    </g>
    <g id="patch_109">
     <path d="M 206.46 275.776212 
L 226.46 275.776212 
L 226.46 268.776212 
L 206.46 268.776212 
z
" style="fill:#ff7f0e;"/>
    </g>
    <g id="text_123">
     <!-- leaf6 -->
     <g transform="translate(234.46 275.776212)scale(0.1 -0.1)">
      <use xlink:href="#DejaVuSans-6c"/>
      <use x="27.783203" xlink:href="#DejaVuSans-65"/>
      <use x="89.306641" xlink:href="#DejaVuSans-61"/>
      <use x="150.585938" xlink:href="#DejaVuSans-66"/>
      <use x="185.791016" xlink:href="#DejaVuSans-36"/>
     </g>
    </g>
    <g id="patch_110">
     <path d="M 206.46 290.454337 
L 226.46 290.454337 
L 226.46 283.454337 
L 206.46 283.454337 
z
" style="fill:#2ca02c;"/>
    </g>
    <g id="text_124">
     <!-- leaf7 -->
     <g transform="translate(234.46 290.454337)scale(0.1 -0.1)">
      <use xlink:href="#DejaVuSans-6c"/>
      <use x="27.783203" xlink:href="#DejaVuSans-65"/>
      <use x="89.306641" xlink:href="#DejaVuSans-61"/>
      <use x="150.585938" xlink:href="#DejaVuSans-66"/>
      <use x="185.791016" xlink:href="#DejaVuSans-37"/>
     </g>
    </g>
    <g id="patch_111">
     <path d="M 206.46 305.132462 
L 226.46 305.132462 
L 226.46 298.132462 
L 206.46 298.132462 
z
" style="fill:#d62728;"/>
    </g>
    <g id="text_125">
     <!-- leaf8 -->
     <g transform="translate(234.46 305.132462)scale(0.1 -0.1)">
      <defs>
       <path d="M 2034 2216 
Q 1584 2216 1326 1975 
Q 1069 1734 1069 1313 
Q 1069 891 1326 650 
Q 1584 409 2034 409 
Q 2484 409 2743 651 
Q 3003 894 3003 1313 
Q 3003 1734 2745 1975 
Q 2488 2216 2034 2216 
z
M 1403 2484 
Q 997 2584 770 2862 
Q 544 3141 544 3541 
Q 544 4100 942 4425 
Q 1341 4750 2034 4750 
Q 2731 4750 3128 4425 
Q 3525 4100 3525 3541 
Q 3525 3141 3298 2862 
Q 3072 2584 2669 2484 
Q 3125 2378 3379 2068 
Q 3634 1759 3634 1313 
Q 3634 634 3220 271 
Q 2806 -91 2034 -91 
Q 1263 -91 848 271 
Q 434 634 434 1313 
Q 434 1759 690 2068 
Q 947 2378 1403 2484 
z
M 1172 3481 
Q 1172 3119 1398 2916 
Q 1625 2713 2034 2713 
Q 2441 2713 2670 2916 
Q 2900 3119 2900 3481 
Q 2900 3844 2670 4047 
Q 2441 4250 2034 4250 
Q 1625 4250 1398 4047 
Q 1172 3844 1172 3481 
z
" id="DejaVuSans-38" transform="scale(0.015625)"/>
      </defs>
      <use xlink:href="#DejaVuSans-6c"/>
      <use x="27.783203" xlink:href="#DejaVuSans-65"/>
      <use x="89.306641" xlink:href="#DejaVuSans-61"/>
      <use x="150.585938" xlink:href="#DejaVuSans-66"/>
      <use x="185.791016" xlink:href="#DejaVuSans-38"/>
     </g>
    </g>
    <g id="patch_112">
     <path d="M 206.46 319.810587 
L 226.46 319.810587 
L 226.46 312.810587 
L 206.46 312.810587 
z
" style="fill:#9467bd;"/>
    </g>
    <g id="text_126">
     <!-- leaf9 -->
     <g transform="translate(234.46 319.810587)scale(0.1 -0.1)">
      <defs>
       <path d="M 703 97 
L 703 672 
Q 941 559 1184 500 
Q 1428 441 1663 441 
Q 2288 441 2617 861 
Q 2947 1281 2994 2138 
Q 2813 1869 2534 1725 
Q 2256 1581 1919 1581 
Q 1219 1581 811 2004 
Q 403 2428 403 3163 
Q 403 3881 828 4315 
Q 1253 4750 1959 4750 
Q 2769 4750 3195 4129 
Q 3622 3509 3622 2328 
Q 3622 1225 3098 567 
Q 2575 -91 1691 -91 
Q 1453 -91 1209 -44 
Q 966 3 703 97 
z
M 1959 2075 
Q 2384 2075 2632 2365 
Q 2881 2656 2881 3163 
Q 2881 3666 2632 3958 
Q 2384 4250 1959 4250 
Q 1534 4250 1286 3958 
Q 1038 3666 1038 3163 
Q 1038 2656 1286 2365 
Q 1534 2075 1959 2075 
z
" id="DejaVuSans-39" transform="scale(0.015625)"/>
      </defs>
      <use xlink:href="#DejaVuSans-6c"/>
      <use x="27.783203" xlink:href="#DejaVuSans-65"/>
      <use x="89.306641" xlink:href="#DejaVuSans-61"/>
      <use x="150.585938" xlink:href="#DejaVuSans-66"/>
      <use x="185.791016" xlink:href="#DejaVuSans-39"/>
     </g>
    </g>
   </g>
  </g>
 </g>
 <defs>
  <clipPath id="p035681de15">
   <rect height="627.0264" width="1224.252" x="197.46" y="97.7184"/>
  </clipPath>
 </defs>
</svg>
